Kablammov0.9-MildLight.ufo
<glyph name="exclam" format="2">
  <advance width="229"/>
  <unicode hex="0021"/>
  <outline>
    <contour>
      <point x="99" y="216" type="line" smooth="yes"/>
      <point x="101" y="199"/>
      <point x="119" y="198"/>
      <point x="121" y="214" type="curve" smooth="yes"/>
      <point x="173" y="644" type="line" smooth="yes"/>
      <point x="184" y="733"/>
      <point x="48" y="734"/>
      <point x="57" y="644" type="curve" smooth="yes"/>
    </contour>
    <contour>
      <point x="108" y="-9" type="curve" smooth="yes"/>
      <point x="136" y="-9"/>
      <point x="159" y="14"/>
      <point x="159" y="43" type="curve" smooth="yes"/>
      <point x="159" y="71"/>
      <point x="136" y="94"/>
      <point x="108" y="94" type="curve" smooth="yes"/>
      <point x="78" y="94"/>
      <point x="55" y="71"/>
      <point x="55" y="43" type="curve" smooth="yes"/>
      <point x="55" y="14"/>
      <point x="78" y="-9"/>
    </contour>
    <contour>
      <point x="95" y="558" type="line" smooth="yes"/>
      <point x="81" y="559"/>
      <point x="80" y="533"/>
      <point x="94" y="533" type="curve" smooth="yes"/>
      <point x="124" y="532" type="line" smooth="yes"/>
      <point x="138" y="532"/>
      <point x="140" y="555"/>
      <point x="126" y="556" type="curve" smooth="yes"/>
    </contour>
    <contour>
      <point x="113" y="477" type="line" smooth="yes"/>
      <point x="98" y="477"/>
      <point x="98" y="446"/>
      <point x="112" y="446" type="curve" smooth="yes"/>
      <point x="123" y="446" type="line" smooth="yes"/>
      <point x="138" y="446"/>
      <point x="138" y="477"/>
      <point x="123" y="477" type="curve" smooth="yes"/>
    </contour>
    <contour>
      <point x="104" y="520" type="line" smooth="yes"/>
      <point x="80" y="517"/>
      <point x="81" y="488"/>
      <point x="103" y="488" type="curve" smooth="yes"/>
      <point x="123" y="488" type="line"/>
      <point x="118" y="522" type="line"/>
    </contour>
    <contour>
      <point x="121" y="358" type="curve" smooth="yes"/>
      <point x="102" y="360" type="line"/>
      <point x="98" y="336" type="line"/>
      <point x="121" y="329" type="line" smooth="yes"/>
      <point x="135" y="325"/>
      <point x="135" y="357"/>
    </contour>
  </outline>
</glyph>
<glyph name="quotedbl" format="2">
  <advance width="238"/>
  <unicode hex="0022"/>
  <outline>
    <contour>
      <point x="50" y="457" type="line" smooth="yes"/>
      <point x="50" y="438"/>
      <point x="79" y="438"/>
      <point x="79" y="457" type="curve" smooth="yes"/>
      <point x="79" y="694" type="line" smooth="yes"/>
      <point x="79" y="716"/>
      <point x="50" y="717"/>
      <point x="50" y="694" type="curve" smooth="yes"/>
    </contour>
    <contour>
      <point x="159" y="457" type="line" smooth="yes"/>
      <point x="159" y="438"/>
      <point x="188" y="438"/>
      <point x="188" y="457" type="curve" smooth="yes"/>
      <point x="188" y="694" type="line" smooth="yes"/>
      <point x="188" y="716"/>
      <point x="159" y="717"/>
      <point x="159" y="694" type="curve" smooth="yes"/>
    </contour>
    <contour>
      <point x="50" y="651" type="line"/>
      <point x="50" y="651" type="line"/>
      <point x="50" y="651"/>
      <point x="50" y="604"/>
      <point x="50" y="604" type="curve"/>
      <point x="50" y="604" type="line"/>
    </contour>
    <contour>
      <point x="159" y="654" type="line"/>
      <point x="159" y="654" type="line"/>
      <point x="159" y="654"/>
      <point x="159" y="610"/>
      <point x="159" y="610" type="curve"/>
      <point x="159" y="610" type="line"/>
    </contour>
    <contour>
      <point x="159" y="558" type="line"/>
      <point x="159" y="558" type="line"/>
      <point x="159" y="558"/>
      <point x="159" y="518"/>
      <point x="159" y="518" type="curve"/>
      <point x="159" y="518" type="line"/>
    </contour>
  </outline>
</glyph>
<glyph name="numbersign" format="2">
  <advance width="703"/>
  <unicode hex="0023"/>
  <outline>
    <contour>
      <point x="324" y="692" type="curve" smooth="yes"/>
      <point x="133" y="11" type="line" smooth="yes"/>
      <point x="128" y="-8"/>
      <point x="153" y="-16"/>
      <point x="160" y="7" type="curve" smooth="yes"/>
      <point x="352" y="688" type="line" smooth="yes"/>
      <point x="357" y="707"/>
      <point x="330" y="714"/>
    </contour>
    <contour>
      <point x="541" y="692" type="curve" smooth="yes"/>
      <point x="351" y="13" type="line" smooth="yes"/>
      <point x="345" y="-7"/>
      <point x="370" y="-16"/>
      <point x="377" y="7" type="curve" smooth="yes"/>
      <point x="569" y="689" type="line" smooth="yes"/>
      <point x="574" y="707"/>
      <point x="547" y="715"/>
    </contour>
    <contour>
      <point x="96" y="487" type="line" smooth="yes"/>
      <point x="75" y="487"/>
      <point x="75" y="462"/>
      <point x="96" y="462" type="curve" smooth="yes"/>
      <point x="675" y="462" type="line" smooth="yes"/>
      <point x="699" y="462"/>
      <point x="700" y="487"/>
      <point x="675" y="487" type="curve" smooth="yes"/>
    </contour>
    <contour>
      <point x="26" y="233" type="line" smooth="yes"/>
      <point x="5" y="233"/>
      <point x="5" y="208"/>
      <point x="26" y="208" type="curve" smooth="yes"/>
      <point x="605" y="208" type="line" smooth="yes"/>
      <point x="629" y="208"/>
      <point x="630" y="233"/>
      <point x="605" y="233" type="curve" smooth="yes"/>
    </contour>
  </outline>
</glyph>
<glyph name="dollar" format="2">
  <advance width="461"/>
  <unicode hex="0024"/>
  <outline>
    <contour>
      <point x="235" y="38" type="curve" smooth="yes"/>
      <point x="349" y="38"/>
      <point x="417" y="105"/>
      <point x="417" y="215" type="curve" smooth="yes"/>
      <point x="417" y="283"/>
      <point x="364" y="334"/>
      <point x="292" y="355" type="curve" smooth="yes"/>
      <point x="180" y="387" type="line" smooth="yes"/>
      <point x="122" y="404"/>
      <point x="88" y="432"/>
      <point x="88" y="494" type="curve" smooth="yes"/>
      <point x="88" y="552"/>
      <point x="130" y="586"/>
      <point x="215" y="586" type="curve" smooth="yes"/>
      <point x="289" y="586"/>
      <point x="315" y="539"/>
      <point x="366" y="539" type="curve" smooth="yes"/>
      <point x="390" y="539"/>
      <point x="404" y="554"/>
      <point x="404" y="577" type="curve" smooth="yes"/>
      <point x="404" y="619"/>
      <point x="325" y="659"/>
      <point x="244" y="659" type="curve" smooth="yes"/>
      <point x="134" y="659"/>
      <point x="61" y="591"/>
      <point x="61" y="498" type="curve" smooth="yes"/>
      <point x="61" y="407"/>
      <point x="120" y="378"/>
      <point x="172" y="363" type="curve" smooth="yes"/>
      <point x="283" y="332" type="line" smooth="yes"/>
      <point x="347" y="314"/>
      <point x="390" y="270"/>
      <point x="390" y="216" type="curve" smooth="yes"/>
      <point x="390" y="152"/>
      <point x="348" y="111"/>
      <point x="262" y="111" type="curve" smooth="yes"/>
      <point x="140" y="111"/>
      <point x="112" y="171"/>
      <point x="71" y="171" type="curve" smooth="yes"/>
      <point x="51" y="171"/>
      <point x="39" y="158"/>
      <point x="39" y="138" type="curve" smooth="yes"/>
      <point x="39" y="90"/>
      <point x="122" y="38"/>
    </contour>
    <contour>
      <point x="288" y="623" type="curve" smooth="yes"/>
      <point x="307" y="753" type="line" smooth="yes"/>
      <point x="310" y="773"/>
      <point x="285" y="776"/>
      <point x="282" y="758" type="curve" smooth="yes"/>
      <point x="264" y="629" type="line" smooth="yes"/>
      <point x="262" y="612"/>
      <point x="286" y="607"/>
    </contour>
    <contour>
      <point x="189" y="89" type="curve" smooth="yes"/>
      <point x="169" y="-57" type="line" smooth="yes"/>
      <point x="166" y="-76"/>
      <point x="192" y="-79"/>
      <point x="194" y="-61" type="curve" smooth="yes"/>
      <point x="214" y="86" type="line" smooth="yes"/>
      <point x="216" y="103"/>
      <point x="191" y="106"/>
    </contour>
    <contour>
      <point x="132" y="598" type="curve" smooth="yes"/>
      <point x="132" y="598"/>
      <point x="132" y="598"/>
      <point x="132" y="598" type="curve" smooth="yes"/>
      <point x="132" y="598"/>
      <point x="132" y="598"/>
      <point x="132" y="598" type="curve" smooth="yes"/>
      <point x="132" y="598"/>
      <point x="132" y="598"/>
      <point x="132" y="598" type="curve" smooth="yes"/>
      <point x="132" y="598"/>
      <point x="132" y="598"/>
    </contour>
    <contour>
      <point x="76" y="510" type="curve" smooth="yes"/>
      <point x="76" y="510"/>
      <point x="76" y="510"/>
      <point x="76" y="510" type="curve" smooth="yes"/>
      <point x="76" y="510"/>
      <point x="76" y="510"/>
      <point x="76" y="510" type="curve" smooth="yes"/>
      <point x="76" y="510"/>
      <point x="76" y="510"/>
      <point x="76" y="510" type="curve" smooth="yes"/>
      <point x="76" y="510"/>
      <point x="76" y="510"/>
    </contour>
    <contour>
      <point x="151" y="376" type="line" smooth="yes"/>
      <point x="157" y="367"/>
      <point x="170" y="375"/>
      <point x="165" y="385" type="curve" smooth="yes"/>
      <point x="164" y="387" type="line" smooth="yes"/>
      <point x="159" y="397"/>
      <point x="143" y="388"/>
      <point x="149" y="379" type="curve" smooth="yes"/>
    </contour>
    <contour>
      <point x="88" y="122" type="line" smooth="yes"/>
      <point x="68" y="78"/>
      <point x="113" y="56"/>
      <point x="136" y="98" type="curve" smooth="yes"/>
      <point x="151" y="125" type="line"/>
      <point x="103" y="155" type="line"/>
    </contour>
  </outline>
</glyph>
<glyph name="percent" format="2">
  <advance width="683"/>
  <unicode hex="0025"/>
  <outline>
    <contour>
      <point x="162" y="396" type="curve" smooth="yes"/>
      <point x="238" y="396"/>
      <point x="283" y="447"/>
      <point x="283" y="548" type="curve" smooth="yes"/>
      <point x="283" y="656"/>
      <point x="241" y="710"/>
      <point x="162" y="710" type="curve" smooth="yes"/>
      <point x="83" y="710"/>
      <point x="41" y="656"/>
      <point x="41" y="548" type="curve" smooth="yes"/>
      <point x="41" y="447"/>
      <point x="86" y="396"/>
    </contour>
    <contour>
      <point x="162" y="419" type="curve" smooth="yes"/>
      <point x="99" y="419"/>
      <point x="64" y="461"/>
      <point x="64" y="534" type="curve" smooth="yes"/>
      <point x="64" y="595"/>
      <point x="96" y="630"/>
      <point x="162" y="630" type="curve" smooth="yes"/>
      <point x="228" y="630"/>
      <point x="260" y="595"/>
      <point x="260" y="534" type="curve" smooth="yes"/>
      <point x="260" y="461"/>
      <point x="225" y="419"/>
    </contour>
    <contour>
      <point x="594" y="699" type="curve" smooth="yes"/>
      <point x="70" y="14" type="line" smooth="yes"/>
      <point x="59" y="-1"/>
      <point x="77" y="-16"/>
      <point x="90" y="0" type="curve" smooth="yes"/>
      <point x="615" y="684" type="line" smooth="yes"/>
      <point x="625" y="698"/>
      <point x="605" y="713"/>
    </contour>
    <contour>
      <point x="521" y="-6" type="curve" smooth="yes"/>
      <point x="600" y="-6"/>
      <point x="642" y="48"/>
      <point x="642" y="156" type="curve" smooth="yes"/>
      <point x="642" y="257"/>
      <point x="597" y="308"/>
      <point x="521" y="308" type="curve" smooth="yes"/>
      <point x="445" y="308"/>
      <point x="400" y="257"/>
      <point x="400" y="156" type="curve" smooth="yes"/>
      <point x="400" y="48"/>
      <point x="442" y="-6"/>
    </contour>
    <contour>
      <point x="521" y="74" type="curve" smooth="yes"/>
      <point x="455" y="74"/>
      <point x="423" y="109"/>
      <point x="423" y="170" type="curve" smooth="yes"/>
      <point x="423" y="243"/>
      <point x="458" y="285"/>
      <point x="521" y="285" type="curve" smooth="yes"/>
      <point x="584" y="285"/>
      <point x="619" y="243"/>
      <point x="619" y="170" type="curve" smooth="yes"/>
      <point x="619" y="109"/>
      <point x="587" y="74"/>
    </contour>
    <contour>
      <point x="577" y="43" type="line" smooth="yes"/>
      <point x="589" y="20"/>
      <point x="616" y="29"/>
      <point x="606" y="56" type="curve" smooth="yes"/>
      <point x="600" y="72" type="line"/>
      <point x="571" y="54" type="line"/>
    </contour>
    <contour>
      <point x="428" y="80" type="line" smooth="yes"/>
      <point x="422" y="74"/>
      <point x="441" y="55"/>
      <point x="447" y="62" type="curve" smooth="yes"/>
      <point x="451" y="67" type="line"/>
      <point x="433" y="85" type="line"/>
    </contour>
    <contour>
      <point x="120" y="680" type="line" smooth="yes"/>
      <point x="116" y="698"/>
      <point x="80" y="689"/>
      <point x="90" y="671" type="curve" smooth="yes"/>
      <point x="98" y="656" type="line"/>
      <point x="123" y="666" type="line"/>
    </contour>
    <contour>
      <point x="250" y="607" type="line" smooth="yes"/>
      <point x="261" y="613"/>
      <point x="247" y="644"/>
      <point x="235" y="637" type="curve" smooth="yes"/>
      <point x="227" y="632" type="line"/>
      <point x="243" y="603" type="line"/>
    </contour>
    <contour>
      <point x="71" y="453" type="line" smooth="yes"/>
      <point x="64" y="444"/>
      <point x="84" y="423"/>
      <point x="89" y="436" type="curve" smooth="yes"/>
      <point x="91" y="441" type="line"/>
      <point x="74" y="457" type="line"/>
    </contour>
  </outline>
</glyph>
<glyph name="ampersand" format="2">
  <advance width="513"/>
  <unicode hex="0026"/>
  <outline>
    <contour>
      <point x="235" y="-14" type="curve" smooth="yes"/>
      <point x="342" y="-14"/>
      <point x="457" y="15"/>
      <point x="457" y="118" type="curve" smooth="yes"/>
      <point x="457" y="314" type="line" smooth="yes"/>
      <point x="457" y="331"/>
      <point x="461" y="341"/>
      <point x="476" y="341" type="curve" smooth="yes"/>
      <point x="490" y="341" type="line" smooth="yes"/>
      <point x="508" y="341"/>
      <point x="508" y="364"/>
      <point x="490" y="364" type="curve" smooth="yes"/>
      <point x="190" y="364" type="line" smooth="yes"/>
      <point x="127" y="364"/>
      <point x="89" y="421"/>
      <point x="89" y="489" type="curve" smooth="yes"/>
      <point x="89" y="567"/>
      <point x="130" y="623"/>
      <point x="260" y="623" type="curve" smooth="yes"/>
      <point x="318" y="623"/>
      <point x="349" y="610"/>
      <point x="392" y="610" type="curve" smooth="yes"/>
      <point x="412" y="610"/>
      <point x="424" y="625"/>
      <point x="424" y="650" type="curve" smooth="yes"/>
      <point x="424" y="698"/>
      <point x="356" y="712"/>
      <point x="279" y="712" type="curve" smooth="yes"/>
      <point x="146" y="712"/>
      <point x="61" y="630"/>
      <point x="61" y="496" type="curve" smooth="yes"/>
      <point x="61" y="428"/>
      <point x="88" y="386"/>
      <point x="123" y="365" type="curve" smooth="yes"/>
      <point x="135" y="358"/>
      <point x="133" y="347"/>
      <point x="123" y="340" type="curve" smooth="yes"/>
      <point x="73" y="306"/>
      <point x="40" y="250"/>
      <point x="40" y="173" type="curve" smooth="yes"/>
      <point x="40" y="56"/>
      <point x="111" y="-14"/>
    </contour>
    <contour>
      <point x="234" y="11" type="curve" smooth="yes"/>
      <point x="128" y="11"/>
      <point x="68" y="67"/>
      <point x="68" y="173" type="curve" smooth="yes"/>
      <point x="68" y="268"/>
      <point x="126" y="341"/>
      <point x="191" y="341" type="curve" smooth="yes"/>
      <point x="342" y="341" type="line" smooth="yes"/>
      <point x="362" y="341"/>
      <point x="367" y="331"/>
      <point x="367" y="313" type="curve" smooth="yes"/>
      <point x="367" y="128" type="line" smooth="yes"/>
      <point x="367" y="32"/>
      <point x="327" y="11"/>
    </contour>
    <contour>
      <point x="61" y="211" type="curve" smooth="yes"/>
      <point x="61" y="211"/>
      <point x="61" y="211"/>
      <point x="61" y="211" type="curve" smooth="yes"/>
      <point x="61" y="211"/>
      <point x="61" y="211"/>
      <point x="61" y="211" type="curve" smooth="yes"/>
      <point x="61" y="211"/>
      <point x="61" y="211"/>
      <point x="61" y="211" type="curve" smooth="yes"/>
      <point x="61" y="211"/>
      <point x="61" y="211"/>
    </contour>
    <contour>
      <point x="56" y="165" type="curve" smooth="yes"/>
      <point x="56" y="165"/>
      <point x="56" y="165"/>
      <point x="56" y="165" type="curve" smooth="yes"/>
      <point x="56" y="165"/>
      <point x="56" y="165"/>
      <point x="56" y="165" type="curve" smooth="yes"/>
      <point x="56" y="165"/>
      <point x="56" y="165"/>
      <point x="56" y="165" type="curve" smooth="yes"/>
      <point x="56" y="165"/>
      <point x="56" y="165"/>
    </contour>
    <contour>
      <point x="114" y="35" type="curve" smooth="yes"/>
      <point x="114" y="35"/>
      <point x="114" y="35"/>
      <point x="114" y="35" type="curve" smooth="yes"/>
      <point x="114" y="35"/>
      <point x="114" y="35"/>
      <point x="114" y="35" type="curve" smooth="yes"/>
      <point x="114" y="35"/>
      <point x="114" y="35"/>
      <point x="114" y="35" type="curve" smooth="yes"/>
      <point x="114" y="35"/>
      <point x="114" y="35"/>
    </contour>
    <contour>
      <point x="282" y="364" type="curve"/>
      <point x="282" y="364" type="line"/>
      <point x="340" y="364" type="line"/>
      <point x="340" y="364" type="line"/>
      <point x="340" y="364"/>
      <point x="282" y="364"/>
    </contour>
    <contour>
      <point x="388" y="364" type="curve"/>
      <point x="388" y="364" type="line"/>
      <point x="438" y="364" type="line"/>
      <point x="438" y="364" type="line"/>
      <point x="438" y="364"/>
      <point x="388" y="364"/>
    </contour>
  </outline>
</glyph>
<glyph name="quotesingle" format="2">
  <advance width="129"/>
  <unicode hex="0027"/>
  <outline>
    <contour>
      <point x="50" y="457" type="line" smooth="yes"/>
      <point x="50" y="438"/>
      <point x="79" y="438"/>
      <point x="79" y="457" type="curve" smooth="yes"/>
      <point x="79" y="694" type="line" smooth="yes"/>
      <point x="79" y="716"/>
      <point x="50" y="717"/>
      <point x="50" y="694" type="curve" smooth="yes"/>
    </contour>
    <contour>
      <point x="50" y="665" type="line"/>
      <point x="50" y="665" type="line"/>
      <point x="50" y="665"/>
      <point x="50" y="615"/>
      <point x="50" y="615" type="curve"/>
      <point x="50" y="615" type="line"/>
    </contour>
  </outline>
</glyph>
<glyph name="parenleft" format="2">
  <advance width="272"/>
  <unicode hex="0028"/>
  <guideline x="427" y="843" angle="0"/>
  <guideline x="558" y="-160" angle="0"/>
  <outline>
    <contour>
      <point x="50" y="341" type="curve" smooth="yes"/>
      <point x="50" y="54"/>
      <point x="156" y="-88"/>
      <point x="253" y="-166" type="curve" smooth="yes"/>
      <point x="264" y="-175"/>
      <point x="275" y="-164"/>
      <point x="266" y="-151" type="curve" smooth="yes"/>
      <point x="186" y="-38"/>
      <point x="140" y="68"/>
      <point x="140" y="341" type="curve" smooth="yes"/>
      <point x="140" y="614"/>
      <point x="186" y="720"/>
      <point x="266" y="833" type="curve" smooth="yes"/>
      <point x="275" y="846"/>
      <point x="264" y="857"/>
      <point x="253" y="848" type="curve" smooth="yes"/>
      <point x="156" y="770"/>
      <point x="50" y="628"/>
    </contour>
    <contour>
      <point x="100" y="119" type="line" smooth="yes"/>
      <point x="80" y="110"/>
      <point x="97" y="73"/>
      <point x="117" y="81" type="curve" smooth="yes"/>
      <point x="141" y="91" type="line" smooth="yes"/>
      <point x="158" y="98"/>
      <point x="142" y="138"/>
      <point x="122" y="129" type="curve" smooth="yes"/>
    </contour>
  </outline>
</glyph>
<glyph name="parenright" format="2">
  <advance width="272"/>
  <unicode hex="0029"/>
  <outline>
    <contour>
      <point x="222" y="341" type="curve" smooth="yes"/>
      <point x="222" y="628"/>
      <point x="116" y="770"/>
      <point x="19" y="848" type="curve" smooth="yes"/>
      <point x="8" y="857"/>
      <point x="-3" y="846"/>
      <point x="6" y="833" type="curve" smooth="yes"/>
      <point x="86" y="720"/>
      <point x="132" y="614"/>
      <point x="132" y="341" type="curve" smooth="yes"/>
      <point x="132" y="68"/>
      <point x="86" y="-38"/>
      <point x="6" y="-151" type="curve" smooth="yes"/>
      <point x="-3" y="-164"/>
      <point x="8" y="-175"/>
      <point x="19" y="-166" type="curve" smooth="yes"/>
      <point x="116" y="-88"/>
      <point x="222" y="54"/>
    </contour>
    <contour>
      <point x="142" y="570" type="line" smooth="yes"/>
      <point x="123" y="563"/>
      <point x="134" y="526"/>
      <point x="154" y="534" type="curve" smooth="yes"/>
      <point x="176" y="543" type="line" smooth="yes"/>
      <point x="194" y="550"/>
      <point x="184" y="585"/>
      <point x="167" y="579" type="curve" smooth="yes"/>
    </contour>
    <contour>
      <point x="168" y="285" type="line" smooth="yes"/>
      <point x="145" y="288"/>
      <point x="140" y="246"/>
      <point x="164" y="242" type="curve" smooth="yes"/>
      <point x="190" y="238" type="line"/>
      <point x="195" y="281" type="line"/>
    </contour>
  </outline>
</glyph>
<glyph name="asterisk" format="2">
  <advance width="486"/>
  <unicode hex="002A"/>
  <outline>
    <contour>
      <point x="209" y="673" type="curve" smooth="yes"/>
      <point x="227" y="537" type="line" smooth="yes"/>
      <point x="228" y="526"/>
      <point x="223" y="521"/>
      <point x="212" y="526" type="curve" smooth="yes"/>
      <point x="89" y="586" type="line" smooth="yes"/>
      <point x="42" y="609"/>
      <point x="18" y="533"/>
      <point x="69" y="524" type="curve" smooth="yes"/>
      <point x="208" y="499" type="line" smooth="yes"/>
      <point x="216" y="498"/>
      <point x="218" y="491"/>
      <point x="212" y="484" type="curve" smooth="yes"/>
      <point x="115" y="383" type="line" smooth="yes"/>
      <point x="78" y="345"/>
      <point x="143" y="300"/>
      <point x="167" y="345" type="curve" smooth="yes"/>
      <point x="234" y="469" type="line" smooth="yes"/>
      <point x="238" y="477"/>
      <point x="246" y="477"/>
      <point x="250" y="469" type="curve" smooth="yes"/>
      <point x="316" y="345" type="line" smooth="yes"/>
      <point x="341" y="298"/>
      <point x="404" y="345"/>
      <point x="368" y="383" type="curve" smooth="yes"/>
      <point x="271" y="485" type="line" smooth="yes"/>
      <point x="265" y="491"/>
      <point x="267" y="498"/>
      <point x="277" y="500" type="curve" smooth="yes"/>
      <point x="414" y="524" type="line" smooth="yes"/>
      <point x="466" y="533"/>
      <point x="440" y="608"/>
      <point x="394" y="586" type="curve" smooth="yes"/>
      <point x="268" y="525" type="line" smooth="yes"/>
      <point x="259" y="521"/>
      <point x="253" y="525"/>
      <point x="255" y="537" type="curve" smooth="yes"/>
      <point x="274" y="673" type="line" smooth="yes"/>
      <point x="281" y="725"/>
      <point x="202" y="724"/>
    </contour>
  </outline>
</glyph>
<glyph name="plus" format="2">
  <advance width="435"/>
  <unicode hex="002B"/>
  <outline>
    <contour>
      <point x="203" y="155" type="line" smooth="yes"/>
      <point x="203" y="134"/>
      <point x="232" y="133"/>
      <point x="232" y="155" type="curve" smooth="yes"/>
      <point x="232" y="298" type="line" smooth="yes"/>
      <point x="232" y="312"/>
      <point x="235" y="318"/>
      <point x="246" y="318" type="curve" smooth="yes"/>
      <point x="392" y="318" type="line" smooth="yes"/>
      <point x="410" y="318"/>
      <point x="411" y="345"/>
      <point x="392" y="345" type="curve" smooth="yes"/>
      <point x="246" y="345" type="line" smooth="yes"/>
      <point x="235" y="345"/>
      <point x="232" y="351"/>
      <point x="232" y="365" type="curve" smooth="yes"/>
      <point x="232" y="508" type="line" smooth="yes"/>
      <point x="232" y="530"/>
      <point x="203" y="530"/>
      <point x="203" y="508" type="curve" smooth="yes"/>
      <point x="203" y="365" type="line" smooth="yes"/>
      <point x="203" y="351"/>
      <point x="200" y="345"/>
      <point x="189" y="345" type="curve" smooth="yes"/>
      <point x="43" y="345" type="line" smooth="yes"/>
      <point x="25" y="345"/>
      <point x="25" y="318"/>
      <point x="43" y="318" type="curve" smooth="yes"/>
      <point x="189" y="318" type="line" smooth="yes"/>
      <point x="200" y="318"/>
      <point x="203" y="312"/>
      <point x="203" y="298" type="curve" smooth="yes"/>
    </contour>
  </outline>
</glyph>
<glyph name="comma" format="2">
  <advance width="196"/>
  <unicode hex="002C"/>
  <outline>
    <contour>
      <point x="31" y="-180" type="curve" smooth="yes"/>
      <point x="16" y="-190"/>
      <point x="31" y="-208"/>
      <point x="43" y="-200" type="curve" smooth="yes"/>
      <point x="112" y="-154"/>
      <point x="154" y="-89"/>
      <point x="154" y="17" type="curve" smooth="yes"/>
      <point x="154" y="75"/>
      <point x="130" y="99"/>
      <point x="99" y="99" type="curve" smooth="yes"/>
      <point x="66" y="99"/>
      <point x="42" y="76"/>
      <point x="42" y="43" type="curve" smooth="yes"/>
      <point x="42" y="14"/>
      <point x="58" y="-13"/>
      <point x="97" y="-13" type="curve" smooth="yes"/>
      <point x="115" y="-13"/>
      <point x="120" y="-17"/>
      <point x="120" y="-36" type="curve" smooth="yes"/>
      <point x="120" y="-71"/>
      <point x="95" y="-137"/>
    </contour>
    <contour>
      <point x="127" y="-44" type="line"/>
      <point x="118" y="-65" type="line"/>
      <point x="127" y="-67" type="line" smooth="yes"/>
      <point x="137" y="-69"/>
      <point x="143" y="-49"/>
      <point x="133" y="-46" type="curve" smooth="yes"/>
    </contour>
    <contour>
      <point x="98" y="-126" type="line" smooth="yes"/>
      <point x="92" y="-122"/>
      <point x="79" y="-139"/>
      <point x="85" y="-144" type="curve" smooth="yes"/>
      <point x="89" y="-147" type="line" smooth="yes"/>
      <point x="96" y="-152"/>
      <point x="108" y="-133"/>
      <point x="101" y="-128" type="curve" smooth="yes"/>
    </contour>
    <contour>
      <point x="115" y="-110" type="line" smooth="yes"/>
      <point x="122" y="-112"/>
      <point x="129" y="-97"/>
      <point x="123" y="-94" type="curve" smooth="yes"/>
      <point x="117" y="-91" type="line" smooth="yes"/>
      <point x="109" y="-87"/>
      <point x="101" y="-105"/>
      <point x="109" y="-108" type="curve" smooth="yes"/>
    </contour>
  </outline>
</glyph>
<glyph name="hyphen" format="2">
  <advance width="329"/>
  <unicode hex="002D"/>
  <outline>
    <contour>
      <point x="48" y="351" type="line" smooth="yes"/>
      <point x="24" y="351"/>
      <point x="24" y="324"/>
      <point x="48" y="324" type="curve" smooth="yes"/>
      <point x="278" y="324" type="line" smooth="yes"/>
      <point x="305" y="324"/>
      <point x="306" y="351"/>
      <point x="278" y="351" type="curve" smooth="yes"/>
    </contour>
  </outline>
</glyph>
<glyph name="period" format="2">
  <advance width="206"/>
  <unicode hex="002E"/>
  <outline>
    <contour>
      <point x="104" y="-14" type="curve" smooth="yes"/>
      <point x="134" y="-14"/>
      <point x="160" y="11"/>
      <point x="160" y="43" type="curve" smooth="yes"/>
      <point x="160" y="74"/>
      <point x="134" y="99"/>
      <point x="104" y="99" type="curve" smooth="yes"/>
      <point x="72" y="99"/>
      <point x="46" y="74"/>
      <point x="46" y="43" type="curve" smooth="yes"/>
      <point x="46" y="11"/>
      <point x="72" y="-14"/>
    </contour>
    <contour>
      <point x="105" y="42" type="curve" smooth="yes"/>
      <point x="105" y="42"/>
      <point x="105" y="42"/>
      <point x="105" y="42" type="curve" smooth="yes"/>
      <point x="105" y="42"/>
      <point x="105" y="42"/>
      <point x="105" y="42" type="curve" smooth="yes"/>
      <point x="105" y="42"/>
      <point x="105" y="42"/>
      <point x="105" y="42" type="curve" smooth="yes"/>
      <point x="105" y="42"/>
      <point x="105" y="42"/>
    </contour>
  </outline>
</glyph>
<glyph name="slash" format="2">
  <advance width="364"/>
  <unicode hex="002F"/>
  <outline>
    <contour>
      <point x="332" y="809" type="curve" smooth="yes"/>
      <point x="8" y="-119" type="line" smooth="yes"/>
      <point x="-1" y="-145"/>
      <point x="25" y="-151"/>
      <point x="33" y="-128" type="curve" smooth="yes"/>
      <point x="357" y="800" type="line" smooth="yes"/>
      <point x="364" y="819"/>
      <point x="339" y="828"/>
    </contour>
  </outline>
</glyph>
<glyph name="zero" format="2">
  <advance width="588"/>
  <unicode hex="0030"/>
  <outline>
    <contour>
      <point x="294" y="-14" type="curve" smooth="yes"/>
      <point x="461" y="-14"/>
      <point x="553" y="103"/>
      <point x="553" y="337" type="curve" smooth="yes"/>
      <point x="553" y="599"/>
      <point x="460" y="714"/>
      <point x="294" y="714" type="curve" smooth="yes"/>
      <point x="132" y="714"/>
      <point x="35" y="599"/>
      <point x="35" y="337" type="curve" smooth="yes"/>
      <point x="35" y="103"/>
      <point x="127" y="-14"/>
    </contour>
    <contour>
      <point x="294" y="624" type="curve" smooth="yes"/>
      <point x="448" y="624"/>
      <point x="525" y="510"/>
      <point x="525" y="336" type="curve" smooth="yes"/>
      <point x="525" y="128"/>
      <point x="448" y="11"/>
      <point x="294" y="11" type="curve" smooth="yes"/>
      <point x="140" y="11"/>
      <point x="63" y="128"/>
      <point x="63" y="336" type="curve" smooth="yes"/>
      <point x="63" y="510"/>
      <point x="140" y="624"/>
    </contour>
    <contour>
      <point x="238" y="646" type="curve" smooth="yes"/>
      <point x="248" y="646"/>
      <point x="256" y="654"/>
      <point x="256" y="664" type="curve" smooth="yes"/>
      <point x="256" y="674"/>
      <point x="248" y="683"/>
      <point x="238" y="683" type="curve" smooth="yes"/>
      <point x="228" y="683"/>
      <point x="219" y="674"/>
      <point x="219" y="664" type="curve" smooth="yes"/>
      <point x="219" y="654"/>
      <point x="228" y="646"/>
    </contour>
    <contour>
      <point x="508" y="186" type="curve"/>
      <point x="508" y="186" type="line"/>
      <point x="502" y="164"/>
      <point x="493" y="139"/>
      <point x="480" y="116" type="curve"/>
      <point x="480" y="116" type="line"/>
      <point x="493" y="139"/>
      <point x="502" y="164"/>
    </contour>
    <contour>
      <point x="524" y="292" type="curve"/>
      <point x="524" y="292" type="line"/>
      <point x="523" y="274"/>
      <point x="520" y="249"/>
      <point x="517" y="229" type="curve"/>
      <point x="517" y="229" type="line"/>
      <point x="520" y="249"/>
      <point x="523" y="274"/>
    </contour>
    <contour>
      <point x="543" y="402" type="line" smooth="yes"/>
      <point x="534" y="409"/>
      <point x="520" y="386"/>
      <point x="526" y="380" type="curve" smooth="yes"/>
      <point x="532" y="374" type="line" smooth="yes"/>
      <point x="539" y="367"/>
      <point x="554" y="394"/>
      <point x="547" y="399" type="curve" smooth="yes"/>
    </contour>
    <contour>
      <point x="473" y="582" type="line" smooth="yes"/>
      <point x="460" y="569"/>
      <point x="481" y="550"/>
      <point x="489" y="560" type="curve" smooth="yes"/>
      <point x="496" y="568" type="line" smooth="yes"/>
      <point x="507" y="580"/>
      <point x="490" y="599"/>
      <point x="480" y="589" type="curve" smooth="yes"/>
    </contour>
    <contour>
      <point x="70" y="499" type="line" smooth="yes"/>
      <point x="56" y="505"/>
      <point x="42" y="472"/>
      <point x="56" y="466" type="curve" smooth="yes"/>
      <point x="63" y="463" type="line" smooth="yes"/>
      <point x="76" y="458"/>
      <point x="90" y="491"/>
      <point x="75" y="497" type="curve" smooth="yes"/>
    </contour>
    <contour>
      <point x="444" y="610" type="line" smooth="yes"/>
      <point x="450" y="620"/>
      <point x="428" y="645"/>
      <point x="419" y="632" type="curve" smooth="yes"/>
      <point x="417" y="629" type="line" smooth="yes"/>
      <point x="409" y="617"/>
      <point x="435" y="596"/>
      <point x="442" y="607" type="curve" smooth="yes"/>
    </contour>
    <contour>
      <point x="237" y="666" type="curve" smooth="yes"/>
      <point x="237" y="666"/>
      <point x="237" y="666"/>
      <point x="237" y="666" type="curve" smooth="yes"/>
      <point x="237" y="666"/>
      <point x="237" y="666"/>
      <point x="237" y="666" type="curve" smooth="yes"/>
      <point x="237" y="666"/>
      <point x="237" y="666"/>
      <point x="237" y="666" type="curve" smooth="yes"/>
      <point x="237" y="666"/>
      <point x="237" y="666"/>
    </contour>
    <contour>
      <point x="465" y="92" type="curve"/>
      <point x="465" y="92" type="line"/>
      <point x="453" y="77"/>
      <point x="445" y="67"/>
      <point x="432" y="57" type="curve"/>
      <point x="432" y="57" type="line"/>
      <point x="445" y="67"/>
      <point x="453" y="77"/>
    </contour>
  </outline>
</glyph>
<glyph name="one" format="2">
  <advance width="326"/>
  <unicode hex="0031"/>
  <outline>
    <contour>
      <point x="58" y="541" type="curve" smooth="yes"/>
      <point x="131" y="610" type="line" smooth="yes"/>
      <point x="152" y="629"/>
      <point x="166" y="622"/>
      <point x="166" y="592" type="curve" smooth="yes"/>
      <point x="166" y="21" type="line" smooth="yes"/>
      <point x="166" y="-28"/>
      <point x="246" y="-28"/>
      <point x="246" y="22" type="curve" smooth="yes"/>
      <point x="246" y="671" type="line" smooth="yes"/>
      <point x="246" y="710"/>
      <point x="218" y="722"/>
      <point x="193" y="699" type="curve" smooth="yes"/>
      <point x="41" y="560" type="line" smooth="yes"/>
      <point x="25" y="546"/>
      <point x="44" y="528"/>
    </contour>
    <contour>
      <point x="246" y="132" type="line"/>
      <point x="246" y="88" type="line"/>
      <point x="246" y="88" type="line"/>
      <point x="246" y="88"/>
      <point x="246" y="132"/>
      <point x="246" y="132" type="curve"/>
    </contour>
    <contour>
      <point x="246" y="254" type="line"/>
      <point x="246" y="206" type="line"/>
      <point x="246" y="206" type="line"/>
      <point x="246" y="206"/>
      <point x="246" y="254"/>
      <point x="246" y="254" type="curve"/>
    </contour>
    <contour>
      <point x="246" y="336" type="line"/>
      <point x="246" y="297" type="line"/>
      <point x="246" y="297" type="line"/>
      <point x="246" y="297"/>
      <point x="246" y="336"/>
      <point x="246" y="336" type="curve"/>
    </contour>
  </outline>
</glyph>
<glyph name="two" format="2">
  <advance width="464"/>
  <unicode hex="0032"/>
  <outline>
    <contour>
      <point x="409" y="528" type="curve" smooth="yes"/>
      <point x="409" y="638"/>
      <point x="362" y="715"/>
      <point x="227" y="715" type="curve" smooth="yes"/>
      <point x="148" y="715"/>
      <point x="72" y="689"/>
      <point x="72" y="640" type="curve" smooth="yes"/>
      <point x="72" y="620"/>
      <point x="85" y="601"/>
      <point x="109" y="601" type="curve" smooth="yes"/>
      <point x="137" y="601"/>
      <point x="162" y="625"/>
      <point x="239" y="625" type="curve" smooth="yes"/>
      <point x="345" y="625"/>
      <point x="382" y="588"/>
      <point x="382" y="512" type="curve" smooth="yes"/>
      <point x="382" y="466"/>
      <point x="354" y="420"/>
      <point x="293" y="349" type="curve" smooth="yes"/>
      <point x="65" y="85" type="line" smooth="yes"/>
      <point x="36" y="51"/>
      <point x="51" y="0"/>
      <point x="96" y="0" type="curve" smooth="yes"/>
      <point x="397" y="0" type="line" smooth="yes"/>
      <point x="450" y="0"/>
      <point x="452" y="82"/>
      <point x="397" y="82" type="curve" smooth="yes"/>
      <point x="136" y="82" type="line" smooth="yes"/>
      <point x="118" y="82"/>
      <point x="109" y="98"/>
      <point x="122" y="113" type="curve" smooth="yes"/>
      <point x="316" y="338" type="line" smooth="yes"/>
      <point x="378" y="410"/>
      <point x="409" y="457"/>
    </contour>
    <contour>
      <point x="265" y="684" type="curve" smooth="yes"/>
      <point x="265" y="684"/>
      <point x="265" y="684"/>
      <point x="265" y="684" type="curve" smooth="yes"/>
      <point x="265" y="684"/>
      <point x="265" y="684"/>
      <point x="265" y="684" type="curve" smooth="yes"/>
      <point x="265" y="684"/>
      <point x="265" y="684"/>
      <point x="265" y="684" type="curve" smooth="yes"/>
      <point x="265" y="684"/>
      <point x="265" y="684"/>
    </contour>
    <contour>
      <point x="149" y="667" type="curve" smooth="yes"/>
      <point x="149" y="667"/>
      <point x="149" y="667"/>
      <point x="149" y="667" type="curve" smooth="yes"/>
      <point x="149" y="667"/>
      <point x="149" y="667"/>
      <point x="149" y="667" type="curve" smooth="yes"/>
      <point x="149" y="667"/>
      <point x="149" y="667"/>
      <point x="149" y="667" type="curve" smooth="yes"/>
      <point x="149" y="667"/>
      <point x="149" y="667"/>
    </contour>
    <contour>
      <point x="320" y="642" type="curve" smooth="yes"/>
      <point x="320" y="642"/>
      <point x="320" y="642"/>
      <point x="320" y="642" type="curve" smooth="yes"/>
      <point x="320" y="642"/>
      <point x="320" y="642"/>
      <point x="320" y="642" type="curve" smooth="yes"/>
      <point x="320" y="642"/>
      <point x="320" y="642"/>
      <point x="320" y="642" type="curve" smooth="yes"/>
      <point x="320" y="642"/>
      <point x="320" y="642"/>
    </contour>
    <contour>
      <point x="119" y="651" type="line" smooth="yes"/>
      <point x="102" y="674"/>
      <point x="81" y="654"/>
      <point x="93" y="638" type="curve" smooth="yes"/>
      <point x="101" y="627" type="line" smooth="yes"/>
      <point x="114" y="610"/>
      <point x="138" y="626"/>
      <point x="122" y="647" type="curve" smooth="yes"/>
    </contour>
    <contour>
      <point x="238" y="56" type="line" smooth="yes"/>
      <point x="238" y="79"/>
      <point x="201" y="74"/>
      <point x="201" y="52" type="curve" smooth="yes"/>
      <point x="201" y="37" type="line" smooth="yes"/>
      <point x="201" y="10"/>
      <point x="238" y="13"/>
      <point x="238" y="40" type="curve" smooth="yes"/>
    </contour>
    <contour>
      <point x="283" y="52" type="line" smooth="yes"/>
      <point x="280" y="70"/>
      <point x="257" y="66"/>
      <point x="260" y="48" type="curve" smooth="yes"/>
      <point x="262" y="36" type="line" smooth="yes"/>
      <point x="265" y="20"/>
      <point x="289" y="17"/>
      <point x="285" y="41" type="curve" smooth="yes"/>
    </contour>
    <contour>
      <point x="274" y="314" type="line" smooth="yes"/>
      <point x="266" y="322"/>
      <point x="253" y="300"/>
      <point x="261" y="294" type="curve" smooth="yes"/>
      <point x="265" y="291" type="line" smooth="yes"/>
      <point x="273" y="285"/>
      <point x="284" y="304"/>
      <point x="277" y="311" type="curve" smooth="yes"/>
    </contour>
    <contour>
      <point x="359" y="610" type="curve" smooth="yes"/>
      <point x="367" y="610"/>
      <point x="374" y="617"/>
      <point x="374" y="625" type="curve" smooth="yes"/>
      <point x="374" y="633"/>
      <point x="367" y="640"/>
      <point x="359" y="640" type="curve" smooth="yes"/>
      <point x="351" y="640"/>
      <point x="344" y="633"/>
      <point x="344" y="625" type="curve" smooth="yes"/>
      <point x="344" y="617"/>
      <point x="351" y="610"/>
    </contour>
  </outline>
</glyph>
<glyph name="three" format="2">
  <advance width="486"/>
  <unicode hex="0033"/>
  <outline>
    <contour>
      <point x="225" y="-10" type="curve" smooth="yes"/>
      <point x="380" y="-10"/>
      <point x="443" y="81"/>
      <point x="443" y="222" type="curve" smooth="yes"/>
      <point x="443" y="326"/>
      <point x="377" y="384"/>
      <point x="262" y="384" type="curve" smooth="yes"/>
      <point x="233" y="384"/>
      <point x="229" y="396"/>
      <point x="243" y="417" type="curve" smooth="yes"/>
      <point x="390" y="639" type="line" smooth="yes"/>
      <point x="407" y="665"/>
      <point x="396" y="700"/>
      <point x="367" y="700" type="curve" smooth="yes"/>
      <point x="73" y="700" type="line" smooth="yes"/>
      <point x="57" y="700"/>
      <point x="57" y="677"/>
      <point x="73" y="677" type="curve" smooth="yes"/>
      <point x="278" y="677" type="line" smooth="yes"/>
      <point x="294" y="677"/>
      <point x="300" y="662"/>
      <point x="291" y="649" type="curve" smooth="yes"/>
      <point x="132" y="412" type="line" smooth="yes"/>
      <point x="114" y="385"/>
      <point x="129" y="359"/>
      <point x="161" y="359" type="curve" smooth="yes"/>
      <point x="263" y="359" type="line" smooth="yes"/>
      <point x="361" y="359"/>
      <point x="419" y="314"/>
      <point x="419" y="224" type="curve" smooth="yes"/>
      <point x="419" y="123"/>
      <point x="344" y="79"/>
      <point x="244" y="79" type="curve" smooth="yes"/>
      <point x="170" y="79"/>
      <point x="143" y="98"/>
      <point x="92" y="98" type="curve" smooth="yes"/>
      <point x="70" y="98"/>
      <point x="55" y="85"/>
      <point x="55" y="61" type="curve" smooth="yes"/>
      <point x="55" y="12"/>
      <point x="142" y="-10"/>
    </contour>
    <contour>
      <point x="243" y="42" type="curve" smooth="yes"/>
      <point x="243" y="42"/>
      <point x="243" y="42"/>
      <point x="243" y="42" type="curve" smooth="yes"/>
      <point x="243" y="42"/>
      <point x="243" y="42"/>
      <point x="243" y="42" type="curve" smooth="yes"/>
      <point x="243" y="42"/>
      <point x="243" y="42"/>
      <point x="243" y="42" type="curve" smooth="yes"/>
      <point x="243" y="42"/>
      <point x="243" y="42"/>
    </contour>
    <contour>
      <point x="329" y="62" type="curve" smooth="yes"/>
      <point x="329" y="62"/>
      <point x="329" y="62"/>
      <point x="329" y="62" type="curve" smooth="yes"/>
      <point x="329" y="62"/>
      <point x="329" y="62"/>
      <point x="329" y="62" type="curve" smooth="yes"/>
      <point x="329" y="62"/>
      <point x="329" y="62"/>
      <point x="329" y="62" type="curve" smooth="yes"/>
      <point x="329" y="62"/>
      <point x="329" y="62"/>
    </contour>
    <contour>
      <point x="195" y="700" type="line"/>
      <point x="225" y="700" type="line"/>
      <point x="225" y="700" type="line"/>
      <point x="225" y="700"/>
      <point x="195" y="700"/>
      <point x="195" y="700" type="curve"/>
    </contour>
    <contour>
      <point x="283" y="700" type="line"/>
      <point x="314" y="700" type="line"/>
      <point x="314" y="700" type="line"/>
      <point x="314" y="700"/>
      <point x="283" y="700"/>
      <point x="283" y="700" type="curve"/>
    </contour>
    <contour>
      <point x="403" y="100" type="curve" smooth="yes"/>
      <point x="411" y="100"/>
      <point x="418" y="107"/>
      <point x="418" y="115" type="curve" smooth="yes"/>
      <point x="418" y="123"/>
      <point x="411" y="130"/>
      <point x="403" y="130" type="curve" smooth="yes"/>
      <point x="395" y="130"/>
      <point x="388" y="123"/>
      <point x="388" y="115" type="curve" smooth="yes"/>
      <point x="388" y="107"/>
      <point x="395" y="100"/>
    </contour>
    <contour>
      <point x="182" y="65" type="line" smooth="yes"/>
      <point x="176" y="53"/>
      <point x="195" y="44"/>
      <point x="200" y="55" type="curve" smooth="yes"/>
      <point x="204" y="64" type="line" smooth="yes"/>
      <point x="209" y="75"/>
      <point x="192" y="85"/>
      <point x="186" y="73" type="curve" smooth="yes"/>
    </contour>
    <contour>
      <point x="95" y="697" type="line" smooth="yes"/>
      <point x="85" y="704"/>
      <point x="75" y="688"/>
      <point x="85" y="681" type="curve" smooth="yes"/>
      <point x="88" y="679" type="line" smooth="yes"/>
      <point x="95" y="674"/>
      <point x="105" y="690"/>
      <point x="98" y="695" type="curve" smooth="yes"/>
    </contour>
    <contour>
      <point x="383" y="330" type="line" smooth="yes"/>
      <point x="379" y="325"/>
      <point x="393" y="311"/>
      <point x="399" y="319" type="curve" smooth="yes"/>
      <point x="402" y="323" type="line" smooth="yes"/>
      <point x="407" y="330"/>
      <point x="392" y="343"/>
      <point x="386" y="334" type="curve" smooth="yes"/>
    </contour>
    <contour>
      <point x="312" y="578" type="line" smooth="yes"/>
      <point x="298" y="588"/>
      <point x="287" y="567"/>
      <point x="300" y="560" type="curve" smooth="yes"/>
      <point x="314" y="552" type="line" smooth="yes"/>
      <point x="323" y="547"/>
      <point x="333" y="562"/>
      <point x="324" y="569" type="curve" smooth="yes"/>
    </contour>
  </outline>
</glyph>
<glyph name="four" format="2">
  <advance width="482"/>
  <unicode hex="0034"/>
  <outline>
    <contour>
      <point x="80" y="190" type="curve" smooth="yes"/>
      <point x="453" y="190" type="line" smooth="yes"/>
      <point x="472" y="190"/>
      <point x="472" y="213"/>
      <point x="453" y="213" type="curve" smooth="yes"/>
      <point x="140" y="213" type="line" smooth="yes"/>
      <point x="123" y="213"/>
      <point x="111" y="228"/>
      <point x="122" y="246" type="curve" smooth="yes"/>
      <point x="328" y="591" type="line" smooth="yes"/>
      <point x="341" y="613"/>
      <point x="359" y="607"/>
      <point x="359" y="584" type="curve" smooth="yes"/>
      <point x="359" y="8" type="line" smooth="yes"/>
      <point x="359" y="-12"/>
      <point x="384" y="-13"/>
      <point x="384" y="9" type="curve" smooth="yes"/>
      <point x="384" y="661" type="line" smooth="yes"/>
      <point x="384" y="713"/>
      <point x="306" y="729"/>
      <point x="276" y="679" type="curve" smooth="yes"/>
      <point x="35" y="272" type="line" smooth="yes"/>
      <point x="10" y="229"/>
      <point x="34" y="190"/>
    </contour>
    <contour>
      <point x="373" y="258" type="line" smooth="yes"/>
      <point x="382" y="258"/>
      <point x="383" y="281"/>
      <point x="373" y="281" type="curve" smooth="yes"/>
      <point x="369" y="281" type="line" smooth="yes"/>
      <point x="360" y="281"/>
      <point x="361" y="258"/>
      <point x="369" y="258" type="curve" smooth="yes"/>
    </contour>
    <contour>
      <point x="178" y="513" type="line"/>
      <point x="207" y="563" type="line"/>
      <point x="207" y="563" type="line"/>
      <point x="207" y="563"/>
      <point x="178" y="513"/>
      <point x="178" y="513" type="curve"/>
    </contour>
    <contour>
      <point x="110" y="398" type="line"/>
      <point x="136" y="442" type="line"/>
      <point x="136" y="442" type="line"/>
      <point x="136" y="442"/>
      <point x="110" y="398"/>
      <point x="110" y="398" type="curve"/>
    </contour>
    <contour>
      <point x="103" y="266" type="line" smooth="yes"/>
      <point x="117" y="264"/>
      <point x="117" y="282"/>
      <point x="105" y="283" type="curve" smooth="yes"/>
      <point x="94" y="284" type="line" smooth="yes"/>
      <point x="83" y="285"/>
      <point x="80" y="269"/>
      <point x="95" y="267" type="curve" smooth="yes"/>
    </contour>
    <contour>
      <point x="374" y="326" type="line" smooth="yes"/>
      <point x="384" y="326"/>
      <point x="383" y="344"/>
      <point x="374" y="344" type="curve" smooth="yes"/>
      <point x="367" y="344" type="line" smooth="yes"/>
      <point x="360" y="344"/>
      <point x="359" y="326"/>
      <point x="370" y="326" type="curve" smooth="yes"/>
    </contour>
    <contour>
      <point x="373" y="392" type="line" smooth="yes"/>
      <point x="385" y="391"/>
      <point x="383" y="409"/>
      <point x="374" y="409" type="curve" smooth="yes"/>
      <point x="366" y="409" type="line"/>
      <point x="363" y="393" type="line"/>
    </contour>
    <contour>
      <point x="210" y="394" type="line"/>
      <point x="188" y="356" type="line"/>
      <point x="188" y="356" type="line"/>
      <point x="188" y="356"/>
      <point x="210" y="394"/>
      <point x="210" y="394" type="curve"/>
    </contour>
  </outline>
</glyph>
<glyph name="five" format="2">
  <advance width="469"/>
  <unicode hex="0035"/>
  <outline>
    <contour>
      <point x="73" y="384" type="line" smooth="yes"/>
      <point x="70" y="359"/>
      <point x="86" y="345"/>
      <point x="109" y="345" type="curve" smooth="yes"/>
      <point x="259" y="345" type="line" smooth="yes"/>
      <point x="375" y="345"/>
      <point x="408" y="291"/>
      <point x="408" y="218" type="curve" smooth="yes"/>
      <point x="408" y="121"/>
      <point x="332" y="76"/>
      <point x="223" y="76" type="curve" smooth="yes"/>
      <point x="158" y="76"/>
      <point x="131" y="96"/>
      <point x="88" y="96" type="curve" smooth="yes"/>
      <point x="64" y="96"/>
      <point x="50" y="83"/>
      <point x="50" y="59" type="curve" smooth="yes"/>
      <point x="50" y="12"/>
      <point x="129" y="-10"/>
      <point x="212" y="-10" type="curve" smooth="yes"/>
      <point x="348" y="-10"/>
      <point x="433" y="53"/>
      <point x="433" y="214" type="curve" smooth="yes"/>
      <point x="433" y="310"/>
      <point x="385" y="369"/>
      <point x="262" y="369" type="curve" smooth="yes"/>
      <point x="124" y="369" type="line" smooth="yes"/>
      <point x="107" y="369"/>
      <point x="97" y="377"/>
      <point x="99" y="395" type="curve" smooth="yes"/>
      <point x="118" y="583" type="line" smooth="yes"/>
      <point x="120" y="602"/>
      <point x="130" y="610"/>
      <point x="148" y="610" type="curve" smooth="yes"/>
      <point x="360" y="610" type="line" smooth="yes"/>
      <point x="421" y="610"/>
      <point x="423" y="700"/>
      <point x="362" y="700" type="curve" smooth="yes"/>
      <point x="147" y="700" type="line" smooth="yes"/>
      <point x="122" y="700"/>
      <point x="104" y="689"/>
      <point x="101" y="660" type="curve" smooth="yes"/>
    </contour>
    <contour>
      <point x="146" y="647" type="curve" smooth="yes"/>
      <point x="146" y="647"/>
      <point x="146" y="647"/>
      <point x="146" y="647" type="curve" smooth="yes"/>
      <point x="146" y="647"/>
      <point x="146" y="647"/>
      <point x="146" y="647" type="curve" smooth="yes"/>
      <point x="146" y="647"/>
      <point x="146" y="647"/>
      <point x="146" y="647" type="curve" smooth="yes"/>
      <point x="146" y="647"/>
      <point x="146" y="647"/>
    </contour>
    <contour>
      <point x="81" y="373" type="curve" smooth="yes"/>
      <point x="81" y="373"/>
      <point x="81" y="373"/>
      <point x="81" y="373" type="curve" smooth="yes"/>
      <point x="81" y="373"/>
      <point x="81" y="373"/>
      <point x="81" y="373" type="curve" smooth="yes"/>
      <point x="81" y="373"/>
      <point x="81" y="373"/>
      <point x="81" y="373" type="curve" smooth="yes"/>
      <point x="81" y="373"/>
      <point x="81" y="373"/>
    </contour>
    <contour>
      <point x="114" y="352" type="line" smooth="yes"/>
      <point x="116" y="343"/>
      <point x="136" y="349"/>
      <point x="134" y="357" type="curve" smooth="yes"/>
      <point x="133" y="361" type="line" smooth="yes"/>
      <point x="131" y="371"/>
      <point x="110" y="368"/>
      <point x="113" y="356" type="curve" smooth="yes"/>
    </contour>
    <contour>
      <point x="329" y="653" type="line" smooth="yes"/>
      <point x="322" y="630"/>
      <point x="349" y="622"/>
      <point x="354" y="644" type="curve" smooth="yes"/>
      <point x="358" y="663" type="line" smooth="yes"/>
      <point x="363" y="687"/>
      <point x="341" y="694"/>
      <point x="333" y="667" type="curve" smooth="yes"/>
    </contour>
    <contour>
      <point x="171" y="351" type="line" smooth="yes"/>
      <point x="174" y="343"/>
      <point x="193" y="350"/>
      <point x="191" y="359" type="curve" smooth="yes"/>
      <point x="190" y="363" type="line" smooth="yes"/>
      <point x="188" y="372"/>
      <point x="165" y="366"/>
      <point x="169" y="356" type="curve" smooth="yes"/>
    </contour>
    <contour>
      <point x="294" y="657" type="line" smooth="yes"/>
      <point x="298" y="640"/>
      <point x="318" y="646"/>
      <point x="317" y="664" type="curve" smooth="yes"/>
      <point x="316" y="676" type="line" smooth="yes"/>
      <point x="314" y="694"/>
      <point x="288" y="686"/>
      <point x="291" y="671" type="curve" smooth="yes"/>
    </contour>
    <contour>
      <point x="245" y="657" type="line" smooth="yes"/>
      <point x="245" y="639"/>
      <point x="270" y="641"/>
      <point x="270" y="659" type="curve" smooth="yes"/>
      <point x="270" y="669" type="line" smooth="yes"/>
      <point x="270" y="687"/>
      <point x="245" y="685"/>
      <point x="245" y="670" type="curve" smooth="yes"/>
    </contour>
    <contour>
      <point x="290" y="351" type="line"/>
      <point x="309" y="344" type="line"/>
      <point x="312" y="354" type="line" smooth="yes"/>
      <point x="315" y="363"/>
      <point x="301" y="370"/>
      <point x="295" y="360" type="curve" smooth="yes"/>
    </contour>
    <contour>
      <point x="348" y="338" type="line"/>
      <point x="362" y="325" type="line"/>
      <point x="368" y="331" type="line" smooth="yes"/>
      <point x="377" y="340"/>
      <point x="359" y="355"/>
      <point x="352" y="344" type="curve" smooth="yes"/>
    </contour>
    <contour>
      <point x="195" y="644" type="line"/>
      <point x="213" y="644" type="line"/>
      <point x="215" y="659" type="line" smooth="yes"/>
      <point x="217" y="677"/>
      <point x="191" y="675"/>
      <point x="193" y="660" type="curve" smooth="yes"/>
    </contour>
  </outline>
</glyph>
<glyph name="six" format="2">
  <advance width="503"/>
  <unicode hex="0036"/>
  <outline>
    <contour>
      <point x="232" y="10" type="curve" smooth="yes"/>
      <point x="140" y="10"/>
      <point x="65" y="75"/>
      <point x="65" y="201" type="curve" smooth="yes"/>
      <point x="65" y="308"/>
      <point x="133" y="392"/>
      <point x="240" y="392" type="curve" smooth="yes"/>
      <point x="317" y="392"/>
      <point x="379" y="331"/>
      <point x="379" y="201" type="curve" smooth="yes"/>
      <point x="379" y="71"/>
      <point x="314" y="10"/>
    </contour>
    <contour>
      <point x="232" y="-14" type="curve" smooth="yes"/>
      <point x="371" y="-14"/>
      <point x="470" y="65"/>
      <point x="470" y="201" type="curve" smooth="yes"/>
      <point x="470" y="338"/>
      <point x="375" y="417"/>
      <point x="241" y="417" type="curve" smooth="yes"/>
      <point x="215" y="417"/>
      <point x="186" y="410"/>
      <point x="157" y="397" type="curve" smooth="yes"/>
      <point x="151" y="394"/>
      <point x="143" y="396"/>
      <point x="150" y="407" type="curve" smooth="yes"/>
      <point x="343" y="684" type="line" smooth="yes"/>
      <point x="353" y="698"/>
      <point x="334" y="715"/>
      <point x="322" y="698" type="curve" smooth="yes"/>
      <point x="133" y="426" type="line" smooth="yes"/>
      <point x="69" y="334"/>
      <point x="37" y="277"/>
      <point x="37" y="201" type="curve" smooth="yes"/>
      <point x="37" y="69"/>
      <point x="117" y="-14"/>
    </contour>
    <contour>
      <point x="428" y="137" type="curve" smooth="yes"/>
      <point x="428" y="137"/>
      <point x="428" y="137"/>
      <point x="428" y="137" type="curve" smooth="yes"/>
      <point x="428" y="137"/>
      <point x="428" y="137"/>
      <point x="428" y="137" type="curve" smooth="yes"/>
      <point x="428" y="137"/>
      <point x="428" y="137"/>
      <point x="428" y="137" type="curve" smooth="yes"/>
      <point x="428" y="137"/>
      <point x="428" y="137"/>
    </contour>
    <contour>
      <point x="271" y="0" type="curve" smooth="yes"/>
      <point x="271" y="0"/>
      <point x="271" y="0"/>
      <point x="271" y="0" type="curve" smooth="yes"/>
      <point x="271" y="0"/>
      <point x="271" y="0"/>
      <point x="271" y="0" type="curve" smooth="yes"/>
      <point x="271" y="0"/>
      <point x="271" y="0"/>
      <point x="271" y="0" type="curve" smooth="yes"/>
      <point x="271" y="0"/>
      <point x="271" y="0"/>
    </contour>
    <contour>
      <point x="378" y="36" type="curve" smooth="yes"/>
      <point x="378" y="36"/>
      <point x="378" y="36"/>
      <point x="378" y="36" type="curve" smooth="yes"/>
      <point x="378" y="36"/>
      <point x="378" y="36"/>
      <point x="378" y="36" type="curve" smooth="yes"/>
      <point x="378" y="36"/>
      <point x="378" y="36"/>
      <point x="378" y="36" type="curve" smooth="yes"/>
      <point x="378" y="36"/>
      <point x="378" y="36"/>
    </contour>
    <contour>
      <point x="309" y="652" type="line" smooth="yes"/>
      <point x="317" y="646"/>
      <point x="331" y="665"/>
      <point x="324" y="672" type="curve" smooth="yes"/>
      <point x="320" y="676" type="line" smooth="yes"/>
      <point x="312" y="684"/>
      <point x="297" y="661"/>
      <point x="304" y="656" type="curve" smooth="yes"/>
    </contour>
    <contour>
      <point x="259" y="580" type="line" smooth="yes"/>
      <point x="266" y="573"/>
      <point x="282" y="595"/>
      <point x="275" y="600" type="curve" smooth="yes"/>
      <point x="267" y="606" type="line" smooth="yes"/>
      <point x="260" y="611"/>
      <point x="247" y="592"/>
      <point x="255" y="584" type="curve" smooth="yes"/>
    </contour>
    <contour>
      <point x="127" y="366" type="curve" smooth="yes"/>
      <point x="133" y="366"/>
      <point x="139" y="372"/>
      <point x="139" y="378" type="curve" smooth="yes"/>
      <point x="139" y="384"/>
      <point x="133" y="390"/>
      <point x="127" y="390" type="curve" smooth="yes"/>
      <point x="121" y="390"/>
      <point x="115" y="384"/>
      <point x="115" y="378" type="curve" smooth="yes"/>
      <point x="115" y="372"/>
      <point x="121" y="366"/>
    </contour>
    <contour>
      <point x="181" y="463" type="line"/>
      <point x="193" y="478" type="line"/>
      <point x="191" y="481" type="line" smooth="yes"/>
      <point x="185" y="491"/>
      <point x="169" y="475"/>
      <point x="176" y="468" type="curve" smooth="yes"/>
    </contour>
    <contour>
      <point x="292" y="620" type="line"/>
      <point x="303" y="632" type="line"/>
      <point x="298" y="637" type="line" smooth="yes"/>
      <point x="289" y="646"/>
      <point x="277" y="633"/>
      <point x="285" y="626" type="curve" smooth="yes"/>
    </contour>
    <contour>
      <point x="339" y="389" type="line"/>
      <point x="333" y="379" type="line" smooth="yes"/>
      <point x="326" y="367"/>
      <point x="343" y="356"/>
      <point x="349" y="368" type="curve" smooth="yes"/>
      <point x="354" y="379" type="line"/>
    </contour>
    <contour>
      <point x="393" y="302" type="line"/>
      <point x="381" y="299" type="line" smooth="yes"/>
      <point x="367" y="295"/>
      <point x="372" y="275"/>
      <point x="384" y="278" type="curve" smooth="yes"/>
      <point x="397" y="281" type="line"/>
    </contour>
    <contour>
      <point x="59" y="132" type="line"/>
      <point x="65" y="137" type="line" smooth="yes"/>
      <point x="74" y="145"/>
      <point x="60" y="164"/>
      <point x="54" y="156" type="curve" smooth="yes"/>
      <point x="47" y="147" type="line"/>
    </contour>
  </outline>
</glyph>
<glyph name="seven" format="2">
  <advance width="431"/>
  <unicode hex="0037"/>
  <outline>
    <contour>
      <point x="169" y="4" type="curve" smooth="yes"/>
      <point x="398" y="596" type="line" smooth="yes"/>
      <point x="424" y="662"/>
      <point x="406" y="700"/>
      <point x="350" y="700" type="curve" smooth="yes"/>
      <point x="71" y="700" type="line" smooth="yes"/>
      <point x="14" y="700"/>
      <point x="14" y="610"/>
      <point x="73" y="610" type="curve" smooth="yes"/>
      <point x="335" y="610" type="line" smooth="yes"/>
      <point x="362" y="610"/>
      <point x="371" y="596"/>
      <point x="359" y="565" type="curve" smooth="yes"/>
      <point x="145" y="12" type="line" smooth="yes"/>
      <point x="138" y="-7"/>
      <point x="160" y="-18"/>
    </contour>
    <contour>
      <point x="230" y="195" type="line" smooth="yes"/>
      <point x="242" y="189"/>
      <point x="254" y="220"/>
      <point x="243" y="223" type="curve" smooth="yes"/>
      <point x="239" y="224" type="line" smooth="yes"/>
      <point x="228" y="227"/>
      <point x="217" y="202"/>
      <point x="226" y="197" type="curve" smooth="yes"/>
    </contour>
    <contour>
      <point x="286" y="334" type="line" smooth="yes"/>
      <point x="296" y="329"/>
      <point x="306" y="359"/>
      <point x="296" y="362" type="curve" smooth="yes"/>
      <point x="292" y="363" type="line" smooth="yes"/>
      <point x="281" y="366"/>
      <point x="271" y="342"/>
      <point x="282" y="336" type="curve" smooth="yes"/>
    </contour>
    <contour>
      <point x="239" y="700" type="line"/>
      <point x="283" y="700" type="line"/>
      <point x="283" y="700" type="line"/>
      <point x="283" y="700"/>
      <point x="239" y="700"/>
      <point x="239" y="700" type="curve"/>
    </contour>
    <contour>
      <point x="140" y="700" type="line"/>
      <point x="185" y="700" type="line"/>
      <point x="185" y="700" type="line"/>
      <point x="185" y="700"/>
      <point x="140" y="700"/>
      <point x="140" y="700" type="curve"/>
    </contour>
    <contour>
      <point x="202" y="100" type="line"/>
      <point x="210" y="123" type="line"/>
      <point x="201" y="126" type="line" smooth="yes"/>
      <point x="189" y="130"/>
      <point x="182" y="107"/>
      <point x="193" y="103" type="curve" smooth="yes"/>
    </contour>
    <contour>
      <point x="333" y="456" type="line" smooth="yes"/>
      <point x="342" y="452"/>
      <point x="350" y="474"/>
      <point x="341" y="478" type="curve" smooth="yes"/>
      <point x="336" y="480" type="line" smooth="yes"/>
      <point x="330" y="482"/>
      <point x="321" y="462"/>
      <point x="329" y="458" type="curve" smooth="yes"/>
    </contour>
    <contour>
      <point x="304" y="700" type="line"/>
      <point x="346" y="700" type="line"/>
      <point x="346" y="700" type="line"/>
      <point x="346" y="700"/>
      <point x="304" y="700"/>
      <point x="304" y="700" type="curve"/>
    </contour>
  </outline>
</glyph>
<glyph name="eight" format="2">
  <advance width="535"/>
  <unicode hex="0038"/>
  <outline>
    <contour>
      <point x="267" y="354" type="curve" smooth="yes"/>
      <point x="382" y="354"/>
      <point x="488" y="402"/>
      <point x="488" y="526" type="curve" smooth="yes"/>
      <point x="488" y="648"/>
      <point x="415" y="711"/>
      <point x="267" y="711" type="curve" smooth="yes"/>
      <point x="122" y="711"/>
      <point x="47" y="648"/>
      <point x="47" y="526" type="curve" smooth="yes"/>
      <point x="47" y="402"/>
      <point x="157" y="354"/>
    </contour>
    <contour>
      <point x="267" y="-12" type="curve" smooth="yes"/>
      <point x="427" y="-12"/>
      <point x="505" y="54"/>
      <point x="505" y="185" type="curve" smooth="yes"/>
      <point x="505" y="314"/>
      <point x="391" y="369"/>
      <point x="267" y="369" type="curve" smooth="yes"/>
      <point x="148" y="369"/>
      <point x="30" y="314"/>
      <point x="30" y="185" type="curve" smooth="yes"/>
      <point x="30" y="54"/>
      <point x="110" y="-12"/>
    </contour>
    <contour>
      <point x="267" y="375" type="curve" smooth="yes"/>
      <point x="158" y="375"/>
      <point x="75" y="427"/>
      <point x="75" y="515" type="curve" smooth="yes"/>
      <point x="75" y="591"/>
      <point x="148" y="621"/>
      <point x="267" y="621" type="curve" smooth="yes"/>
      <point x="395" y="621"/>
      <point x="460" y="591"/>
      <point x="460" y="515" type="curve" smooth="yes"/>
      <point x="460" y="427"/>
      <point x="383" y="375"/>
    </contour>
    <contour>
      <point x="267" y="78" type="curve" smooth="yes"/>
      <point x="135" y="78"/>
      <point x="58" y="112"/>
      <point x="58" y="193" type="curve" smooth="yes"/>
      <point x="58" y="288"/>
      <point x="149" y="346"/>
      <point x="267" y="346" type="curve" smooth="yes"/>
      <point x="390" y="346"/>
      <point x="477" y="288"/>
      <point x="477" y="193" type="curve" smooth="yes"/>
      <point x="477" y="112"/>
      <point x="406" y="78"/>
    </contour>
    <contour>
      <point x="336" y="354" type="line" smooth="yes"/>
      <point x="342" y="371"/>
      <point x="316" y="381"/>
      <point x="309" y="370" type="curve" smooth="yes"/>
      <point x="307" y="367" type="line" smooth="yes"/>
      <point x="299" y="355"/>
      <point x="330" y="336"/>
      <point x="335" y="351" type="curve" smooth="yes"/>
    </contour>
    <contour>
      <point x="182" y="673" type="line" smooth="yes"/>
      <point x="180" y="688"/>
      <point x="159" y="688"/>
      <point x="160" y="673" type="curve" smooth="yes"/>
      <point x="161" y="662" type="line" smooth="yes"/>
      <point x="162" y="647"/>
      <point x="187" y="645"/>
      <point x="184" y="661" type="curve" smooth="yes"/>
    </contour>
    <contour>
      <point x="339" y="33" type="line" smooth="yes"/>
      <point x="331" y="51"/>
      <point x="301" y="40"/>
      <point x="308" y="22" type="curve" smooth="yes"/>
      <point x="312" y="12" type="line" smooth="yes"/>
      <point x="320" y="-7"/>
      <point x="353" y="2"/>
      <point x="344" y="22" type="curve" smooth="yes"/>
    </contour>
    <contour>
      <point x="369" y="379" type="curve" smooth="yes"/>
      <point x="369" y="379"/>
      <point x="369" y="379"/>
      <point x="369" y="379" type="curve" smooth="yes"/>
      <point x="369" y="379"/>
      <point x="369" y="379"/>
      <point x="369" y="379" type="curve" smooth="yes"/>
      <point x="369" y="379"/>
      <point x="369" y="379"/>
      <point x="369" y="379" type="curve" smooth="yes"/>
      <point x="369" y="379"/>
      <point x="369" y="379"/>
    </contour>
    <contour>
      <point x="409" y="402" type="curve" smooth="yes"/>
      <point x="409" y="402"/>
      <point x="409" y="402"/>
      <point x="409" y="402" type="curve" smooth="yes"/>
      <point x="409" y="402"/>
      <point x="409" y="402"/>
      <point x="409" y="402" type="curve" smooth="yes"/>
      <point x="409" y="402"/>
      <point x="409" y="402"/>
      <point x="409" y="402" type="curve" smooth="yes"/>
      <point x="409" y="402"/>
      <point x="409" y="402"/>
    </contour>
    <contour>
      <point x="430" y="413" type="curve" smooth="yes"/>
      <point x="430" y="413"/>
      <point x="430" y="413"/>
      <point x="430" y="413" type="curve" smooth="yes"/>
      <point x="430" y="413"/>
      <point x="430" y="413"/>
      <point x="430" y="413" type="curve" smooth="yes"/>
      <point x="430" y="413"/>
      <point x="430" y="413"/>
      <point x="430" y="413" type="curve" smooth="yes"/>
      <point x="430" y="413"/>
      <point x="430" y="413"/>
    </contour>
    <contour>
      <point x="62" y="505" type="curve" smooth="yes"/>
      <point x="67" y="505"/>
      <point x="71" y="509"/>
      <point x="71" y="515" type="curve" smooth="yes"/>
      <point x="71" y="520"/>
      <point x="67" y="524"/>
      <point x="62" y="524" type="curve" smooth="yes"/>
      <point x="56" y="524"/>
      <point x="52" y="520"/>
      <point x="52" y="515" type="curve" smooth="yes"/>
      <point x="52" y="509"/>
      <point x="56" y="505"/>
    </contour>
    <contour>
      <point x="483" y="153" type="line" smooth="yes"/>
      <point x="473" y="156"/>
      <point x="470" y="139"/>
      <point x="479" y="135" type="curve" smooth="yes"/>
      <point x="486" y="132" type="line" smooth="yes"/>
      <point x="496" y="128"/>
      <point x="500" y="148"/>
      <point x="490" y="151" type="curve" smooth="yes"/>
    </contour>
    <contour>
      <point x="43" y="133" type="line"/>
      <point x="48" y="115" type="line"/>
      <point x="60" y="117" type="line" smooth="yes"/>
      <point x="74" y="119"/>
      <point x="67" y="139"/>
      <point x="55" y="136" type="curve" smooth="yes"/>
    </contour>
    <contour>
      <point x="99" y="318" type="line"/>
      <point x="85" y="304" type="line"/>
      <point x="91" y="298" type="line" smooth="yes"/>
      <point x="99" y="290"/>
      <point x="112" y="305"/>
      <point x="105" y="312" type="curve" smooth="yes"/>
    </contour>
    <contour>
      <point x="119" y="647" type="line" smooth="yes"/>
      <point x="106" y="658"/>
      <point x="98" y="646"/>
      <point x="108" y="634" type="curve" smooth="yes"/>
      <point x="116" y="625" type="line" smooth="yes"/>
      <point x="128" y="612"/>
      <point x="141" y="627"/>
      <point x="130" y="637" type="curve" smooth="yes"/>
    </contour>
    <contour>
      <point x="374" y="657" type="line" smooth="yes"/>
      <point x="379" y="665"/>
      <point x="361" y="672"/>
      <point x="358" y="666" type="curve" smooth="yes"/>
      <point x="352" y="653" type="line" smooth="yes"/>
      <point x="348" y="645"/>
      <point x="362" y="637"/>
      <point x="367" y="645" type="curve" smooth="yes"/>
    </contour>
    <contour>
      <point x="420" y="634" type="line" smooth="yes"/>
      <point x="427" y="647"/>
      <point x="411" y="659"/>
      <point x="404" y="647" type="curve" smooth="yes"/>
      <point x="397" y="635" type="line" smooth="yes"/>
      <point x="390" y="624"/>
      <point x="408" y="613"/>
      <point x="414" y="623" type="curve" smooth="yes"/>
    </contour>
    <contour>
      <point x="72" y="446" type="line"/>
      <point x="85" y="434" type="line"/>
      <point x="90" y="441" type="line" smooth="yes"/>
      <point x="96" y="449"/>
      <point x="86" y="460"/>
      <point x="78" y="452" type="curve" smooth="yes"/>
    </contour>
    <contour>
      <point x="480" y="529" type="line"/>
      <point x="472" y="532" type="line" smooth="yes"/>
      <point x="464" y="535"/>
      <point x="458" y="518"/>
      <point x="466" y="515" type="curve" smooth="yes"/>
      <point x="474" y="512" type="line"/>
    </contour>
  </outline>
</glyph>
<glyph name="nine" format="2">
  <advance width="530"/>
  <unicode hex="0039"/>
  <outline>
    <contour>
      <point x="45" y="490" type="curve" smooth="yes"/>
      <point x="45" y="353"/>
      <point x="129" y="275"/>
      <point x="231" y="275" type="curve" smooth="yes"/>
      <point x="264" y="275"/>
      <point x="289" y="288"/>
      <point x="306" y="288" type="curve" smooth="yes"/>
      <point x="312" y="288"/>
      <point x="315" y="285"/>
      <point x="315" y="281" type="curve" smooth="yes"/>
      <point x="315" y="277"/>
      <point x="314" y="273"/>
      <point x="311" y="269" type="curve" smooth="yes"/>
      <point x="175" y="54" type="line" smooth="yes"/>
      <point x="138" y="-4"/>
      <point x="219" y="-46"/>
      <point x="250" y="3" type="curve" smooth="yes"/>
      <point x="422" y="279" type="line" smooth="yes"/>
      <point x="466" y="350"/>
      <point x="487" y="405"/>
      <point x="487" y="490" type="curve" smooth="yes"/>
      <point x="487" y="626"/>
      <point x="405" y="705"/>
      <point x="259" y="705" type="curve" smooth="yes"/>
      <point x="128" y="705"/>
      <point x="45" y="624"/>
    </contour>
    <contour>
      <point x="74" y="490" type="curve" smooth="yes"/>
      <point x="74" y="618"/>
      <point x="152" y="681"/>
      <point x="243" y="681" type="curve" smooth="yes"/>
      <point x="330" y="681"/>
      <point x="397" y="614"/>
      <point x="397" y="490" type="curve" smooth="yes"/>
      <point x="397" y="348"/>
      <point x="323" y="299"/>
      <point x="241" y="299" type="curve" smooth="yes"/>
      <point x="145" y="299"/>
      <point x="74" y="361"/>
    </contour>
    <contour>
      <point x="324" y="122" type="line"/>
      <point x="300" y="83" type="line"/>
      <point x="300" y="83" type="line"/>
      <point x="300" y="83"/>
      <point x="324" y="122"/>
      <point x="324" y="122" type="curve"/>
    </contour>
    <contour>
      <point x="387" y="223" type="line"/>
      <point x="363" y="184" type="line"/>
      <point x="363" y="184" type="line"/>
      <point x="363" y="184"/>
      <point x="387" y="223"/>
      <point x="387" y="223" type="curve"/>
    </contour>
    <contour>
      <point x="371" y="272" type="curve" smooth="yes"/>
      <point x="383" y="272"/>
      <point x="393" y="281"/>
      <point x="393" y="294" type="curve" smooth="yes"/>
      <point x="393" y="306"/>
      <point x="383" y="316"/>
      <point x="371" y="316" type="curve" smooth="yes"/>
      <point x="358" y="316"/>
      <point x="349" y="306"/>
      <point x="349" y="294" type="curve" smooth="yes"/>
      <point x="349" y="281"/>
      <point x="358" y="272"/>
    </contour>
    <contour>
      <point x="244" y="163" type="line"/>
      <point x="268" y="201" type="line"/>
      <point x="268" y="201" type="line"/>
      <point x="268" y="201"/>
      <point x="244" y="163"/>
      <point x="244" y="163" type="curve"/>
    </contour>
    <contour>
      <point x="203" y="692" type="line" smooth="yes"/>
      <point x="198" y="700"/>
      <point x="179" y="692"/>
      <point x="182" y="683" type="curve" smooth="yes"/>
      <point x="183" y="680" type="line" smooth="yes"/>
      <point x="186" y="671"/>
      <point x="210" y="682"/>
      <point x="205" y="689" type="curve" smooth="yes"/>
    </contour>
    <contour>
      <point x="298" y="690" type="line" smooth="yes"/>
      <point x="298" y="705"/>
      <point x="275" y="705"/>
      <point x="275" y="691" type="curve" smooth="yes"/>
      <point x="275" y="688" type="line" smooth="yes"/>
      <point x="275" y="676"/>
      <point x="298" y="677"/>
      <point x="298" y="687" type="curve" smooth="yes"/>
    </contour>
    <contour>
      <point x="63" y="414" type="line" smooth="yes"/>
      <point x="55" y="410"/>
      <point x="63" y="396"/>
      <point x="71" y="399" type="curve" smooth="yes"/>
      <point x="79" y="402" type="line" smooth="yes"/>
      <point x="88" y="405"/>
      <point x="79" y="422"/>
      <point x="73" y="419" type="curve" smooth="yes"/>
    </contour>
    <contour>
      <point x="368" y="637" type="line" smooth="yes"/>
      <point x="361" y="628"/>
      <point x="376" y="614"/>
      <point x="384" y="622" type="curve" smooth="yes"/>
      <point x="396" y="634" type="line" smooth="yes"/>
      <point x="405" y="643"/>
      <point x="386" y="659"/>
      <point x="379" y="650" type="curve" smooth="yes"/>
    </contour>
    <contour>
      <point x="414" y="495" type="line" smooth="yes"/>
      <point x="403" y="497"/>
      <point x="398" y="478"/>
      <point x="409" y="476" type="curve" smooth="yes"/>
      <point x="423" y="474" type="line"/>
      <point x="427" y="493" type="line"/>
    </contour>
    <contour>
      <point x="90" y="361" type="line" smooth="yes"/>
      <point x="85" y="353"/>
      <point x="100" y="343"/>
      <point x="104" y="350" type="curve" smooth="yes"/>
      <point x="107" y="355" type="line"/>
      <point x="93" y="366" type="line"/>
    </contour>
    <contour>
      <point x="118" y="327" type="line" smooth="yes"/>
      <point x="112" y="317"/>
      <point x="129" y="310"/>
      <point x="133" y="319" type="curve" smooth="yes"/>
      <point x="137" y="328" type="line"/>
      <point x="123" y="335" type="line"/>
    </contour>
    <contour>
      <point x="154" y="300" type="line" smooth="yes"/>
      <point x="154" y="289"/>
      <point x="173" y="290"/>
      <point x="172" y="300" type="curve" smooth="yes"/>
      <point x="171" y="308" type="line"/>
      <point x="154" y="307" type="line"/>
    </contour>
  </outline>
</glyph>
<glyph name="colon" format="2">
  <advance width="196"/>
  <unicode hex="003A"/>
  <outline>
    <contour>
      <point x="99" y="-19" type="curve" smooth="yes"/>
      <point x="127" y="-19"/>
      <point x="150" y="4"/>
      <point x="150" y="33" type="curve" smooth="yes"/>
      <point x="150" y="61"/>
      <point x="127" y="84"/>
      <point x="99" y="84" type="curve" smooth="yes"/>
      <point x="69" y="84"/>
      <point x="46" y="61"/>
      <point x="46" y="33" type="curve" smooth="yes"/>
      <point x="46" y="4"/>
      <point x="69" y="-19"/>
    </contour>
    <contour>
      <point x="99" y="457" type="curve" smooth="yes"/>
      <point x="127" y="457"/>
      <point x="150" y="480"/>
      <point x="150" y="509" type="curve" smooth="yes"/>
      <point x="150" y="537"/>
      <point x="127" y="560"/>
      <point x="99" y="560" type="curve" smooth="yes"/>
      <point x="69" y="560"/>
      <point x="46" y="537"/>
      <point x="46" y="509" type="curve" smooth="yes"/>
      <point x="46" y="480"/>
      <point x="69" y="457"/>
    </contour>
    <contour>
      <point x="100" y="508" type="curve" smooth="yes"/>
      <point x="100" y="508"/>
      <point x="100" y="508"/>
      <point x="100" y="508" type="curve" smooth="yes"/>
      <point x="100" y="508"/>
      <point x="100" y="508"/>
      <point x="100" y="508" type="curve" smooth="yes"/>
      <point x="100" y="508"/>
      <point x="100" y="508"/>
      <point x="100" y="508" type="curve" smooth="yes"/>
      <point x="100" y="508"/>
      <point x="100" y="508"/>
    </contour>
  </outline>
</glyph>
<glyph name="semicolon" format="2">
  <advance width="196"/>
  <unicode hex="003B"/>
  <guideline x="95" y="400" angle="270"/>
  <outline>
    <contour>
      <point x="95" y="459" type="curve" smooth="yes"/>
      <point x="123" y="459"/>
      <point x="146" y="482"/>
      <point x="146" y="511" type="curve" smooth="yes"/>
      <point x="146" y="539"/>
      <point x="123" y="562"/>
      <point x="95" y="562" type="curve" smooth="yes"/>
      <point x="65" y="562"/>
      <point x="42" y="539"/>
      <point x="42" y="511" type="curve" smooth="yes"/>
      <point x="42" y="482"/>
      <point x="65" y="459"/>
    </contour>
    <contour>
      <point x="31" y="-179" type="curve" smooth="yes"/>
      <point x="16" y="-189"/>
      <point x="31" y="-208"/>
      <point x="43" y="-200" type="curve" smooth="yes"/>
      <point x="112" y="-154"/>
      <point x="154" y="-89"/>
      <point x="154" y="17" type="curve" smooth="yes"/>
      <point x="154" y="75"/>
      <point x="130" y="99"/>
      <point x="99" y="99" type="curve" smooth="yes"/>
      <point x="66" y="99"/>
      <point x="42" y="76"/>
      <point x="42" y="43" type="curve" smooth="yes"/>
      <point x="42" y="14"/>
      <point x="58" y="-13"/>
      <point x="97" y="-13" type="curve" smooth="yes"/>
      <point x="115" y="-13"/>
      <point x="120" y="-17"/>
      <point x="120" y="-36" type="curve" smooth="yes"/>
      <point x="120" y="-71"/>
      <point x="95" y="-136"/>
    </contour>
    <contour>
      <point x="97" y="39" type="curve" smooth="yes"/>
      <point x="97" y="39"/>
      <point x="97" y="39"/>
      <point x="97" y="39" type="curve" smooth="yes"/>
      <point x="97" y="39"/>
      <point x="97" y="39"/>
      <point x="97" y="39" type="curve" smooth="yes"/>
      <point x="97" y="39"/>
      <point x="97" y="39"/>
      <point x="97" y="39" type="curve" smooth="yes"/>
      <point x="97" y="39"/>
      <point x="97" y="39"/>
    </contour>
  </outline>
</glyph>
<glyph name="less" format="2">
  <advance width="385"/>
  <unicode hex="003C"/>
  <outline>
    <contour>
      <point x="314" y="91" type="line" smooth="yes"/>
      <point x="332" y="78"/>
      <point x="348" y="102"/>
      <point x="330" y="114" type="curve" smooth="yes"/>
      <point x="68" y="294" type="line" smooth="yes"/>
      <point x="47" y="309"/>
      <point x="47" y="325"/>
      <point x="68" y="340" type="curve" smooth="yes"/>
      <point x="330" y="520" type="line" smooth="yes"/>
      <point x="348" y="532"/>
      <point x="332" y="556"/>
      <point x="314" y="543" type="curve" smooth="yes"/>
      <point x="46" y="358" type="line" smooth="yes"/>
      <point x="17" y="338"/>
      <point x="20" y="294"/>
      <point x="46" y="276" type="curve" smooth="yes"/>
    </contour>
  </outline>
</glyph>
<glyph name="equal" format="2">
  <advance width="387"/>
  <unicode hex="003D"/>
  <outline>
    <contour>
      <point x="40" y="408" type="line" smooth="yes"/>
      <point x="26" y="408"/>
      <point x="26" y="381"/>
      <point x="40" y="381" type="curve" smooth="yes"/>
      <point x="344" y="381" type="line" smooth="yes"/>
      <point x="361" y="381"/>
      <point x="362" y="408"/>
      <point x="344" y="408" type="curve" smooth="yes"/>
    </contour>
    <contour>
      <point x="40" y="275" type="line" smooth="yes"/>
      <point x="26" y="275"/>
      <point x="26" y="248"/>
      <point x="40" y="248" type="curve" smooth="yes"/>
      <point x="344" y="248" type="line" smooth="yes"/>
      <point x="361" y="248"/>
      <point x="362" y="275"/>
      <point x="344" y="275" type="curve" smooth="yes"/>
    </contour>
  </outline>
</glyph>
<glyph name="greater" format="2">
  <advance width="385"/>
  <unicode hex="003E"/>
  <outline>
    <contour>
      <point x="71" y="91" type="curve" smooth="yes"/>
      <point x="339" y="276" type="line" smooth="yes"/>
      <point x="368" y="296"/>
      <point x="365" y="340"/>
      <point x="339" y="358" type="curve" smooth="yes"/>
      <point x="71" y="543" type="line" smooth="yes"/>
      <point x="53" y="556"/>
      <point x="37" y="532"/>
      <point x="55" y="520" type="curve" smooth="yes"/>
      <point x="317" y="340" type="line" smooth="yes"/>
      <point x="338" y="325"/>
      <point x="338" y="309"/>
      <point x="317" y="294" type="curve" smooth="yes"/>
      <point x="55" y="114" type="line" smooth="yes"/>
      <point x="37" y="102"/>
      <point x="53" y="78"/>
    </contour>
  </outline>
</glyph>
<glyph name="question" format="2">
  <advance width="396"/>
  <unicode hex="003F"/>
  <outline>
    <contour>
      <point x="173" y="-9" type="curve" smooth="yes"/>
      <point x="201" y="-9"/>
      <point x="224" y="14"/>
      <point x="224" y="43" type="curve" smooth="yes"/>
      <point x="224" y="71"/>
      <point x="201" y="94"/>
      <point x="173" y="94" type="curve" smooth="yes"/>
      <point x="143" y="94"/>
      <point x="120" y="71"/>
      <point x="120" y="43" type="curve" smooth="yes"/>
      <point x="120" y="14"/>
      <point x="143" y="-9"/>
    </contour>
    <contour>
      <point x="161" y="239" type="curve" smooth="yes"/>
      <point x="318" y="330"/>
      <point x="363" y="420"/>
      <point x="363" y="523" type="curve" smooth="yes"/>
      <point x="363" y="668"/>
      <point x="267" y="708"/>
      <point x="182" y="708" type="curve" smooth="yes"/>
      <point x="101" y="708"/>
      <point x="44" y="688"/>
      <point x="44" y="645" type="curve" smooth="yes"/>
      <point x="44" y="622"/>
      <point x="57" y="607"/>
      <point x="77" y="607" type="curve" smooth="yes"/>
      <point x="107" y="607"/>
      <point x="134" y="617"/>
      <point x="204" y="617" type="curve" smooth="yes"/>
      <point x="286" y="617"/>
      <point x="335" y="588"/>
      <point x="335" y="521" type="curve" smooth="yes"/>
      <point x="335" y="432"/>
      <point x="300" y="344"/>
      <point x="146" y="259" type="curve" smooth="yes"/>
      <point x="139" y="256"/>
      <point x="137" y="251"/>
      <point x="137" y="246" type="curve" smooth="yes"/>
      <point x="137" y="240"/>
      <point x="141" y="234"/>
      <point x="149" y="234" type="curve" smooth="yes"/>
      <point x="151" y="234"/>
      <point x="154" y="235"/>
    </contour>
    <contour>
      <point x="129" y="675" type="line" smooth="yes"/>
      <point x="122" y="691"/>
      <point x="100" y="679"/>
      <point x="104" y="662" type="curve" smooth="yes"/>
      <point x="111" y="634" type="line"/>
      <point x="140" y="651" type="line"/>
    </contour>
    <contour>
      <point x="206" y="663" type="line" smooth="yes"/>
      <point x="213" y="680"/>
      <point x="179" y="684"/>
      <point x="180" y="667" type="curve" smooth="yes"/>
      <point x="181" y="650" type="line"/>
      <point x="200" y="648" type="line"/>
    </contour>
    <contour>
      <point x="303" y="617" type="line" smooth="yes"/>
      <point x="319" y="628"/>
      <point x="293" y="662"/>
      <point x="279" y="639" type="curve" smooth="yes"/>
      <point x="274" y="631" type="line"/>
      <point x="293" y="610" type="line"/>
    </contour>
    <contour>
      <point x="337" y="486" type="line"/>
      <point x="340" y="459" type="line"/>
      <point x="346" y="459" type="line" smooth="yes"/>
      <point x="358" y="459"/>
      <point x="357" y="486"/>
      <point x="345" y="486" type="curve" smooth="yes"/>
    </contour>
    <contour>
      <point x="311" y="400" type="line"/>
      <point x="291" y="375" type="line"/>
      <point x="295" y="371" type="line" smooth="yes"/>
      <point x="307" y="359"/>
      <point x="326" y="385"/>
      <point x="317" y="394" type="curve" smooth="yes"/>
    </contour>
    <contour>
      <point x="164" y="254" type="curve" smooth="yes"/>
      <point x="164" y="254"/>
      <point x="164" y="254"/>
      <point x="164" y="254" type="curve" smooth="yes"/>
      <point x="164" y="254"/>
      <point x="164" y="254"/>
      <point x="164" y="254" type="curve" smooth="yes"/>
      <point x="164" y="254"/>
      <point x="164" y="254"/>
      <point x="164" y="254" type="curve" smooth="yes"/>
      <point x="164" y="254"/>
      <point x="164" y="254"/>
    </contour>
    <contour>
      <point x="228" y="300" type="curve" smooth="yes"/>
      <point x="228" y="300"/>
      <point x="228" y="300"/>
      <point x="228" y="300" type="curve" smooth="yes"/>
      <point x="228" y="300"/>
      <point x="228" y="300"/>
      <point x="228" y="300" type="curve" smooth="yes"/>
      <point x="228" y="300"/>
      <point x="228" y="300"/>
      <point x="228" y="300" type="curve" smooth="yes"/>
      <point x="228" y="300"/>
      <point x="228" y="300"/>
    </contour>
    <contour>
      <point x="168" y="675" type="line" smooth="yes"/>
      <point x="165" y="691"/>
      <point x="139" y="686"/>
      <point x="144" y="668" type="curve" smooth="yes"/>
      <point x="148" y="654" type="line" smooth="yes"/>
      <point x="153" y="636"/>
      <point x="174" y="642"/>
      <point x="171" y="659" type="curve" smooth="yes"/>
    </contour>
    <contour>
      <point x="353" y="547" type="line" smooth="yes"/>
      <point x="363" y="551"/>
      <point x="352" y="575"/>
      <point x="342" y="569" type="curve" smooth="yes"/>
      <point x="337" y="566" type="line" smooth="yes"/>
      <point x="327" y="560"/>
      <point x="337" y="541"/>
      <point x="345" y="544" type="curve" smooth="yes"/>
    </contour>
  </outline>
</glyph>
<glyph name="at" format="2">
  <advance width="746"/>
  <unicode hex="0040"/>
  <outline>
    <contour>
      <point x="377" y="-22" type="curve" smooth="yes"/>
      <point x="440" y="-22"/>
      <point x="524" y="-6"/>
      <point x="583" y="19" type="curve" smooth="yes"/>
      <point x="600" y="26"/>
      <point x="591" y="47"/>
      <point x="575" y="41" type="curve" smooth="yes"/>
      <point x="515" y="18"/>
      <point x="447" y="3"/>
      <point x="377" y="3" type="curve" smooth="yes"/>
      <point x="213" y="3"/>
      <point x="63" y="74"/>
      <point x="63" y="339" type="curve" smooth="yes"/>
      <point x="63" y="596"/>
      <point x="207" y="695"/>
      <point x="380" y="695" type="curve" smooth="yes"/>
      <point x="569" y="695"/>
      <point x="683" y="594"/>
      <point x="683" y="378" type="curve" smooth="yes"/>
      <point x="683" y="231"/>
      <point x="656" y="165"/>
      <point x="592" y="165" type="curve" smooth="yes"/>
      <point x="551" y="165"/>
      <point x="524" y="197"/>
      <point x="524" y="237" type="curve" smooth="yes"/>
      <point x="524" y="425" type="line" smooth="yes"/>
      <point x="524" y="504"/>
      <point x="482" y="550"/>
      <point x="392" y="550" type="curve" smooth="yes"/>
      <point x="296" y="550"/>
      <point x="214" y="506"/>
      <point x="214" y="341" type="curve" smooth="yes"/>
      <point x="214" y="197"/>
      <point x="285" y="140"/>
      <point x="385" y="140" type="curve" smooth="yes"/>
      <point x="440" y="140"/>
      <point x="475" y="156"/>
      <point x="498" y="179" type="curve" smooth="yes"/>
      <point x="507" y="188"/>
      <point x="513" y="187"/>
      <point x="519" y="178" type="curve" smooth="yes"/>
      <point x="532" y="157"/>
      <point x="557" y="140"/>
      <point x="592" y="140" type="curve" smooth="yes"/>
      <point x="666" y="140"/>
      <point x="711" y="203"/>
      <point x="711" y="382" type="curve" smooth="yes"/>
      <point x="711" y="608"/>
      <point x="582" y="720"/>
      <point x="380" y="720" type="curve" smooth="yes"/>
      <point x="198" y="720"/>
      <point x="35" y="614"/>
      <point x="35" y="339" type="curve" smooth="yes"/>
      <point x="35" y="74"/>
      <point x="182" y="-22"/>
    </contour>
    <contour>
      <point x="305" y="341" type="curve" smooth="yes"/>
      <point x="305" y="477"/>
      <point x="349" y="525"/>
      <point x="409" y="525" type="curve" smooth="yes"/>
      <point x="457" y="525"/>
      <point x="499" y="497"/>
      <point x="499" y="423" type="curve" smooth="yes"/>
      <point x="499" y="237" type="line" smooth="yes"/>
      <point x="499" y="199"/>
      <point x="459" y="165"/>
      <point x="395" y="165" type="curve" smooth="yes"/>
      <point x="343" y="165"/>
      <point x="305" y="205"/>
    </contour>
    <contour>
      <point x="466" y="0" type="line" smooth="yes"/>
      <point x="466" y="11"/>
      <point x="444" y="6"/>
      <point x="448" y="-5" type="curve" smooth="yes"/>
      <point x="449" y="-8" type="line" smooth="yes"/>
      <point x="452" y="-17"/>
      <point x="466" y="-15"/>
      <point x="466" y="-3" type="curve" smooth="yes"/>
    </contour>
    <contour>
      <point x="353" y="164" type="line" smooth="yes"/>
      <point x="355" y="174"/>
      <point x="336" y="177"/>
      <point x="335" y="166" type="curve" smooth="yes"/>
      <point x="334" y="157" type="line" smooth="yes"/>
      <point x="333" y="146"/>
      <point x="348" y="142"/>
      <point x="351" y="156" type="curve" smooth="yes"/>
    </contour>
    <contour>
      <point x="281" y="466" type="curve" smooth="yes"/>
      <point x="281" y="466"/>
      <point x="281" y="466"/>
      <point x="281" y="466" type="curve" smooth="yes"/>
      <point x="281" y="466"/>
      <point x="281" y="466"/>
      <point x="281" y="466" type="curve" smooth="yes"/>
      <point x="281" y="466"/>
      <point x="281" y="466"/>
      <point x="281" y="466" type="curve" smooth="yes"/>
      <point x="281" y="466"/>
      <point x="281" y="466"/>
    </contour>
    <contour>
      <point x="271" y="381" type="curve" smooth="yes"/>
      <point x="271" y="381"/>
      <point x="271" y="381"/>
      <point x="271" y="381" type="curve" smooth="yes"/>
      <point x="271" y="381"/>
      <point x="271" y="381"/>
      <point x="271" y="381" type="curve" smooth="yes"/>
      <point x="271" y="381"/>
      <point x="271" y="381"/>
      <point x="271" y="381" type="curve" smooth="yes"/>
      <point x="271" y="381"/>
      <point x="271" y="381"/>
    </contour>
    <contour>
      <point x="532" y="680" type="line" smooth="yes"/>
      <point x="536" y="689"/>
      <point x="510" y="702"/>
      <point x="506" y="692" type="curve" smooth="yes"/>
      <point x="504" y="687" type="line" smooth="yes"/>
      <point x="500" y="678"/>
      <point x="526" y="667"/>
      <point x="530" y="676" type="curve" smooth="yes"/>
    </contour>
    <contour>
      <point x="592" y="644" type="line" smooth="yes"/>
      <point x="602" y="654"/>
      <point x="578" y="674"/>
      <point x="570" y="666" type="curve" smooth="yes"/>
      <point x="565" y="661" type="line" smooth="yes"/>
      <point x="558" y="654"/>
      <point x="583" y="635"/>
      <point x="589" y="641" type="curve" smooth="yes"/>
    </contour>
    <contour>
      <point x="185" y="660" type="line" smooth="yes"/>
      <point x="179" y="666"/>
      <point x="166" y="653"/>
      <point x="171" y="648" type="curve" smooth="yes"/>
      <point x="179" y="640" type="line" smooth="yes"/>
      <point x="184" y="635"/>
      <point x="197" y="648"/>
      <point x="191" y="654" type="curve" smooth="yes"/>
    </contour>
  </outline>
</glyph>
<glyph name="A" format="2">
  <advance width="496"/>
  <unicode hex="0041"/>
  <anchor x="481" y="0" name="ogonek"/>
  <anchor x="250" y="700" name="top"/>
  <outline>
    <contour>
      <point x="451" y="7" type="line" smooth="yes"/>
      <point x="457" y="-16"/>
      <point x="480" y="-9"/>
      <point x="474" y="15" type="curve" smooth="yes"/>
      <point x="326" y="631" type="line" smooth="yes"/>
      <point x="313" y="684"/>
      <point x="291" y="711"/>
      <point x="247" y="711" type="curve" smooth="yes"/>
      <point x="206" y="711"/>
      <point x="176" y="686"/>
      <point x="165" y="639" type="curve" smooth="yes"/>
      <point x="21" y="37" type="line" smooth="yes"/>
      <point x="8" y="-18"/>
      <point x="85" y="-36"/>
      <point x="97" y="16" type="curve" smooth="yes"/>
      <point x="239" y="615" type="line" smooth="yes"/>
      <point x="244" y="636"/>
      <point x="256" y="645"/>
      <point x="271" y="645" type="curve" smooth="yes"/>
      <point x="286" y="645"/>
      <point x="300" y="632"/>
      <point x="306" y="608" type="curve" smooth="yes"/>
    </contour>
    <contour>
      <point x="130" y="315" type="line"/>
      <point x="153" y="314" type="line" smooth="yes"/>
      <point x="169" y="313"/>
      <point x="169" y="337"/>
      <point x="150" y="338" type="curve" smooth="yes"/>
      <point x="135" y="339" type="line"/>
    </contour>
    <contour>
      <point x="416" y="245" type="line"/>
      <point x="409" y="271" type="line"/>
      <point x="403" y="271" type="line" smooth="yes"/>
      <point x="388" y="271"/>
      <point x="391" y="245"/>
      <point x="404" y="245" type="curve" smooth="yes"/>
    </contour>
    <contour>
      <point x="128" y="209" type="line"/>
      <point x="414" y="209" type="line"/>
      <point x="405" y="236" type="line"/>
      <point x="134" y="235" type="line"/>
    </contour>
    <contour>
      <point x="95" y="138" type="line"/>
      <point x="108" y="138" type="line" smooth="yes"/>
      <point x="120" y="138"/>
      <point x="122" y="166"/>
      <point x="109" y="165" type="curve" smooth="yes"/>
      <point x="99" y="164" type="line"/>
    </contour>
    <contour>
      <point x="195" y="529" type="line"/>
      <point x="206" y="561" type="line"/>
      <point x="187" y="565" type="line" smooth="yes"/>
      <point x="160" y="571"/>
      <point x="159" y="536"/>
      <point x="180" y="532" type="curve" smooth="yes"/>
    </contour>
    <contour>
      <point x="162" y="421" type="line"/>
      <point x="173" y="453" type="line"/>
      <point x="159" y="458" type="line" smooth="yes"/>
      <point x="139" y="465"/>
      <point x="129" y="430"/>
      <point x="151" y="424" type="curve" smooth="yes"/>
    </contour>
    <contour>
      <point x="109" y="189" type="line"/>
      <point x="118" y="228" type="line"/>
      <point x="103" y="232" type="line" smooth="yes"/>
      <point x="78" y="239"/>
      <point x="74" y="196"/>
      <point x="93" y="192" type="curve" smooth="yes"/>
    </contour>
    <contour>
      <point x="369" y="453" type="line"/>
      <point x="369" y="453"/>
      <point x="359" y="494"/>
      <point x="359" y="494" type="curve"/>
      <point x="359" y="494" type="line"/>
      <point x="369" y="453" type="line"/>
    </contour>
    <contour>
      <point x="351" y="527" type="line"/>
      <point x="351" y="527"/>
      <point x="340" y="573"/>
      <point x="340" y="573" type="curve"/>
      <point x="340" y="573" type="line"/>
      <point x="351" y="527" type="line"/>
    </contour>
  </outline>
</glyph>
<glyph name="B" format="2">
  <advance width="528"/>
  <unicode hex="0042"/>
  <anchor x="247" y="0" name="bottom"/>
  <anchor x="234" y="700" name="top"/>
  <outline>
    <contour>
      <point x="80" y="47" type="line" smooth="yes"/>
      <point x="80" y="16"/>
      <point x="93" y="0"/>
      <point x="130" y="0" type="curve" smooth="yes"/>
      <point x="287" y="0" type="line" smooth="yes"/>
      <point x="410" y="0"/>
      <point x="492" y="55"/>
      <point x="492" y="194" type="curve" smooth="yes"/>
      <point x="492" y="306"/>
      <point x="425" y="360"/>
      <point x="371" y="371" type="curve" smooth="yes"/>
      <point x="363" y="373"/>
      <point x="363" y="379"/>
      <point x="371" y="383" type="curve" smooth="yes"/>
      <point x="418" y="409"/>
      <point x="457" y="458"/>
      <point x="457" y="539" type="curve" smooth="yes"/>
      <point x="457" y="659"/>
      <point x="374" y="705"/>
      <point x="288" y="705" type="curve" smooth="yes"/>
      <point x="136" y="705" type="line" smooth="yes"/>
      <point x="104" y="705"/>
      <point x="80" y="684"/>
      <point x="80" y="650" type="curve" smooth="yes"/>
    </contour>
    <contour>
      <point x="287" y="680" type="line" smooth="yes"/>
      <point x="371" y="680"/>
      <point x="429" y="633"/>
      <point x="429" y="539" type="curve" smooth="yes"/>
      <point x="429" y="447"/>
      <point x="364" y="384"/>
      <point x="318" y="384" type="curve" smooth="yes"/>
      <point x="178" y="384" type="line" smooth="yes"/>
      <point x="157" y="384"/>
      <point x="150" y="392"/>
      <point x="150" y="410" type="curve" smooth="yes"/>
      <point x="150" y="643" type="line" smooth="yes"/>
      <point x="150" y="672"/>
      <point x="161" y="680"/>
      <point x="188" y="680" type="curve" smooth="yes"/>
    </contour>
    <contour>
      <point x="150" y="51" type="curve" smooth="yes"/>
      <point x="150" y="331" type="line" smooth="yes"/>
      <point x="150" y="351"/>
      <point x="157" y="359"/>
      <point x="178" y="359" type="curve" smooth="yes"/>
      <point x="318" y="359" type="line" smooth="yes"/>
      <point x="397" y="359"/>
      <point x="464" y="306"/>
      <point x="464" y="194" type="curve" smooth="yes"/>
      <point x="464" y="76"/>
      <point x="400" y="25"/>
      <point x="291" y="25" type="curve" smooth="yes"/>
      <point x="174" y="25" type="line" smooth="yes"/>
      <point x="158" y="25"/>
      <point x="150" y="31"/>
    </contour>
    <contour>
      <point x="482" y="221" type="curve" smooth="yes"/>
      <point x="482" y="221"/>
      <point x="482" y="221"/>
      <point x="482" y="221" type="curve" smooth="yes"/>
      <point x="482" y="221"/>
      <point x="482" y="221"/>
      <point x="482" y="221" type="curve" smooth="yes"/>
      <point x="482" y="221"/>
      <point x="482" y="221"/>
      <point x="482" y="221" type="curve" smooth="yes"/>
      <point x="482" y="221"/>
      <point x="482" y="221"/>
    </contour>
    <contour>
      <point x="472" y="153" type="curve" smooth="yes"/>
      <point x="472" y="153"/>
      <point x="472" y="153"/>
      <point x="472" y="153" type="curve" smooth="yes"/>
      <point x="472" y="153"/>
      <point x="472" y="153"/>
      <point x="472" y="153" type="curve" smooth="yes"/>
      <point x="472" y="153"/>
      <point x="472" y="153"/>
      <point x="472" y="153" type="curve" smooth="yes"/>
      <point x="472" y="153"/>
      <point x="472" y="153"/>
    </contour>
    <contour>
      <point x="460" y="111" type="curve" smooth="yes"/>
      <point x="460" y="111"/>
      <point x="460" y="111"/>
      <point x="460" y="111" type="curve" smooth="yes"/>
      <point x="460" y="111"/>
      <point x="460" y="111"/>
      <point x="460" y="111" type="curve" smooth="yes"/>
      <point x="460" y="111"/>
      <point x="460" y="111"/>
      <point x="460" y="111" type="curve" smooth="yes"/>
      <point x="460" y="111"/>
      <point x="460" y="111"/>
    </contour>
    <contour>
      <point x="164" y="695" type="line" smooth="yes"/>
      <point x="163" y="705"/>
      <point x="138" y="706"/>
      <point x="141" y="691" type="curve" smooth="yes"/>
      <point x="143" y="682" type="line"/>
      <point x="165" y="685" type="line"/>
    </contour>
    <contour>
      <point x="218" y="697" type="line" smooth="yes"/>
      <point x="217" y="707"/>
      <point x="200" y="704"/>
      <point x="201" y="696" type="curve" smooth="yes"/>
      <point x="202" y="688" type="line" smooth="yes"/>
      <point x="203" y="680"/>
      <point x="220" y="681"/>
      <point x="219" y="689" type="curve" smooth="yes"/>
    </contour>
    <contour>
      <point x="290" y="691" type="line" smooth="yes"/>
      <point x="292" y="705"/>
      <point x="262" y="706"/>
      <point x="263" y="694" type="curve" smooth="yes"/>
      <point x="264" y="684" type="line"/>
      <point x="289" y="684" type="line"/>
    </contour>
    <contour>
      <point x="359" y="683" type="line" smooth="yes"/>
      <point x="363" y="690"/>
      <point x="345" y="697"/>
      <point x="342" y="689" type="curve" smooth="yes"/>
      <point x="338" y="677" type="line"/>
      <point x="353" y="672" type="line"/>
    </contour>
    <contour>
      <point x="421" y="626" type="line" smooth="yes"/>
      <point x="434" y="634"/>
      <point x="413" y="657"/>
      <point x="405" y="648" type="curve" smooth="yes"/>
      <point x="401" y="643" type="line"/>
      <point x="416" y="623" type="line"/>
    </contour>
    <contour>
      <point x="447" y="562" type="line" smooth="yes"/>
      <point x="456" y="564"/>
      <point x="453" y="588"/>
      <point x="444" y="586" type="curve" smooth="yes"/>
      <point x="432" y="583" type="line" smooth="yes"/>
      <point x="424" y="581"/>
      <point x="428" y="558"/>
      <point x="437" y="560" type="curve" smooth="yes"/>
    </contour>
    <contour>
      <point x="440" y="497" type="line" smooth="yes"/>
      <point x="450" y="497"/>
      <point x="454" y="518"/>
      <point x="439" y="518" type="curve" smooth="yes"/>
      <point x="434" y="518" type="line"/>
      <point x="434" y="497" type="line"/>
    </contour>
    <contour>
      <point x="130" y="74" type="line" smooth="yes"/>
      <point x="146" y="82"/>
      <point x="135" y="107"/>
      <point x="117" y="100" type="curve" smooth="yes"/>
      <point x="104" y="95" type="line" smooth="yes"/>
      <point x="87" y="88"/>
      <point x="99" y="58"/>
      <point x="114" y="66" type="curve" smooth="yes"/>
    </contour>
    <contour>
      <point x="187" y="7" type="line" smooth="yes"/>
      <point x="193" y="20"/>
      <point x="168" y="29"/>
      <point x="163" y="21" type="curve" smooth="yes"/>
      <point x="161" y="18" type="line" smooth="yes"/>
      <point x="152" y="5"/>
      <point x="182" y="-3"/>
      <point x="186" y="5" type="curve" smooth="yes"/>
    </contour>
    <contour>
      <point x="121" y="10" type="curve" smooth="yes"/>
      <point x="133" y="10"/>
      <point x="143" y="20"/>
      <point x="143" y="32" type="curve" smooth="yes"/>
      <point x="143" y="44"/>
      <point x="133" y="55"/>
      <point x="121" y="55" type="curve" smooth="yes"/>
      <point x="109" y="55"/>
      <point x="98" y="44"/>
      <point x="98" y="32" type="curve" smooth="yes"/>
      <point x="98" y="20"/>
      <point x="109" y="10"/>
    </contour>
  </outline>
</glyph>
<glyph name="C" format="2">
  <advance width="491"/>
  <unicode hex="0043"/>
  <anchor x="259" y="0" name="cedilla"/>
  <anchor x="268" y="700" name="top"/>
  <outline>
    <contour>
      <point x="45" y="350" type="curve" smooth="yes"/>
      <point x="45" y="118"/>
      <point x="128" y="-12"/>
      <point x="295" y="-12" type="curve" smooth="yes"/>
      <point x="348" y="-12"/>
      <point x="407" y="7"/>
      <point x="443" y="39" type="curve" smooth="yes"/>
      <point x="470" y="63"/>
      <point x="454" y="122"/>
      <point x="415" y="122" type="curve" smooth="yes"/>
      <point x="380" y="122"/>
      <point x="343" y="76"/>
      <point x="261" y="75" type="curve" smooth="yes"/>
      <point x="131" y="73"/>
      <point x="71" y="145"/>
      <point x="71" y="350" type="curve" smooth="yes"/>
      <point x="71" y="551"/>
      <point x="131" y="627"/>
      <point x="261" y="625" type="curve" smooth="yes"/>
      <point x="342" y="624"/>
      <point x="376" y="580"/>
      <point x="413" y="580" type="curve" smooth="yes"/>
      <point x="452" y="580"/>
      <point x="468" y="639"/>
      <point x="441" y="663" type="curve" smooth="yes"/>
      <point x="405" y="695"/>
      <point x="349" y="712"/>
      <point x="295" y="712" type="curve" smooth="yes"/>
      <point x="129" y="712"/>
      <point x="45" y="584"/>
    </contour>
    <contour>
      <point x="141" y="65" type="curve" smooth="yes"/>
      <point x="152" y="65"/>
      <point x="160" y="73"/>
      <point x="160" y="85" type="curve" smooth="yes"/>
      <point x="160" y="96"/>
      <point x="152" y="104"/>
      <point x="141" y="104" type="curve" smooth="yes"/>
      <point x="129" y="104"/>
      <point x="121" y="96"/>
      <point x="121" y="85" type="curve" smooth="yes"/>
      <point x="121" y="73"/>
      <point x="129" y="65"/>
    </contour>
    <contour>
      <point x="133" y="74" type="curve" smooth="yes"/>
      <point x="131" y="74"/>
      <point x="129" y="76"/>
      <point x="129" y="79" type="curve" smooth="yes"/>
      <point x="129" y="81"/>
      <point x="131" y="83"/>
      <point x="133" y="83" type="curve" smooth="yes"/>
      <point x="135" y="83"/>
      <point x="137" y="81"/>
      <point x="137" y="79" type="curve" smooth="yes"/>
      <point x="137" y="76"/>
      <point x="135" y="74"/>
    </contour>
    <contour>
      <point x="233" y="76" type="line"/>
      <point x="218" y="77"/>
      <point x="202" y="80"/>
      <point x="190" y="84" type="curve"/>
      <point x="190" y="84" type="line"/>
      <point x="202" y="80"/>
      <point x="218" y="77"/>
      <point x="233" y="76" type="curve"/>
    </contour>
    <contour>
      <point x="287" y="77" type="line"/>
      <point x="275" y="75"/>
      <point x="260" y="75"/>
      <point x="245" y="75" type="curve"/>
      <point x="245" y="75" type="line"/>
      <point x="260" y="75"/>
      <point x="275" y="75"/>
      <point x="287" y="77" type="curve"/>
    </contour>
    <contour>
      <point x="345" y="94" type="line"/>
      <point x="327" y="86"/>
      <point x="314" y="82"/>
      <point x="300" y="79" type="curve"/>
      <point x="300" y="79" type="line"/>
      <point x="314" y="82"/>
      <point x="327" y="86"/>
      <point x="345" y="94" type="curve"/>
    </contour>
    <contour>
      <point x="428" y="86" type="line" smooth="yes"/>
      <point x="419" y="102"/>
      <point x="389" y="81"/>
      <point x="404" y="63" type="curve" smooth="yes"/>
      <point x="415" y="50" type="line" smooth="yes"/>
      <point x="425" y="38"/>
      <point x="447" y="53"/>
      <point x="439" y="67" type="curve" smooth="yes"/>
    </contour>
    <contour>
      <point x="205" y="648" type="line"/>
      <point x="235" y="665" type="line"/>
      <point x="229" y="677" type="line" smooth="yes"/>
      <point x="219" y="697"/>
      <point x="182" y="681"/>
      <point x="196" y="661" type="curve" smooth="yes"/>
    </contour>
    <contour>
      <point x="365" y="58" type="line" smooth="yes"/>
      <point x="360" y="85"/>
      <point x="335" y="79"/>
      <point x="340" y="53" type="curve" smooth="yes"/>
      <point x="343" y="38" type="line" smooth="yes"/>
      <point x="346" y="23"/>
      <point x="371" y="30"/>
      <point x="367" y="48" type="curve" smooth="yes"/>
    </contour>
  </outline>
</glyph>
<glyph name="D" format="2">
  <advance width="573"/>
  <unicode hex="0044"/>
  <anchor x="298" y="0" name="bottom"/>
  <anchor x="263" y="700" name="top"/>
  <outline>
    <contour>
      <point x="80" y="45" type="line" smooth="yes"/>
      <point x="80" y="12"/>
      <point x="93" y="0"/>
      <point x="126" y="0" type="curve" smooth="yes"/>
      <point x="238" y="0" type="line" smooth="yes"/>
      <point x="405" y="0"/>
      <point x="528" y="78"/>
      <point x="528" y="358" type="curve" smooth="yes"/>
      <point x="528" y="643"/>
      <point x="405" y="705"/>
      <point x="252" y="705" type="curve" smooth="yes"/>
      <point x="120" y="705" type="line" smooth="yes"/>
      <point x="96" y="705"/>
      <point x="84" y="694"/>
      <point x="84" y="670" type="curve" smooth="yes"/>
    </contour>
    <contour>
      <point x="106" y="51" type="curve" smooth="yes"/>
      <point x="108" y="650" type="line" smooth="yes"/>
      <point x="108" y="669"/>
      <point x="111" y="680"/>
      <point x="131" y="680" type="curve" smooth="yes"/>
      <point x="242" y="680" type="line" smooth="yes"/>
      <point x="382" y="680"/>
      <point x="438" y="622"/>
      <point x="438" y="358" type="curve" smooth="yes"/>
      <point x="438" y="108"/>
      <point x="390" y="25"/>
      <point x="233" y="25" type="curve" smooth="yes"/>
      <point x="126" y="25" type="line" smooth="yes"/>
      <point x="111" y="25"/>
      <point x="106" y="32"/>
    </contour>
    <contour>
      <point x="467" y="251" type="curve" smooth="yes"/>
      <point x="467" y="251"/>
      <point x="467" y="251"/>
      <point x="467" y="251" type="curve" smooth="yes"/>
      <point x="467" y="251"/>
      <point x="467" y="251"/>
      <point x="467" y="251" type="curve" smooth="yes"/>
      <point x="467" y="251"/>
      <point x="467" y="251"/>
      <point x="467" y="251" type="curve" smooth="yes"/>
      <point x="467" y="251"/>
      <point x="467" y="251"/>
    </contour>
    <contour>
      <point x="476" y="144" type="curve" smooth="yes"/>
      <point x="476" y="144"/>
      <point x="476" y="144"/>
      <point x="476" y="144" type="curve" smooth="yes"/>
      <point x="476" y="144"/>
      <point x="476" y="144"/>
      <point x="476" y="144" type="curve" smooth="yes"/>
      <point x="476" y="144"/>
      <point x="476" y="144"/>
      <point x="476" y="144" type="curve" smooth="yes"/>
      <point x="476" y="144"/>
      <point x="476" y="144"/>
    </contour>
    <contour>
      <point x="493" y="387" type="curve" smooth="yes"/>
      <point x="493" y="387"/>
      <point x="493" y="387"/>
      <point x="493" y="387" type="curve" smooth="yes"/>
      <point x="493" y="387"/>
      <point x="493" y="387"/>
      <point x="493" y="387" type="curve" smooth="yes"/>
      <point x="493" y="387"/>
      <point x="493" y="387"/>
      <point x="493" y="387" type="curve" smooth="yes"/>
      <point x="493" y="387"/>
      <point x="493" y="387"/>
    </contour>
    <contour>
      <point x="469" y="518" type="line" smooth="yes"/>
      <point x="446" y="518"/>
      <point x="446" y="483"/>
      <point x="469" y="483" type="curve" smooth="yes"/>
      <point x="481" y="483" type="line" smooth="yes"/>
      <point x="502" y="483"/>
      <point x="502" y="518"/>
      <point x="481" y="518" type="curve" smooth="yes"/>
    </contour>
    <contour>
      <point x="475" y="446" type="line" smooth="yes"/>
      <point x="449" y="446"/>
      <point x="449" y="406"/>
      <point x="475" y="406" type="curve" smooth="yes"/>
      <point x="488" y="406" type="line" smooth="yes"/>
      <point x="511" y="406"/>
      <point x="511" y="446"/>
      <point x="488" y="446" type="curve" smooth="yes"/>
    </contour>
    <contour>
      <point x="97" y="247" type="line" smooth="yes"/>
      <point x="108" y="247"/>
      <point x="108" y="281"/>
      <point x="97" y="281" type="curve" smooth="yes"/>
      <point x="93" y="281" type="line" smooth="yes"/>
      <point x="79" y="281"/>
      <point x="79" y="247"/>
      <point x="93" y="247" type="curve" smooth="yes"/>
    </contour>
    <contour>
      <point x="439" y="567" type="line" smooth="yes"/>
      <point x="422" y="557"/>
      <point x="438" y="529"/>
      <point x="452" y="536" type="curve" smooth="yes"/>
      <point x="474" y="548" type="line" smooth="yes"/>
      <point x="490" y="557"/>
      <point x="478" y="590"/>
      <point x="458" y="578" type="curve" smooth="yes"/>
    </contour>
    <contour>
      <point x="404" y="626" type="line"/>
      <point x="426" y="611" type="line"/>
      <point x="436" y="624" type="line" smooth="yes"/>
      <point x="445" y="635"/>
      <point x="431" y="651"/>
      <point x="419" y="640" type="curve" smooth="yes"/>
    </contour>
  </outline>
</glyph>
<glyph name="E" format="2">
  <advance width="473"/>
  <unicode hex="0045"/>
  <anchor x="246" y="0" name="cedilla"/>
  <anchor x="423" y="0" name="ogonek"/>
  <anchor x="265" y="700" name="top"/>
  <outline>
    <contour>
      <point x="80" y="54" type="line" smooth="yes"/>
      <point x="80" y="20"/>
      <point x="97" y="0"/>
      <point x="133" y="0" type="curve" smooth="yes"/>
      <point x="406" y="-1" type="line" smooth="yes"/>
      <point x="461" y="-1"/>
      <point x="461" y="78"/>
      <point x="406" y="78" type="curve" smooth="yes"/>
      <point x="143" y="78" type="line" smooth="yes"/>
      <point x="118" y="78"/>
      <point x="106" y="87"/>
      <point x="106" y="115" type="curve" smooth="yes"/>
      <point x="106" y="310" type="line" smooth="yes"/>
      <point x="106" y="326"/>
      <point x="113" y="334"/>
      <point x="127" y="334" type="curve" smooth="yes"/>
      <point x="372" y="335" type="line" smooth="yes"/>
      <point x="388" y="335"/>
      <point x="392" y="359"/>
      <point x="372" y="359" type="curve" smooth="yes"/>
      <point x="128" y="359" type="line" smooth="yes"/>
      <point x="114" y="359"/>
      <point x="107" y="366"/>
      <point x="107" y="382" type="curve" smooth="yes"/>
      <point x="107" y="586" type="line" smooth="yes"/>
      <point x="107" y="609"/>
      <point x="119" y="623"/>
      <point x="145" y="623" type="curve" smooth="yes"/>
      <point x="393" y="623" type="line" smooth="yes"/>
      <point x="448" y="623"/>
      <point x="448" y="701"/>
      <point x="393" y="701" type="curve" smooth="yes"/>
      <point x="133" y="701" type="line" smooth="yes"/>
      <point x="100" y="701"/>
      <point x="83" y="680"/>
      <point x="83" y="647" type="curve" smooth="yes"/>
    </contour>
    <contour>
      <point x="293" y="5" type="curve" smooth="yes"/>
      <point x="308" y="5"/>
      <point x="320" y="17"/>
      <point x="320" y="33" type="curve" smooth="yes"/>
      <point x="320" y="48"/>
      <point x="308" y="60"/>
      <point x="293" y="60" type="curve" smooth="yes"/>
      <point x="277" y="60"/>
      <point x="265" y="48"/>
      <point x="265" y="33" type="curve" smooth="yes"/>
      <point x="265" y="17"/>
      <point x="277" y="5"/>
    </contour>
    <contour>
      <point x="285" y="623" type="line"/>
      <point x="285" y="623" type="line"/>
      <point x="300" y="623"/>
      <point x="316" y="623"/>
      <point x="331" y="623" type="curve"/>
      <point x="331" y="623" type="line"/>
    </contour>
    <contour>
      <point x="198" y="623" type="line"/>
      <point x="198" y="623" type="line"/>
      <point x="214" y="623"/>
      <point x="230" y="623"/>
      <point x="246" y="623" type="curve"/>
      <point x="246" y="623" type="line"/>
    </contour>
    <contour>
      <point x="342" y="27" type="line" smooth="yes"/>
      <point x="339" y="3"/>
      <point x="372" y="1"/>
      <point x="374" y="25" type="curve" smooth="yes"/>
      <point x="376" y="48" type="line" smooth="yes"/>
      <point x="378" y="73"/>
      <point x="348" y="75"/>
      <point x="345" y="53" type="curve" smooth="yes"/>
    </contour>
    <contour>
      <point x="235" y="25" type="line" smooth="yes"/>
      <point x="235" y="0"/>
      <point x="272" y="3"/>
      <point x="270" y="28" type="curve" smooth="yes"/>
      <point x="268" y="55" type="line" smooth="yes"/>
      <point x="266" y="76"/>
      <point x="235" y="74"/>
      <point x="235" y="54" type="curve" smooth="yes"/>
    </contour>
    <contour>
      <point x="97" y="522" type="line" smooth="yes"/>
      <point x="87" y="527"/>
      <point x="77" y="492"/>
      <point x="90" y="489" type="curve" smooth="yes"/>
      <point x="94" y="488" type="line" smooth="yes"/>
      <point x="105" y="485"/>
      <point x="111" y="515"/>
      <point x="99" y="521" type="curve" smooth="yes"/>
    </contour>
    <contour>
      <point x="96" y="448" type="line" smooth="yes"/>
      <point x="87" y="451"/>
      <point x="80" y="423"/>
      <point x="88" y="419" type="curve" smooth="yes"/>
      <point x="90" y="418" type="line" smooth="yes"/>
      <point x="99" y="413"/>
      <point x="112" y="443"/>
      <point x="99" y="447" type="curve" smooth="yes"/>
    </contour>
    <contour>
      <point x="202" y="358" type="line"/>
      <point x="171" y="349" type="line"/>
      <point x="174" y="342" type="line" smooth="yes"/>
      <point x="179" y="331"/>
      <point x="209" y="341"/>
      <point x="205" y="351" type="curve" smooth="yes"/>
    </contour>
    <contour>
      <point x="326" y="352" type="line" smooth="yes"/>
      <point x="322" y="361"/>
      <point x="289" y="359"/>
      <point x="292" y="348" type="curve" smooth="yes"/>
      <point x="293" y="344" type="line" smooth="yes"/>
      <point x="296" y="331"/>
      <point x="335" y="334"/>
      <point x="327" y="350" type="curve" smooth="yes"/>
    </contour>
  </outline>
</glyph>
<glyph name="F" format="2">
  <advance width="454"/>
  <unicode hex="0046"/>
  <anchor x="276" y="0" name="bottom"/>
  <anchor x="268" y="700" name="top"/>
  <outline>
    <contour>
      <point x="80" y="12" type="line" smooth="yes"/>
      <point x="80" y="-9"/>
      <point x="105" y="-11"/>
      <point x="105" y="11" type="curve" smooth="yes"/>
      <point x="105" y="284" type="line" smooth="yes"/>
      <point x="105" y="300"/>
      <point x="110" y="304"/>
      <point x="124" y="304" type="curve" smooth="yes"/>
      <point x="366" y="304" type="line" smooth="yes"/>
      <point x="391" y="304"/>
      <point x="405" y="321"/>
      <point x="405" y="343" type="curve"/>
      <point x="405" y="343" type="line"/>
      <point x="405" y="343"/>
      <point x="405" y="343"/>
      <point x="405" y="343" type="curve"/>
      <point x="405" y="343" type="line"/>
      <point x="405" y="366"/>
      <point x="391" y="382"/>
      <point x="366" y="382" type="curve" smooth="yes"/>
      <point x="124" y="382" type="line" smooth="yes"/>
      <point x="110" y="382"/>
      <point x="105" y="386"/>
      <point x="105" y="401" type="curve" smooth="yes"/>
      <point x="105" y="653" type="line" smooth="yes"/>
      <point x="105" y="670"/>
      <point x="113" y="679"/>
      <point x="130" y="679" type="curve" smooth="yes"/>
      <point x="412" y="678" type="line" smooth="yes"/>
      <point x="431" y="678"/>
      <point x="431" y="702"/>
      <point x="412" y="702" type="curve" smooth="yes"/>
      <point x="113" y="702" type="line" smooth="yes"/>
      <point x="92" y="702"/>
      <point x="80" y="690"/>
      <point x="80" y="669" type="curve" smooth="yes"/>
    </contour>
    <contour>
      <point x="80" y="184" type="line"/>
      <point x="80" y="184" type="line"/>
      <point x="80" y="184"/>
      <point x="80" y="135"/>
      <point x="80" y="135" type="curve"/>
      <point x="80" y="135" type="line"/>
    </contour>
    <contour>
      <point x="80" y="94" type="line"/>
      <point x="80" y="94" type="line"/>
      <point x="80" y="94"/>
      <point x="80" y="49"/>
      <point x="80" y="49" type="curve"/>
      <point x="80" y="49" type="line"/>
    </contour>
    <contour>
      <point x="80" y="273" type="line"/>
      <point x="80" y="273" type="line" smooth="yes"/>
      <point x="80" y="273"/>
      <point x="80" y="231"/>
      <point x="80" y="231" type="curve" smooth="yes"/>
      <point x="80" y="231" type="line"/>
    </contour>
    <contour>
      <point x="263" y="689" type="curve" smooth="yes"/>
      <point x="262" y="680" type="line"/>
      <point x="289" y="680" type="line"/>
      <point x="290" y="690" type="line" smooth="yes"/>
      <point x="291" y="703"/>
      <point x="264" y="702"/>
    </contour>
    <contour>
      <point x="93" y="579" type="line" smooth="yes"/>
      <point x="107" y="579"/>
      <point x="110" y="612"/>
      <point x="96" y="612" type="curve" smooth="yes"/>
      <point x="90" y="612" type="line" smooth="yes"/>
      <point x="81" y="612"/>
      <point x="79" y="579"/>
      <point x="88" y="579" type="curve" smooth="yes"/>
    </contour>
    <contour>
      <point x="201" y="691" type="curve" smooth="yes"/>
      <point x="204" y="685" type="line" smooth="yes"/>
      <point x="208" y="677"/>
      <point x="239" y="680"/>
      <point x="233" y="692" type="curve" smooth="yes"/>
      <point x="231" y="696" type="line" smooth="yes"/>
      <point x="227" y="704"/>
      <point x="196" y="700"/>
    </contour>
  </outline>
</glyph>
<glyph name="G" format="2">
  <advance width="553"/>
  <unicode hex="0047"/>
  <anchor x="291" y="0" name="bottom"/>
  <anchor x="295" y="700" name="top"/>
  <outline>
    <contour>
      <point x="45" y="320" type="curve" smooth="yes"/>
      <point x="45" y="80"/>
      <point x="143" y="-11"/>
      <point x="260" y="-11" type="curve" smooth="yes"/>
      <point x="354" y="-11"/>
      <point x="408" y="55"/>
      <point x="429" y="114" type="curve" smooth="yes"/>
      <point x="433" y="126"/>
      <point x="444" y="125"/>
      <point x="444" y="109" type="curve" smooth="yes"/>
      <point x="444" y="11" type="line" smooth="yes"/>
      <point x="444" y="-29"/>
      <point x="509" y="-31"/>
      <point x="509" y="11" type="curve" smooth="yes"/>
      <point x="508" y="301" type="line" smooth="yes"/>
      <point x="508" y="319"/>
      <point x="501" y="324"/>
      <point x="486" y="324" type="curve" smooth="yes"/>
      <point x="287" y="324" type="line" smooth="yes"/>
      <point x="267" y="324"/>
      <point x="267" y="300"/>
      <point x="287" y="300" type="curve" smooth="yes"/>
      <point x="387" y="300" type="line" smooth="yes"/>
      <point x="416" y="300"/>
      <point x="428" y="283"/>
      <point x="428" y="231" type="curve" smooth="yes"/>
      <point x="428" y="88"/>
      <point x="349" y="14"/>
      <point x="261" y="14" type="curve" smooth="yes"/>
      <point x="154" y="14"/>
      <point x="73" y="109"/>
      <point x="73" y="320" type="curve" smooth="yes"/>
      <point x="73" y="584"/>
      <point x="164" y="625"/>
      <point x="263" y="625" type="curve" smooth="yes"/>
      <point x="346" y="625"/>
      <point x="396" y="580"/>
      <point x="438" y="580" type="curve" smooth="yes"/>
      <point x="461" y="580"/>
      <point x="477" y="599"/>
      <point x="477" y="629" type="curve" smooth="yes"/>
      <point x="477" y="672"/>
      <point x="398" y="712"/>
      <point x="303" y="712" type="curve" smooth="yes"/>
      <point x="215" y="712"/>
      <point x="45" y="665"/>
    </contour>
    <contour>
      <point x="201" y="630" type="curve" smooth="yes"/>
      <point x="201" y="630"/>
      <point x="201" y="630"/>
      <point x="201" y="630" type="curve" smooth="yes"/>
      <point x="201" y="630"/>
      <point x="201" y="630"/>
      <point x="201" y="630" type="curve" smooth="yes"/>
      <point x="201" y="630"/>
      <point x="201" y="630"/>
      <point x="201" y="630" type="curve" smooth="yes"/>
      <point x="201" y="630"/>
      <point x="201" y="630"/>
    </contour>
    <contour>
      <point x="252" y="649" type="curve" smooth="yes"/>
      <point x="252" y="649"/>
      <point x="252" y="649"/>
      <point x="252" y="649" type="curve" smooth="yes"/>
      <point x="252" y="649"/>
      <point x="252" y="649"/>
      <point x="252" y="649" type="curve" smooth="yes"/>
      <point x="252" y="649"/>
      <point x="252" y="649"/>
      <point x="252" y="649" type="curve" smooth="yes"/>
      <point x="252" y="649"/>
      <point x="252" y="649"/>
    </contour>
    <contour>
      <point x="122" y="576" type="curve" smooth="yes"/>
      <point x="122" y="576"/>
      <point x="122" y="576"/>
      <point x="122" y="576" type="curve" smooth="yes"/>
      <point x="122" y="576"/>
      <point x="122" y="576"/>
      <point x="122" y="576" type="curve" smooth="yes"/>
      <point x="122" y="576"/>
      <point x="122" y="576"/>
      <point x="122" y="576" type="curve" smooth="yes"/>
      <point x="122" y="576"/>
      <point x="122" y="576"/>
    </contour>
    <contour>
      <point x="469" y="240" type="line" smooth="yes"/>
      <point x="496" y="244"/>
      <point x="497" y="276"/>
      <point x="466" y="274" type="curve" smooth="yes"/>
      <point x="450" y="273" type="line" smooth="yes"/>
      <point x="420" y="271"/>
      <point x="424" y="234"/>
      <point x="455" y="238" type="curve" smooth="yes"/>
    </contour>
    <contour>
      <point x="333" y="302" type="line" smooth="yes"/>
      <point x="344" y="302"/>
      <point x="344" y="322"/>
      <point x="333" y="322" type="curve" smooth="yes"/>
      <point x="290" y="322" type="line" smooth="yes"/>
      <point x="274" y="322"/>
      <point x="274" y="302"/>
      <point x="290" y="302" type="curve" smooth="yes"/>
    </contour>
    <contour>
      <point x="447" y="245" type="curve" smooth="yes"/>
      <point x="453" y="245"/>
      <point x="458" y="249"/>
      <point x="458" y="257" type="curve" smooth="yes"/>
      <point x="458" y="263"/>
      <point x="453" y="268"/>
      <point x="447" y="268" type="curve" smooth="yes"/>
      <point x="439" y="268"/>
      <point x="435" y="263"/>
      <point x="435" y="257" type="curve" smooth="yes"/>
      <point x="435" y="249"/>
      <point x="439" y="245"/>
    </contour>
    <contour>
      <point x="129" y="67" type="line" smooth="yes"/>
      <point x="136" y="76"/>
      <point x="116" y="108"/>
      <point x="105" y="97" type="curve" smooth="yes"/>
      <point x="102" y="94" type="line" smooth="yes"/>
      <point x="91" y="83"/>
      <point x="118" y="53"/>
      <point x="126" y="63" type="curve" smooth="yes"/>
    </contour>
    <contour>
      <point x="219" y="7" type="line" smooth="yes"/>
      <point x="223" y="17"/>
      <point x="192" y="30"/>
      <point x="187" y="21" type="curve" smooth="yes"/>
      <point x="184" y="15" type="line" smooth="yes"/>
      <point x="179" y="4"/>
      <point x="212" y="-10"/>
      <point x="217" y="2" type="curve" smooth="yes"/>
    </contour>
  </outline>
</glyph>
<glyph name="H" format="2">
  <advance width="552"/>
  <unicode hex="0048"/>
  <anchor x="296" y="0" name="bottom"/>
  <anchor x="276" y="700" name="top"/>
  <outline>
    <contour>
      <point x="432" y="308" type="line" smooth="yes"/>
      <point x="442" y="308"/>
      <point x="447" y="304"/>
      <point x="447" y="294" type="curve" smooth="yes"/>
      <point x="447" y="9" type="line" smooth="yes"/>
      <point x="447" y="-10"/>
      <point x="472" y="-10"/>
      <point x="472" y="9" type="curve" smooth="yes"/>
      <point x="472" y="690" type="line" smooth="yes"/>
      <point x="472" y="709"/>
      <point x="447" y="709"/>
      <point x="447" y="690" type="curve" smooth="yes"/>
      <point x="447" y="404" type="line" smooth="yes"/>
      <point x="447" y="394"/>
      <point x="442" y="386"/>
      <point x="432" y="386" type="curve" smooth="yes"/>
      <point x="120" y="386" type="line" smooth="yes"/>
      <point x="110" y="386"/>
      <point x="105" y="394"/>
      <point x="105" y="404" type="curve" smooth="yes"/>
      <point x="105" y="690" type="line" smooth="yes"/>
      <point x="105" y="709"/>
      <point x="80" y="709"/>
      <point x="80" y="690" type="curve" smooth="yes"/>
      <point x="80" y="9" type="line" smooth="yes"/>
      <point x="80" y="-10"/>
      <point x="105" y="-10"/>
      <point x="105" y="9" type="curve" smooth="yes"/>
      <point x="105" y="294" type="line" smooth="yes"/>
      <point x="105" y="304"/>
      <point x="110" y="308"/>
      <point x="120" y="308" type="curve" smooth="yes"/>
    </contour>
    <contour>
      <point x="344" y="308" type="line"/>
      <point x="344" y="308" type="line"/>
      <point x="353" y="308"/>
      <point x="361" y="308"/>
      <point x="370" y="308" type="curve"/>
      <point x="370" y="308" type="line"/>
    </contour>
    <contour>
      <point x="279" y="308" type="line"/>
      <point x="279" y="308" type="line"/>
      <point x="292" y="308"/>
      <point x="306" y="308"/>
      <point x="319" y="308" type="curve"/>
      <point x="319" y="308" type="line"/>
    </contour>
    <contour>
      <point x="236" y="317" type="curve" smooth="yes"/>
      <point x="252" y="317"/>
      <point x="266" y="331"/>
      <point x="266" y="347" type="curve" smooth="yes"/>
      <point x="266" y="363"/>
      <point x="252" y="377"/>
      <point x="236" y="377" type="curve" smooth="yes"/>
      <point x="220" y="377"/>
      <point x="206" y="363"/>
      <point x="206" y="347" type="curve" smooth="yes"/>
      <point x="206" y="331"/>
      <point x="220" y="317"/>
    </contour>
    <contour>
      <point x="237" y="323" type="curve" smooth="yes"/>
      <point x="248" y="323"/>
      <point x="258" y="333"/>
      <point x="258" y="346" type="curve" smooth="yes"/>
      <point x="258" y="358"/>
      <point x="248" y="368"/>
      <point x="237" y="368" type="curve" smooth="yes"/>
      <point x="223" y="368"/>
      <point x="213" y="358"/>
      <point x="213" y="346" type="curve" smooth="yes"/>
      <point x="213" y="333"/>
      <point x="223" y="323"/>
    </contour>
    <contour>
      <point x="236" y="328" type="curve" smooth="yes"/>
      <point x="245" y="328"/>
      <point x="252" y="336"/>
      <point x="252" y="345" type="curve" smooth="yes"/>
      <point x="252" y="354"/>
      <point x="245" y="361"/>
      <point x="236" y="361" type="curve" smooth="yes"/>
      <point x="227" y="361"/>
      <point x="220" y="354"/>
      <point x="220" y="345" type="curve" smooth="yes"/>
      <point x="220" y="336"/>
      <point x="227" y="328"/>
    </contour>
    <contour>
      <point x="460" y="180" type="line" smooth="yes"/>
      <point x="447" y="180"/>
      <point x="447" y="156"/>
      <point x="459" y="156" type="curve" smooth="yes"/>
      <point x="464" y="156" type="line" smooth="yes"/>
      <point x="472" y="156"/>
      <point x="474" y="180"/>
      <point x="463" y="180" type="curve" smooth="yes"/>
    </contour>
    <contour>
      <point x="456" y="96" type="line" smooth="yes"/>
      <point x="444" y="96"/>
      <point x="445" y="74"/>
      <point x="457" y="74" type="curve" smooth="yes"/>
      <point x="462" y="74" type="line" smooth="yes"/>
      <point x="474" y="74"/>
      <point x="474" y="96"/>
      <point x="462" y="96" type="curve" smooth="yes"/>
    </contour>
    <contour>
      <point x="90" y="235" type="line" smooth="yes"/>
      <point x="78" y="235"/>
      <point x="79" y="202"/>
      <point x="88" y="202" type="curve" smooth="yes"/>
      <point x="95" y="202" type="line" smooth="yes"/>
      <point x="107" y="202"/>
      <point x="107" y="235"/>
      <point x="93" y="235" type="curve" smooth="yes"/>
    </contour>
  </outline>
</glyph>
<glyph name="I" format="2">
  <advance width="389"/>
  <unicode hex="0049"/>
  <anchor x="265" y="0" name="ogonek"/>
  <anchor x="195" y="700" name="top"/>
  <outline>
    <contour>
      <point x="68" y="1" type="curve" smooth="yes"/>
      <point x="318" y="0" type="line" smooth="yes"/>
      <point x="373" y="0"/>
      <point x="372" y="82"/>
      <point x="317" y="82" type="curve" smooth="yes"/>
      <point x="230" y="82" type="line" smooth="yes"/>
      <point x="213" y="82"/>
      <point x="207" y="90"/>
      <point x="207" y="106" type="curve" smooth="yes"/>
      <point x="207" y="602" type="line" smooth="yes"/>
      <point x="207" y="617"/>
      <point x="213" y="622"/>
      <point x="228" y="622" type="curve" smooth="yes"/>
      <point x="319" y="622" type="line" smooth="yes"/>
      <point x="373" y="622"/>
      <point x="370" y="700"/>
      <point x="319" y="700" type="curve" smooth="yes"/>
      <point x="68" y="700" type="line" smooth="yes"/>
      <point x="18" y="700"/>
      <point x="20" y="622"/>
      <point x="67" y="622" type="curve" smooth="yes"/>
      <point x="161" y="622" type="line" smooth="yes"/>
      <point x="177" y="622"/>
      <point x="182" y="618"/>
      <point x="182" y="602" type="curve" smooth="yes"/>
      <point x="182" y="106" type="line" smooth="yes"/>
      <point x="182" y="90"/>
      <point x="174" y="83"/>
      <point x="158" y="83" type="curve" smooth="yes"/>
      <point x="69" y="83" type="line" smooth="yes"/>
      <point x="18" y="83"/>
      <point x="17" y="1"/>
    </contour>
    <contour>
      <point x="185" y="516" type="line"/>
      <point x="187" y="489" type="line"/>
      <point x="195" y="490" type="line" smooth="yes"/>
      <point x="210" y="492"/>
      <point x="209" y="516"/>
      <point x="192" y="516" type="curve" smooth="yes"/>
    </contour>
    <contour>
      <point x="181" y="35" type="line" smooth="yes"/>
      <point x="166" y="35"/>
      <point x="166" y="18"/>
      <point x="180" y="18" type="curve" smooth="yes"/>
      <point x="212" y="17" type="line" smooth="yes"/>
      <point x="227" y="17"/>
      <point x="227" y="34"/>
      <point x="213" y="34" type="curve" smooth="yes"/>
    </contour>
    <contour>
      <point x="193" y="311" type="line" smooth="yes"/>
      <point x="182" y="311"/>
      <point x="183" y="290"/>
      <point x="194" y="290" type="curve" smooth="yes"/>
      <point x="203" y="290" type="line"/>
      <point x="202" y="311" type="line"/>
    </contour>
    <contour>
      <point x="190" y="72" type="line" smooth="yes"/>
      <point x="175" y="72"/>
      <point x="176" y="51"/>
      <point x="192" y="51" type="curve" smooth="yes"/>
      <point x="196" y="51" type="line" smooth="yes"/>
      <point x="210" y="51"/>
      <point x="211" y="72"/>
      <point x="196" y="72" type="curve" smooth="yes"/>
    </contour>
    <contour>
      <point x="118" y="700" type="line"/>
      <point x="164" y="700" type="line"/>
      <point x="164" y="700" type="line"/>
      <point x="164" y="700"/>
      <point x="118" y="700"/>
      <point x="118" y="700" type="curve"/>
    </contour>
    <contour>
      <point x="214" y="700" type="line"/>
      <point x="270" y="700" type="line"/>
      <point x="270" y="700" type="line"/>
      <point x="270" y="700"/>
      <point x="214" y="700"/>
      <point x="214" y="700" type="curve"/>
    </contour>
    <contour>
      <point x="286" y="700" type="line"/>
      <point x="312" y="700" type="line"/>
      <point x="312" y="700" type="line"/>
      <point x="312" y="700"/>
      <point x="286" y="700"/>
      <point x="286" y="700" type="curve"/>
    </contour>
    <contour>
      <point x="200" y="0" type="line"/>
      <point x="200" y="0" type="line"/>
      <point x="200" y="0"/>
      <point x="246" y="0"/>
      <point x="246" y="0" type="curve"/>
      <point x="246" y="0" type="line"/>
    </contour>
    <contour>
      <point x="273" y="0" type="line"/>
      <point x="273" y="0" type="line"/>
      <point x="273" y="0"/>
      <point x="311" y="0"/>
      <point x="311" y="0" type="curve"/>
      <point x="311" y="0" type="line"/>
    </contour>
  </outline>
</glyph>
<glyph name="J" format="2">
  <advance width="522"/>
  <unicode hex="004A"/>
  <anchor x="270" y="0" name="bottom"/>
  <anchor x="277" y="700" name="top"/>
  <outline>
    <contour>
      <point x="269" y="-7" type="curve" smooth="yes"/>
      <point x="364" y="-7"/>
      <point x="447" y="53"/>
      <point x="447" y="197" type="curve" smooth="yes"/>
      <point x="447" y="657" type="line" smooth="yes"/>
      <point x="447" y="685"/>
      <point x="436" y="700"/>
      <point x="412" y="700" type="curve" smooth="yes"/>
      <point x="186" y="700" type="line" smooth="yes"/>
      <point x="132" y="700"/>
      <point x="134" y="622"/>
      <point x="187" y="622" type="curve" smooth="yes"/>
      <point x="394" y="622" type="line" smooth="yes"/>
      <point x="411" y="622"/>
      <point x="422" y="604"/>
      <point x="422" y="578" type="curve" smooth="yes"/>
      <point x="423" y="201" type="line" smooth="yes"/>
      <point x="423" y="72"/>
      <point x="350" y="18"/>
      <point x="281" y="18" type="curve" smooth="yes"/>
      <point x="201" y="18"/>
      <point x="153" y="74"/>
      <point x="153" y="233" type="curve" smooth="yes"/>
      <point x="153" y="293"/>
      <point x="64" y="299"/>
      <point x="64" y="233" type="curve" smooth="yes"/>
      <point x="64" y="65"/>
      <point x="165" y="-7"/>
    </contour>
    <contour>
      <point x="381" y="639" type="line" smooth="yes"/>
      <point x="397" y="641"/>
      <point x="392" y="673"/>
      <point x="377" y="673" type="curve" smooth="yes"/>
      <point x="369" y="673" type="line" smooth="yes"/>
      <point x="353" y="673"/>
      <point x="353" y="636"/>
      <point x="372" y="638" type="curve" smooth="yes"/>
    </contour>
    <contour>
      <point x="444" y="550" type="line"/>
      <point x="441" y="580" type="line"/>
      <point x="436" y="579" type="line" smooth="yes"/>
      <point x="422" y="576"/>
      <point x="424" y="548"/>
      <point x="436" y="549" type="curve" smooth="yes"/>
    </contour>
    <contour>
      <point x="438" y="502" type="line" smooth="yes"/>
      <point x="448" y="502"/>
      <point x="448" y="529"/>
      <point x="437" y="529" type="curve" smooth="yes"/>
      <point x="432" y="529" type="line" smooth="yes"/>
      <point x="421" y="529"/>
      <point x="420" y="502"/>
      <point x="433" y="502" type="curve" smooth="yes"/>
    </contour>
    <contour>
      <point x="428" y="490" type="line"/>
      <point x="428" y="463" type="line"/>
      <point x="434" y="463" type="line" smooth="yes"/>
      <point x="447" y="463"/>
      <point x="447" y="490"/>
      <point x="434" y="490" type="curve" smooth="yes"/>
    </contour>
    <contour>
      <point x="107" y="210" type="curve" smooth="yes"/>
      <point x="120" y="210"/>
      <point x="131" y="221"/>
      <point x="131" y="235" type="curve" smooth="yes"/>
      <point x="131" y="248"/>
      <point x="120" y="259"/>
      <point x="107" y="259" type="curve" smooth="yes"/>
      <point x="93" y="259"/>
      <point x="82" y="248"/>
      <point x="82" y="235" type="curve" smooth="yes"/>
      <point x="82" y="221"/>
      <point x="93" y="210"/>
    </contour>
    <contour>
      <point x="106" y="233" type="curve" smooth="yes"/>
      <point x="106" y="233"/>
      <point x="106" y="233"/>
      <point x="106" y="233" type="curve" smooth="yes"/>
      <point x="106" y="233"/>
      <point x="106" y="233"/>
      <point x="106" y="233" type="curve" smooth="yes"/>
      <point x="106" y="233"/>
      <point x="106" y="233"/>
      <point x="106" y="233" type="curve" smooth="yes"/>
      <point x="106" y="233"/>
      <point x="106" y="233"/>
    </contour>
    <contour>
      <point x="100" y="178" type="curve" smooth="yes"/>
      <point x="100" y="178"/>
      <point x="100" y="178"/>
      <point x="100" y="178" type="curve" smooth="yes"/>
      <point x="100" y="178"/>
      <point x="100" y="178"/>
      <point x="100" y="178" type="curve" smooth="yes"/>
      <point x="100" y="178"/>
      <point x="100" y="178"/>
      <point x="100" y="178" type="curve" smooth="yes"/>
      <point x="100" y="178"/>
      <point x="100" y="178"/>
    </contour>
    <contour>
      <point x="125" y="112" type="curve" smooth="yes"/>
      <point x="125" y="112"/>
      <point x="125" y="112"/>
      <point x="125" y="112" type="curve" smooth="yes"/>
      <point x="125" y="112"/>
      <point x="125" y="112"/>
      <point x="125" y="112" type="curve" smooth="yes"/>
      <point x="125" y="112"/>
      <point x="125" y="112"/>
      <point x="125" y="112" type="curve" smooth="yes"/>
      <point x="125" y="112"/>
      <point x="125" y="112"/>
    </contour>
    <contour>
      <point x="159" y="60" type="curve" smooth="yes"/>
      <point x="159" y="60"/>
      <point x="159" y="60"/>
      <point x="159" y="60" type="curve" smooth="yes"/>
      <point x="159" y="60"/>
      <point x="159" y="60"/>
      <point x="159" y="60" type="curve" smooth="yes"/>
      <point x="159" y="60"/>
      <point x="159" y="60"/>
      <point x="159" y="60" type="curve" smooth="yes"/>
      <point x="159" y="60"/>
      <point x="159" y="60"/>
    </contour>
  </outline>
</glyph>
<glyph name="K" format="2">
  <advance width="512"/>
  <unicode hex="004B"/>
  <anchor x="266" y="0" name="bottom"/>
  <anchor x="286" y="700" name="top"/>
  <outline>
    <contour>
      <point x="80" y="6" type="line" smooth="yes"/>
      <point x="80" y="-14"/>
      <point x="105" y="-14"/>
      <point x="105" y="5" type="curve" smooth="yes"/>
      <point x="105" y="257" type="line" smooth="yes"/>
      <point x="105" y="273"/>
      <point x="117" y="276"/>
      <point x="128" y="266" type="curve" smooth="yes"/>
      <point x="442" y="1" type="line" smooth="yes"/>
      <point x="470" y="-23"/>
      <point x="504" y="7"/>
      <point x="504" y="35" type="curve" smooth="yes"/>
      <point x="504" y="44"/>
      <point x="500" y="53"/>
      <point x="492" y="60" type="curve" smooth="yes"/>
      <point x="431" y="111" type="line"/>
      <point x="431" y="111" type="line"/>
      <point x="431" y="111"/>
      <point x="403" y="135"/>
      <point x="403" y="135" type="curve"/>
      <point x="403" y="135" type="line"/>
      <point x="360" y="170" type="line"/>
      <point x="360" y="170" type="line"/>
      <point x="360" y="170"/>
      <point x="329" y="196"/>
      <point x="329" y="196" type="curve"/>
      <point x="329" y="196" type="line"/>
      <point x="172" y="326" type="line" smooth="yes"/>
      <point x="163" y="333"/>
      <point x="161" y="340"/>
      <point x="169" y="350" type="curve" smooth="yes"/>
      <point x="454" y="682" type="line" smooth="yes"/>
      <point x="467" y="698"/>
      <point x="449" y="711"/>
      <point x="437" y="697" type="curve" smooth="yes"/>
      <point x="130" y="342" type="line" smooth="yes"/>
      <point x="119" y="329"/>
      <point x="105" y="332"/>
      <point x="105" y="353" type="curve" smooth="yes"/>
      <point x="105" y="694" type="line" smooth="yes"/>
      <point x="105" y="714"/>
      <point x="80" y="714"/>
      <point x="80" y="696" type="curve" smooth="yes"/>
    </contour>
    <contour>
      <point x="115" y="287" type="curve" smooth="yes"/>
      <point x="123" y="287"/>
      <point x="129" y="293"/>
      <point x="129" y="301" type="curve" smooth="yes"/>
      <point x="129" y="309"/>
      <point x="123" y="315"/>
      <point x="115" y="315" type="curve" smooth="yes"/>
      <point x="107" y="315"/>
      <point x="101" y="309"/>
      <point x="101" y="301" type="curve" smooth="yes"/>
      <point x="101" y="293"/>
      <point x="107" y="287"/>
    </contour>
    <contour>
      <point x="345" y="584" type="line" smooth="yes"/>
      <point x="338" y="588"/>
      <point x="325" y="571"/>
      <point x="335" y="565" type="curve" smooth="yes"/>
      <point x="340" y="562" type="line" smooth="yes"/>
      <point x="348" y="557"/>
      <point x="361" y="575"/>
      <point x="350" y="581" type="curve" smooth="yes"/>
    </contour>
    <contour>
      <point x="303" y="535" type="line" smooth="yes"/>
      <point x="297" y="540"/>
      <point x="285" y="524"/>
      <point x="293" y="518" type="curve" smooth="yes"/>
      <point x="298" y="514" type="line" smooth="yes"/>
      <point x="305" y="509"/>
      <point x="318" y="523"/>
      <point x="308" y="531" type="curve" smooth="yes"/>
    </contour>
    <contour>
      <point x="87" y="177" type="line" smooth="yes"/>
      <point x="79" y="177"/>
      <point x="79" y="153"/>
      <point x="88" y="153" type="curve" smooth="yes"/>
      <point x="97" y="153" type="line" smooth="yes"/>
      <point x="106" y="153"/>
      <point x="106" y="177"/>
      <point x="94" y="177" type="curve" smooth="yes"/>
    </contour>
    <contour>
      <point x="89" y="82" type="line" smooth="yes"/>
      <point x="79" y="82"/>
      <point x="77" y="62"/>
      <point x="89" y="62" type="curve" smooth="yes"/>
      <point x="96" y="62" type="line" smooth="yes"/>
      <point x="108" y="62"/>
      <point x="105" y="82"/>
      <point x="95" y="82" type="curve" smooth="yes"/>
    </contour>
    <contour>
      <point x="93" y="456" type="curve" smooth="yes"/>
      <point x="98" y="456"/>
      <point x="103" y="461"/>
      <point x="103" y="466" type="curve" smooth="yes"/>
      <point x="103" y="472"/>
      <point x="98" y="476"/>
      <point x="93" y="476" type="curve" smooth="yes"/>
      <point x="88" y="476"/>
      <point x="83" y="472"/>
      <point x="83" y="466" type="curve" smooth="yes"/>
      <point x="83" y="461"/>
      <point x="88" y="456"/>
    </contour>
    <contour>
      <point x="94" y="571" type="curve" smooth="yes"/>
      <point x="99" y="571"/>
      <point x="103" y="575"/>
      <point x="103" y="582" type="curve" smooth="yes"/>
      <point x="103" y="587"/>
      <point x="99" y="591"/>
      <point x="94" y="591" type="curve" smooth="yes"/>
      <point x="87" y="591"/>
      <point x="83" y="587"/>
      <point x="83" y="582" type="curve" smooth="yes"/>
      <point x="83" y="575"/>
      <point x="87" y="571"/>
    </contour>
  </outline>
</glyph>
<glyph name="L" format="2">
  <advance width="444"/>
  <unicode hex="004C"/>
  <anchor x="247" y="0" name="bottom"/>
  <anchor x="91" y="700" name="top"/>
  <outline>
    <contour>
      <point x="80" y="51" type="line" smooth="yes"/>
      <point x="80" y="18"/>
      <point x="92" y="0"/>
      <point x="120" y="0" type="curve" smooth="yes"/>
      <point x="396" y="0" type="line" smooth="yes"/>
      <point x="440" y="0"/>
      <point x="439" y="80"/>
      <point x="396" y="80" type="curve" smooth="yes"/>
      <point x="137" y="80" type="line" smooth="yes"/>
      <point x="114" y="80"/>
      <point x="105" y="91"/>
      <point x="105" y="125" type="curve" smooth="yes"/>
      <point x="105" y="688" type="line" smooth="yes"/>
      <point x="105" y="709"/>
      <point x="80" y="709"/>
      <point x="80" y="688" type="curve" smooth="yes"/>
    </contour>
    <contour>
      <point x="100" y="224" type="line"/>
      <point x="100" y="251" type="line"/>
      <point x="92" y="251" type="line" smooth="yes"/>
      <point x="81" y="251"/>
      <point x="81" y="224"/>
      <point x="93" y="224" type="curve" smooth="yes"/>
    </contour>
    <contour>
      <point x="87" y="559" type="line" smooth="yes"/>
      <point x="77" y="557"/>
      <point x="81" y="521"/>
      <point x="92" y="523" type="curve" smooth="yes"/>
      <point x="97" y="524" type="line" smooth="yes"/>
      <point x="105" y="526"/>
      <point x="107" y="562"/>
      <point x="93" y="560" type="curve" smooth="yes"/>
    </contour>
    <contour>
      <point x="87" y="446" type="line"/>
      <point x="86" y="419" type="line"/>
      <point x="94" y="419" type="line" smooth="yes"/>
      <point x="104" y="419"/>
      <point x="105" y="446"/>
      <point x="95" y="446" type="curve" smooth="yes"/>
    </contour>
    <contour>
      <point x="85" y="308" type="line"/>
      <point x="91" y="308" type="line" smooth="yes"/>
      <point x="104" y="308"/>
      <point x="105" y="347"/>
      <point x="89" y="347" type="curve" smooth="yes"/>
      <point x="83" y="347" type="line"/>
    </contour>
    <contour>
      <point x="193" y="80" type="line"/>
      <point x="193" y="80" type="line"/>
      <point x="193" y="80"/>
      <point x="159" y="80"/>
      <point x="159" y="80" type="curve"/>
      <point x="159" y="80" type="line"/>
    </contour>
    <contour>
      <point x="254" y="80" type="line"/>
      <point x="254" y="80" type="line"/>
      <point x="254" y="80"/>
      <point x="206" y="80"/>
      <point x="206" y="80" type="curve"/>
      <point x="206" y="80" type="line"/>
    </contour>
    <contour>
      <point x="330" y="80" type="line"/>
      <point x="330" y="80" type="line"/>
      <point x="330" y="80"/>
      <point x="283" y="80"/>
      <point x="283" y="80" type="curve"/>
      <point x="283" y="80" type="line"/>
    </contour>
  </outline>
</glyph>
<glyph name="M" format="2">
  <advance width="759"/>
  <unicode hex="004D"/>
  <anchor x="328" y="0" name="bottom"/>
  <anchor x="369" y="700" name="top"/>
  <outline>
    <contour>
      <point x="30" y="13" type="line" smooth="yes"/>
      <point x="27" y="-11"/>
      <point x="54" y="-10"/>
      <point x="56" y="8" type="curve" smooth="yes"/>
      <point x="118" y="505" type="line" smooth="yes"/>
      <point x="121" y="533"/>
      <point x="144" y="533"/>
      <point x="153" y="509" type="curve" smooth="yes"/>
      <point x="315" y="53" type="line" smooth="yes"/>
      <point x="329" y="13"/>
      <point x="377" y="15"/>
      <point x="391" y="56" type="curve" smooth="yes"/>
      <point x="548" y="523" type="line" smooth="yes"/>
      <point x="557" y="550"/>
      <point x="580" y="547"/>
      <point x="584" y="518" type="curve" smooth="yes"/>
      <point x="650" y="29" type="line" smooth="yes"/>
      <point x="657" y="-26"/>
      <point x="736" y="-13"/>
      <point x="728" y="41" type="curve" smooth="yes"/>
      <point x="637" y="680" type="line" smooth="yes"/>
      <point x="632" y="715"/>
      <point x="584" y="717"/>
      <point x="574" y="688" type="curve" smooth="yes"/>
      <point x="397" y="155" type="line" smooth="yes"/>
      <point x="388" y="128"/>
      <point x="368" y="127"/>
      <point x="358" y="155" type="curve" smooth="yes"/>
      <point x="173" y="684" type="line" smooth="yes"/>
      <point x="160" y="721"/>
      <point x="112" y="714"/>
      <point x="108" y="680" type="curve" smooth="yes"/>
    </contour>
    <contour>
      <point x="200" y="607" type="line"/>
      <point x="218" y="556" type="line"/>
      <point x="218" y="556" type="line"/>
      <point x="218" y="556"/>
      <point x="200" y="607"/>
      <point x="200" y="607" type="curve"/>
    </contour>
    <contour>
      <point x="229" y="523" type="line"/>
      <point x="246" y="475" type="line"/>
      <point x="246" y="475" type="line"/>
      <point x="246" y="475"/>
      <point x="229" y="523"/>
      <point x="229" y="523" type="curve"/>
    </contour>
    <contour>
      <point x="638" y="528" type="curve" smooth="yes"/>
      <point x="638" y="528"/>
      <point x="638" y="528"/>
      <point x="638" y="528" type="curve" smooth="yes"/>
      <point x="638" y="528"/>
      <point x="638" y="528"/>
      <point x="638" y="528" type="curve" smooth="yes"/>
      <point x="638" y="528"/>
      <point x="638" y="528"/>
      <point x="638" y="528" type="curve" smooth="yes"/>
      <point x="638" y="528"/>
      <point x="638" y="528"/>
    </contour>
    <contour>
      <point x="350" y="61" type="curve" smooth="yes"/>
      <point x="361" y="61"/>
      <point x="371" y="71"/>
      <point x="371" y="84" type="curve" smooth="yes"/>
      <point x="371" y="96"/>
      <point x="361" y="106"/>
      <point x="350" y="106" type="curve" smooth="yes"/>
      <point x="336" y="106"/>
      <point x="326" y="96"/>
      <point x="326" y="84" type="curve" smooth="yes"/>
      <point x="326" y="71"/>
      <point x="336" y="61"/>
    </contour>
    <contour>
      <point x="687" y="123" type="line" smooth="yes"/>
      <point x="713" y="124"/>
      <point x="708" y="165"/>
      <point x="686" y="164" type="curve" smooth="yes"/>
      <point x="656" y="162" type="line" smooth="yes"/>
      <point x="635" y="161"/>
      <point x="639" y="121"/>
      <point x="660" y="122" type="curve" smooth="yes"/>
    </contour>
    <contour>
      <point x="648" y="216" type="curve" smooth="yes"/>
      <point x="674" y="216" type="line" smooth="yes"/>
      <point x="691" y="216"/>
      <point x="693" y="248"/>
      <point x="675" y="247" type="curve" smooth="yes"/>
      <point x="643" y="245" type="line" smooth="yes"/>
      <point x="628" y="244"/>
      <point x="628" y="216"/>
    </contour>
    <contour>
      <point x="60" y="129" type="line" smooth="yes"/>
      <point x="72" y="126"/>
      <point x="74" y="164"/>
      <point x="63" y="166" type="curve" smooth="yes"/>
      <point x="56" y="167" type="line" smooth="yes"/>
      <point x="47" y="168"/>
      <point x="44" y="133"/>
      <point x="56" y="130" type="curve" smooth="yes"/>
    </contour>
    <contour>
      <point x="71" y="257" type="curve" smooth="yes"/>
      <point x="75" y="257" type="line" smooth="yes"/>
      <point x="87" y="257"/>
      <point x="89" y="288"/>
      <point x="76" y="288" type="curve" smooth="yes"/>
      <point x="71" y="288" type="line" smooth="yes"/>
      <point x="61" y="288"/>
      <point x="61" y="257"/>
    </contour>
    <contour>
      <point x="531" y="473" type="line"/>
      <point x="531" y="473" type="line"/>
      <point x="531" y="473"/>
      <point x="543" y="508"/>
      <point x="543" y="508" type="curve"/>
      <point x="543" y="508" type="line"/>
    </contour>
  </outline>
</glyph>
<glyph name="N" format="2">
  <advance width="590"/>
  <unicode hex="004E"/>
  <anchor x="317" y="0" name="bottom"/>
  <anchor x="322" y="700" name="top"/>
  <outline>
    <contour>
      <point x="80" y="30" type="line" smooth="yes"/>
      <point x="80" y="-22"/>
      <point x="159" y="-21"/>
      <point x="159" y="30" type="curve" smooth="yes"/>
      <point x="160" y="631" type="line" smooth="yes"/>
      <point x="160" y="649"/>
      <point x="174" y="652"/>
      <point x="182" y="633" type="curve" smooth="yes"/>
      <point x="442" y="18" type="line" smooth="yes"/>
      <point x="456" y="-16"/>
      <point x="510" y="-17"/>
      <point x="510" y="35" type="curve" smooth="yes"/>
      <point x="510" y="692" type="line" smooth="yes"/>
      <point x="510" y="713"/>
      <point x="485" y="713"/>
      <point x="485" y="693" type="curve" smooth="yes"/>
      <point x="485" y="43" type="line" smooth="yes"/>
      <point x="485" y="28"/>
      <point x="469" y="26"/>
      <point x="463" y="40" type="curve" smooth="yes"/>
      <point x="196" y="675" type="line" smooth="yes"/>
      <point x="173" y="730"/>
      <point x="80" y="719"/>
      <point x="80" y="650" type="curve" smooth="yes"/>
    </contour>
    <contour>
      <point x="495" y="626" type="line" smooth="yes"/>
      <point x="484" y="626"/>
      <point x="484" y="609"/>
      <point x="495" y="609" type="curve" smooth="yes"/>
      <point x="500" y="609" type="line" smooth="yes"/>
      <point x="511" y="609"/>
      <point x="511" y="626"/>
      <point x="500" y="626" type="curve" smooth="yes"/>
    </contour>
    <contour>
      <point x="494" y="509" type="line" smooth="yes"/>
      <point x="487" y="509"/>
      <point x="487" y="493"/>
      <point x="494" y="493" type="curve" smooth="yes"/>
      <point x="499" y="493" type="line" smooth="yes"/>
      <point x="507" y="493"/>
      <point x="507" y="509"/>
      <point x="499" y="509" type="curve" smooth="yes"/>
    </contour>
    <contour>
      <point x="492" y="412" type="line" smooth="yes"/>
      <point x="485" y="412"/>
      <point x="485" y="396"/>
      <point x="492" y="396" type="curve" smooth="yes"/>
      <point x="501" y="396" type="line" smooth="yes"/>
      <point x="509" y="396"/>
      <point x="509" y="412"/>
      <point x="501" y="412" type="curve" smooth="yes"/>
    </contour>
    <contour>
      <point x="80" y="321" type="line"/>
      <point x="80" y="321" type="line"/>
      <point x="80" y="321"/>
      <point x="80" y="271"/>
      <point x="80" y="271" type="curve"/>
      <point x="80" y="271" type="line"/>
    </contour>
    <contour>
      <point x="80" y="238" type="line"/>
      <point x="80" y="238" type="line"/>
      <point x="80" y="238"/>
      <point x="80" y="194"/>
      <point x="80" y="194" type="curve"/>
      <point x="80" y="194" type="line"/>
    </contour>
    <contour>
      <point x="80" y="174" type="line"/>
      <point x="80" y="174" type="line"/>
      <point x="80" y="174"/>
      <point x="80" y="124"/>
      <point x="80" y="124" type="curve"/>
      <point x="80" y="124" type="line"/>
    </contour>
    <contour>
      <point x="480" y="0" type="curve" smooth="yes"/>
      <point x="487" y="0"/>
      <point x="493" y="6"/>
      <point x="493" y="14" type="curve" smooth="yes"/>
      <point x="493" y="21"/>
      <point x="487" y="27"/>
      <point x="480" y="27" type="curve" smooth="yes"/>
      <point x="472" y="27"/>
      <point x="466" y="21"/>
      <point x="466" y="14" type="curve" smooth="yes"/>
      <point x="466" y="6"/>
      <point x="472" y="0"/>
    </contour>
    <contour>
      <point x="159" y="659" type="curve" smooth="yes"/>
      <point x="167" y="659"/>
      <point x="174" y="666"/>
      <point x="174" y="675" type="curve" smooth="yes"/>
      <point x="174" y="683"/>
      <point x="167" y="690"/>
      <point x="159" y="690" type="curve" smooth="yes"/>
      <point x="150" y="690"/>
      <point x="143" y="683"/>
      <point x="143" y="675" type="curve" smooth="yes"/>
      <point x="143" y="666"/>
      <point x="150" y="659"/>
    </contour>
    <contour>
      <point x="278" y="436" type="line" smooth="yes"/>
      <point x="265" y="427"/>
      <point x="282" y="405"/>
      <point x="291" y="410" type="curve" smooth="yes"/>
      <point x="300" y="415" type="line"/>
      <point x="286" y="442" type="line"/>
    </contour>
    <contour>
      <point x="306" y="362" type="line" smooth="yes"/>
      <point x="298" y="358"/>
      <point x="309" y="333"/>
      <point x="318" y="338" type="curve" smooth="yes"/>
      <point x="326" y="343" type="line" smooth="yes"/>
      <point x="334" y="348"/>
      <point x="323" y="372"/>
      <point x="313" y="366" type="curve" smooth="yes"/>
    </contour>
  </outline>
</glyph>
<glyph name="O" format="2">
  <advance width="589"/>
  <unicode hex="004F"/>
  <anchor x="292" y="0" name="bottom"/>
  <anchor x="302" y="700" name="top"/>
  <outline>
    <contour>
      <point x="293" y="-12" type="curve" smooth="yes"/>
      <point x="444" y="-12"/>
      <point x="544" y="93"/>
      <point x="544" y="347" type="curve" smooth="yes"/>
      <point x="544" y="597"/>
      <point x="448" y="711"/>
      <point x="304" y="711" type="curve" smooth="yes"/>
      <point x="141" y="711"/>
      <point x="45" y="595"/>
      <point x="45" y="347" type="curve" smooth="yes"/>
      <point x="45" y="102"/>
      <point x="136" y="-12"/>
    </contour>
    <contour>
      <point x="308" y="12" type="curve" smooth="yes"/>
      <point x="199" y="12"/>
      <point x="136" y="125"/>
      <point x="136" y="347" type="curve" smooth="yes"/>
      <point x="136" y="572"/>
      <point x="201" y="687"/>
      <point x="314" y="687" type="curve" smooth="yes"/>
      <point x="413" y="687"/>
      <point x="517" y="594"/>
      <point x="517" y="347" type="curve" smooth="yes"/>
      <point x="517" y="105"/>
      <point x="413" y="12"/>
    </contour>
    <contour>
      <point x="454" y="67" type="curve" smooth="yes"/>
      <point x="454" y="67"/>
      <point x="454" y="67"/>
      <point x="454" y="67" type="curve" smooth="yes"/>
      <point x="454" y="67"/>
      <point x="454" y="67"/>
      <point x="454" y="67" type="curve" smooth="yes"/>
      <point x="454" y="67"/>
      <point x="454" y="67"/>
      <point x="454" y="67" type="curve" smooth="yes"/>
      <point x="454" y="67"/>
      <point x="454" y="67"/>
    </contour>
    <contour>
      <point x="380" y="16" type="curve" smooth="yes"/>
      <point x="380" y="16"/>
      <point x="380" y="16"/>
      <point x="380" y="16" type="curve" smooth="yes"/>
      <point x="380" y="16"/>
      <point x="380" y="16"/>
      <point x="380" y="16" type="curve" smooth="yes"/>
      <point x="380" y="16"/>
      <point x="380" y="16"/>
      <point x="380" y="16" type="curve" smooth="yes"/>
      <point x="380" y="16"/>
      <point x="380" y="16"/>
    </contour>
    <contour>
      <point x="309" y="0" type="curve" smooth="yes"/>
      <point x="309" y="0"/>
      <point x="309" y="0"/>
      <point x="309" y="0" type="curve" smooth="yes"/>
      <point x="309" y="0"/>
      <point x="309" y="0"/>
      <point x="309" y="0" type="curve" smooth="yes"/>
      <point x="309" y="0"/>
      <point x="309" y="0"/>
      <point x="309" y="0" type="curve" smooth="yes"/>
      <point x="309" y="0"/>
      <point x="309" y="0"/>
    </contour>
    <contour>
      <point x="203" y="23" type="line" smooth="yes"/>
      <point x="216" y="41"/>
      <point x="188" y="57"/>
      <point x="176" y="40" type="curve" smooth="yes"/>
      <point x="174" y="37" type="line" smooth="yes"/>
      <point x="164" y="22"/>
      <point x="190" y="5"/>
      <point x="200" y="19" type="curve" smooth="yes"/>
    </contour>
    <contour>
      <point x="514" y="177" type="line" smooth="yes"/>
      <point x="500" y="191"/>
      <point x="483" y="161"/>
      <point x="498" y="153" type="curve" smooth="yes"/>
      <point x="500" y="152" type="line" smooth="yes"/>
      <point x="511" y="146"/>
      <point x="525" y="166"/>
      <point x="516" y="175" type="curve" smooth="yes"/>
    </contour>
    <contour>
      <point x="532" y="404" type="line" smooth="yes"/>
      <point x="517" y="409"/>
      <point x="516" y="383"/>
      <point x="527" y="379" type="curve" smooth="yes"/>
      <point x="530" y="378" type="line" smooth="yes"/>
      <point x="542" y="374"/>
      <point x="547" y="399"/>
      <point x="535" y="403" type="curve" smooth="yes"/>
    </contour>
    <contour>
      <point x="501" y="545" type="line" smooth="yes"/>
      <point x="487" y="542"/>
      <point x="494" y="515"/>
      <point x="506" y="520" type="curve" smooth="yes"/>
      <point x="511" y="522" type="line" smooth="yes"/>
      <point x="522" y="526"/>
      <point x="518" y="549"/>
      <point x="505" y="546" type="curve" smooth="yes"/>
    </contour>
    <contour>
      <point x="149" y="63" type="line" smooth="yes"/>
      <point x="142" y="53"/>
      <point x="168" y="32"/>
      <point x="174" y="43" type="curve" smooth="yes"/>
      <point x="179" y="52" type="line" smooth="yes"/>
      <point x="185" y="63"/>
      <point x="163" y="83"/>
      <point x="154" y="70" type="curve" smooth="yes"/>
    </contour>
    <contour>
      <point x="478" y="97" type="line" smooth="yes"/>
      <point x="468" y="107"/>
      <point x="453" y="94"/>
      <point x="460" y="84" type="curve" smooth="yes"/>
      <point x="463" y="80" type="line" smooth="yes"/>
      <point x="472" y="69"/>
      <point x="492" y="83"/>
      <point x="482" y="93" type="curve" smooth="yes"/>
    </contour>
    <contour>
      <point x="531" y="368" type="line" smooth="yes"/>
      <point x="518" y="371"/>
      <point x="513" y="342"/>
      <point x="526" y="339" type="curve" smooth="yes"/>
      <point x="531" y="338" type="line" smooth="yes"/>
      <point x="544" y="335"/>
      <point x="548" y="365"/>
      <point x="536" y="367" type="curve" smooth="yes"/>
    </contour>
    <contour>
      <point x="508" y="501" type="line" smooth="yes"/>
      <point x="500" y="497"/>
      <point x="505" y="479"/>
      <point x="514" y="482" type="curve" smooth="yes"/>
      <point x="525" y="486" type="line" smooth="yes"/>
      <point x="533" y="489"/>
      <point x="528" y="511"/>
      <point x="516" y="505" type="curve" smooth="yes"/>
    </contour>
    <contour>
      <point x="520" y="239" type="curve" smooth="yes"/>
      <point x="515" y="239"/>
      <point x="511" y="234"/>
      <point x="511" y="229" type="curve" smooth="yes"/>
      <point x="511" y="224"/>
      <point x="515" y="221"/>
      <point x="520" y="221" type="curve" smooth="yes"/>
      <point x="525" y="221"/>
      <point x="529" y="224"/>
      <point x="529" y="229" type="curve" smooth="yes"/>
      <point x="529" y="234"/>
      <point x="525" y="239"/>
    </contour>
  </outline>
</glyph>
<glyph name="P" format="2">
  <advance width="514"/>
  <unicode hex="0050"/>
  <anchor x="116" y="0" name="bottom"/>
  <anchor x="286" y="700" name="top"/>
  <outline>
    <contour>
      <point x="161" y="670"/>
      <point x="172" y="677"/>
      <point x="193" y="677" type="curve" smooth="yes"/>
      <point x="299" y="677" type="line" smooth="yes"/>
      <point x="391" y="677"/>
      <point x="461" y="608"/>
      <point x="461" y="481" type="curve" smooth="yes"/>
      <point x="461" y="349"/>
      <point x="390" y="289"/>
      <point x="307" y="289" type="curve" smooth="yes"/>
      <point x="186" y="289" type="line" smooth="yes"/>
      <point x="168" y="289"/>
      <point x="161" y="296"/>
      <point x="161" y="317" type="curve" smooth="yes"/>
      <point x="161" y="649" type="line" smooth="yes"/>
    </contour>
    <contour>
      <point x="80" y="12" type="line" smooth="yes"/>
      <point x="80" y="-10"/>
      <point x="106" y="-11"/>
      <point x="106" y="12" type="curve" smooth="yes"/>
      <point x="105" y="234" type="line" smooth="yes"/>
      <point x="105" y="255"/>
      <point x="111" y="266"/>
      <point x="130" y="266" type="curve" smooth="yes"/>
      <point x="302" y="266" type="line" smooth="yes"/>
      <point x="404" y="266"/>
      <point x="486" y="331"/>
      <point x="486" y="480" type="curve" smooth="yes"/>
      <point x="486" y="641"/>
      <point x="396" y="700"/>
      <point x="302" y="700" type="curve" smooth="yes"/>
      <point x="114" y="700" type="line" smooth="yes"/>
      <point x="90" y="700"/>
      <point x="81" y="692"/>
      <point x="81" y="668" type="curve" smooth="yes"/>
    </contour>
    <contour>
      <point x="143" y="612" type="curve" smooth="yes"/>
      <point x="136" y="619" type="line" smooth="yes"/>
      <point x="121" y="634"/>
      <point x="93" y="606"/>
      <point x="110" y="593" type="curve" smooth="yes"/>
      <point x="119" y="586" type="line" smooth="yes"/>
      <point x="135" y="573"/>
      <point x="158" y="597"/>
    </contour>
    <contour>
      <point x="135" y="502" type="curve" smooth="yes"/>
      <point x="123" y="504" type="line" smooth="yes"/>
      <point x="99" y="508"/>
      <point x="92" y="473"/>
      <point x="118" y="469" type="curve" smooth="yes"/>
      <point x="131" y="467" type="line" smooth="yes"/>
      <point x="155" y="463"/>
      <point x="159" y="498"/>
    </contour>
    <contour>
      <point x="94" y="224" type="curve" smooth="yes"/>
      <point x="94" y="224"/>
      <point x="94" y="224"/>
      <point x="94" y="224" type="curve" smooth="yes"/>
      <point x="94" y="224"/>
      <point x="94" y="224"/>
      <point x="94" y="224" type="curve" smooth="yes"/>
      <point x="94" y="224"/>
      <point x="94" y="224"/>
      <point x="94" y="224" type="curve" smooth="yes"/>
      <point x="94" y="224"/>
      <point x="94" y="224"/>
    </contour>
    <contour>
      <point x="94" y="268" type="curve" smooth="yes"/>
      <point x="94" y="268"/>
      <point x="94" y="268"/>
      <point x="94" y="268" type="curve" smooth="yes"/>
      <point x="94" y="268"/>
      <point x="94" y="268"/>
      <point x="94" y="268" type="curve" smooth="yes"/>
      <point x="94" y="268"/>
      <point x="94" y="268"/>
      <point x="94" y="268" type="curve" smooth="yes"/>
      <point x="94" y="268"/>
      <point x="94" y="268"/>
    </contour>
    <contour>
      <point x="139" y="565" type="curve" smooth="yes"/>
      <point x="103" y="567" type="line" smooth="yes"/>
      <point x="80" y="568"/>
      <point x="80" y="528"/>
      <point x="103" y="530" type="curve" smooth="yes"/>
      <point x="139" y="533" type="line" smooth="yes"/>
      <point x="162" y="535"/>
      <point x="167" y="563"/>
    </contour>
    <contour>
      <point x="129" y="452" type="curve" smooth="yes"/>
      <point x="103" y="450" type="line" smooth="yes"/>
      <point x="81" y="448"/>
      <point x="84" y="413"/>
      <point x="106" y="417" type="curve" smooth="yes"/>
      <point x="133" y="422" type="line" smooth="yes"/>
      <point x="154" y="426"/>
      <point x="153" y="454"/>
    </contour>
    <contour>
      <point x="415" y="655" type="curve" smooth="yes"/>
      <point x="410" y="650" type="line" smooth="yes"/>
      <point x="403" y="643"/>
      <point x="423" y="618"/>
      <point x="430" y="624" type="curve" smooth="yes"/>
      <point x="435" y="628" type="line" smooth="yes"/>
      <point x="445" y="636"/>
      <point x="423" y="663"/>
    </contour>
  </outline>
</glyph>
<glyph name="Q" format="2">
  <advance width="589"/>
  <unicode hex="0051"/>
  <anchor x="293" y="0" name="bottom"/>
  <anchor x="299" y="700" name="top"/>
  <outline>
    <contour>
      <point x="205" y="2" type="curve" smooth="yes"/>
      <point x="509" y="-162" type="line" smooth="yes"/>
      <point x="523" y="-170"/>
      <point x="537" y="-144"/>
      <point x="519" y="-135" type="curve" smooth="yes"/>
      <point x="327" y="-34" type="line" smooth="yes"/>
      <point x="312" y="-26"/>
      <point x="316" y="-15"/>
      <point x="329" y="-12" type="curve" smooth="yes"/>
      <point x="478" y="25"/>
      <point x="544" y="138"/>
      <point x="544" y="347" type="curve" smooth="yes"/>
      <point x="544" y="595"/>
      <point x="448" y="711"/>
      <point x="285" y="711" type="curve" smooth="yes"/>
      <point x="141" y="711"/>
      <point x="45" y="597"/>
      <point x="45" y="347" type="curve" smooth="yes"/>
      <point x="45" y="116"/>
      <point x="119" y="48"/>
    </contour>
    <contour>
      <point x="281" y="12" type="curve" smooth="yes"/>
      <point x="176" y="12"/>
      <point x="72" y="109"/>
      <point x="72" y="347" type="curve" smooth="yes"/>
      <point x="72" y="594"/>
      <point x="176" y="687"/>
      <point x="275" y="687" type="curve" smooth="yes"/>
      <point x="388" y="687"/>
      <point x="453" y="572"/>
      <point x="453" y="347" type="curve" smooth="yes"/>
      <point x="453" y="125"/>
      <point x="390" y="12"/>
    </contour>
    <contour>
      <point x="334" y="694" type="curve" smooth="yes"/>
      <point x="334" y="694"/>
      <point x="334" y="694"/>
      <point x="334" y="694" type="curve" smooth="yes"/>
      <point x="334" y="694"/>
      <point x="334" y="694"/>
      <point x="334" y="694" type="curve" smooth="yes"/>
      <point x="334" y="694"/>
      <point x="334" y="694"/>
      <point x="334" y="694" type="curve" smooth="yes"/>
      <point x="334" y="694"/>
      <point x="334" y="694"/>
    </contour>
    <contour>
      <point x="397" y="659" type="curve" smooth="yes"/>
      <point x="397" y="659"/>
      <point x="397" y="659"/>
      <point x="397" y="659" type="curve" smooth="yes"/>
      <point x="397" y="659"/>
      <point x="397" y="659"/>
      <point x="397" y="659" type="curve" smooth="yes"/>
      <point x="397" y="659"/>
      <point x="397" y="659"/>
      <point x="397" y="659" type="curve" smooth="yes"/>
      <point x="397" y="659"/>
      <point x="397" y="659"/>
    </contour>
    <contour>
      <point x="509" y="492" type="curve" smooth="yes"/>
      <point x="509" y="492"/>
      <point x="509" y="492"/>
      <point x="509" y="492" type="curve" smooth="yes"/>
      <point x="509" y="492"/>
      <point x="509" y="492"/>
      <point x="509" y="492" type="curve" smooth="yes"/>
      <point x="509" y="492"/>
      <point x="509" y="492"/>
      <point x="509" y="492" type="curve" smooth="yes"/>
      <point x="509" y="492"/>
      <point x="509" y="492"/>
    </contour>
    <contour>
      <point x="187" y="672" type="curve" smooth="yes"/>
      <point x="185" y="676" type="line" smooth="yes"/>
      <point x="180" y="686"/>
      <point x="160" y="675"/>
      <point x="164" y="668" type="curve" smooth="yes"/>
      <point x="167" y="662" type="line" smooth="yes"/>
      <point x="170" y="656"/>
      <point x="190" y="666"/>
    </contour>
    <contour>
      <point x="94" y="546" type="curve" smooth="yes"/>
      <point x="90" y="549" type="line" smooth="yes"/>
      <point x="81" y="556"/>
      <point x="67" y="527"/>
      <point x="75" y="522" type="curve" smooth="yes"/>
      <point x="80" y="519" type="line" smooth="yes"/>
      <point x="87" y="515"/>
      <point x="103" y="539"/>
    </contour>
    <contour>
      <point x="492" y="505" type="curve" smooth="yes"/>
      <point x="470" y="497" type="line" smooth="yes"/>
      <point x="443" y="487"/>
      <point x="462" y="454"/>
      <point x="485" y="462" type="curve" smooth="yes"/>
      <point x="507" y="470" type="line" smooth="yes"/>
      <point x="537" y="481"/>
      <point x="524" y="517"/>
    </contour>
    <contour>
      <point x="511" y="370" type="curve" smooth="yes"/>
      <point x="482" y="372" type="line" smooth="yes"/>
      <point x="450" y="374"/>
      <point x="446" y="340"/>
      <point x="478" y="337" type="curve" smooth="yes"/>
      <point x="509" y="334" type="line" smooth="yes"/>
      <point x="533" y="332"/>
      <point x="537" y="368"/>
    </contour>
    <contour>
      <point x="385" y="-85" type="curve" smooth="yes"/>
      <point x="388" y="-80" type="line" smooth="yes"/>
      <point x="393" y="-71"/>
      <point x="359" y="-53"/>
      <point x="352" y="-63" type="curve" smooth="yes"/>
      <point x="350" y="-66" type="line" smooth="yes"/>
      <point x="345" y="-74"/>
      <point x="381" y="-91"/>
    </contour>
    <contour>
      <point x="499" y="-144" type="curve" smooth="yes"/>
      <point x="501" y="-140" type="line" smooth="yes"/>
      <point x="507" y="-128"/>
      <point x="476" y="-113"/>
      <point x="473" y="-120" type="curve" smooth="yes"/>
      <point x="471" y="-124" type="line" smooth="yes"/>
      <point x="464" y="-137"/>
      <point x="495" y="-152"/>
    </contour>
  </outline>
</glyph>
<glyph name="R" format="2">
  <advance width="509"/>
  <unicode hex="0052"/>
  <anchor x="238" y="0" name="bottom"/>
  <anchor x="235" y="700" name="top"/>
  <outline>
    <contour>
      <point x="60" y="8" type="line" smooth="yes"/>
      <point x="60" y="-11"/>
      <point x="85" y="-11"/>
      <point x="85" y="8" type="curve" smooth="yes"/>
      <point x="85" y="271" type="line" smooth="yes"/>
      <point x="85" y="287"/>
      <point x="93" y="295"/>
      <point x="108" y="295" type="curve" smooth="yes"/>
      <point x="198" y="295" type="line" smooth="yes"/>
      <point x="219" y="295"/>
      <point x="231" y="287"/>
      <point x="241" y="269" type="curve" smooth="yes"/>
      <point x="390" y="7" type="line" smooth="yes"/>
      <point x="410" y="-28"/>
      <point x="466" y="-10"/>
      <point x="466" y="24" type="curve" smooth="yes"/>
      <point x="466" y="32"/>
      <point x="464" y="39"/>
      <point x="460" y="47" type="curve" smooth="yes"/>
      <point x="333" y="266" type="line" smooth="yes"/>
      <point x="329" y="273"/>
      <point x="326" y="280"/>
      <point x="326" y="288" type="curve" smooth="yes"/>
      <point x="326" y="298"/>
      <point x="332" y="303"/>
      <point x="347" y="308" type="curve" smooth="yes"/>
      <point x="412" y="330"/>
      <point x="460" y="377"/>
      <point x="460" y="492" type="curve" smooth="yes"/>
      <point x="460" y="640"/>
      <point x="386" y="699"/>
      <point x="281" y="699" type="curve" smooth="yes"/>
      <point x="98" y="699" type="line" smooth="yes"/>
      <point x="74" y="699"/>
      <point x="60" y="684"/>
      <point x="60" y="661" type="curve" smooth="yes"/>
    </contour>
    <contour>
      <point x="85" y="339" type="curve" smooth="yes"/>
      <point x="85" y="588" type="line" smooth="yes"/>
      <point x="85" y="613"/>
      <point x="96" y="621"/>
      <point x="118" y="621" type="curve" smooth="yes"/>
      <point x="285" y="621" type="line" smooth="yes"/>
      <point x="383" y="621"/>
      <point x="432" y="563"/>
      <point x="432" y="478" type="curve" smooth="yes"/>
      <point x="432" y="388"/>
      <point x="376" y="320"/>
      <point x="287" y="320" type="curve" smooth="yes"/>
      <point x="108" y="320" type="line" smooth="yes"/>
      <point x="93" y="320"/>
      <point x="85" y="328"/>
    </contour>
    <contour>
      <point x="450" y="64" type="line"/>
      <point x="450" y="64" type="line"/>
      <point x="450" y="64"/>
      <point x="436" y="88"/>
      <point x="436" y="88" type="curve"/>
      <point x="436" y="88" type="line"/>
    </contour>
    <contour>
      <point x="423" y="110" type="line"/>
      <point x="423" y="110" type="line"/>
      <point x="423" y="110"/>
      <point x="410" y="132"/>
      <point x="410" y="132" type="curve"/>
      <point x="410" y="132" type="line"/>
    </contour>
    <contour>
      <point x="305" y="201" type="curve" smooth="yes"/>
      <point x="324" y="201"/>
      <point x="338" y="216"/>
      <point x="338" y="233" type="curve" smooth="yes"/>
      <point x="338" y="252"/>
      <point x="324" y="266"/>
      <point x="305" y="266" type="curve" smooth="yes"/>
      <point x="288" y="266"/>
      <point x="273" y="252"/>
      <point x="273" y="233" type="curve" smooth="yes"/>
      <point x="273" y="216"/>
      <point x="288" y="201"/>
    </contour>
    <contour>
      <point x="74" y="20" type="line" smooth="yes"/>
      <point x="87" y="20"/>
      <point x="87" y="47"/>
      <point x="75" y="47" type="curve" smooth="yes"/>
      <point x="70" y="47" type="line" smooth="yes"/>
      <point x="58" y="47"/>
      <point x="60" y="20"/>
      <point x="69" y="20" type="curve" smooth="yes"/>
    </contour>
    <contour>
      <point x="73" y="117" type="line" smooth="yes"/>
      <point x="88" y="117"/>
      <point x="86" y="146"/>
      <point x="74" y="146" type="curve" smooth="yes"/>
      <point x="71" y="146" type="line" smooth="yes"/>
      <point x="58" y="146"/>
      <point x="59" y="117"/>
      <point x="68" y="117" type="curve" smooth="yes"/>
    </contour>
  </outline>
</glyph>
<glyph name="S" format="2">
  <advance width="489"/>
  <unicode hex="0053"/>
  <anchor x="240" y="0" name="bottom"/>
  <anchor x="234" y="0" name="cedilla"/>
  <anchor x="249" y="700" name="top"/>
  <outline>
    <contour>
      <point x="244" y="-12" type="curve" smooth="yes"/>
      <point x="373" y="-12"/>
      <point x="449" y="60"/>
      <point x="449" y="178" type="curve" smooth="yes"/>
      <point x="449" y="260"/>
      <point x="388" y="318"/>
      <point x="307" y="348" type="curve" smooth="yes"/>
      <point x="192" y="390" type="line" smooth="yes"/>
      <point x="126" y="414"/>
      <point x="84" y="449"/>
      <point x="84" y="522" type="curve" smooth="yes"/>
      <point x="84" y="594"/>
      <point x="131" y="636"/>
      <point x="224" y="636" type="curve" smooth="yes"/>
      <point x="300" y="636"/>
      <point x="322" y="589"/>
      <point x="375" y="589" type="curve" smooth="yes"/>
      <point x="399" y="589"/>
      <point x="413" y="604"/>
      <point x="413" y="627" type="curve" smooth="yes"/>
      <point x="413" y="669"/>
      <point x="334" y="709"/>
      <point x="253" y="709" type="curve" smooth="yes"/>
      <point x="135" y="709"/>
      <point x="57" y="632"/>
      <point x="57" y="528" type="curve" smooth="yes"/>
      <point x="57" y="425"/>
      <point x="120" y="390"/>
      <point x="181" y="368" type="curve" smooth="yes"/>
      <point x="298" y="325" type="line" smooth="yes"/>
      <point x="372" y="298"/>
      <point x="422" y="247"/>
      <point x="422" y="179" type="curve" smooth="yes"/>
      <point x="422" y="106"/>
      <point x="373" y="61"/>
      <point x="271" y="61" type="curve" smooth="yes"/>
      <point x="151" y="61"/>
      <point x="121" y="121"/>
      <point x="80" y="121" type="curve" smooth="yes"/>
      <point x="60" y="121"/>
      <point x="48" y="108"/>
      <point x="48" y="88" type="curve" smooth="yes"/>
      <point x="48" y="40"/>
      <point x="131" y="-12"/>
    </contour>
    <contour>
      <point x="428" y="122" type="curve" smooth="yes"/>
      <point x="428" y="122"/>
      <point x="428" y="122"/>
      <point x="428" y="122" type="curve" smooth="yes"/>
      <point x="428" y="122"/>
      <point x="428" y="122"/>
      <point x="428" y="122" type="curve" smooth="yes"/>
      <point x="428" y="122"/>
      <point x="428" y="122"/>
      <point x="428" y="122" type="curve" smooth="yes"/>
      <point x="428" y="122"/>
      <point x="428" y="122"/>
    </contour>
    <contour>
      <point x="437" y="161" type="curve" smooth="yes"/>
      <point x="437" y="161"/>
      <point x="437" y="161"/>
      <point x="437" y="161" type="curve" smooth="yes"/>
      <point x="437" y="161"/>
      <point x="437" y="161"/>
      <point x="437" y="161" type="curve" smooth="yes"/>
      <point x="437" y="161"/>
      <point x="437" y="161"/>
      <point x="437" y="161" type="curve" smooth="yes"/>
      <point x="437" y="161"/>
      <point x="437" y="161"/>
    </contour>
    <contour>
      <point x="430" y="185" type="curve" smooth="yes"/>
      <point x="430" y="185"/>
      <point x="430" y="185"/>
      <point x="430" y="185" type="curve" smooth="yes"/>
      <point x="430" y="185"/>
      <point x="430" y="185"/>
      <point x="430" y="185" type="curve" smooth="yes"/>
      <point x="430" y="185"/>
      <point x="430" y="185"/>
      <point x="430" y="185" type="curve" smooth="yes"/>
      <point x="430" y="185"/>
      <point x="430" y="185"/>
    </contour>
    <contour>
      <point x="362" y="617" type="curve" smooth="yes"/>
      <point x="362" y="617"/>
      <point x="362" y="617"/>
      <point x="362" y="617" type="curve" smooth="yes"/>
      <point x="362" y="617"/>
      <point x="362" y="617"/>
      <point x="362" y="617" type="curve" smooth="yes"/>
      <point x="362" y="617"/>
      <point x="362" y="617"/>
      <point x="362" y="617" type="curve" smooth="yes"/>
      <point x="362" y="617"/>
      <point x="362" y="617"/>
    </contour>
    <contour>
      <point x="171" y="36" type="curve" smooth="yes"/>
      <point x="175" y="50" type="line" smooth="yes"/>
      <point x="181" y="72"/>
      <point x="147" y="82"/>
      <point x="138" y="59" type="curve" smooth="yes"/>
      <point x="133" y="47" type="line" smooth="yes"/>
      <point x="121" y="19"/>
      <point x="164" y="11"/>
    </contour>
    <contour>
      <point x="303" y="19" type="curve" smooth="yes"/>
      <point x="301" y="28" type="line" smooth="yes"/>
      <point x="296" y="51"/>
      <point x="265" y="45"/>
      <point x="268" y="20" type="curve" smooth="yes"/>
      <point x="269" y="11" type="line" smooth="yes"/>
      <point x="272" y="-19"/>
      <point x="309" y="-8"/>
    </contour>
    <contour>
      <point x="269" y="353" type="curve" smooth="yes"/>
      <point x="271" y="357" type="line"/>
      <point x="238" y="370" type="line"/>
      <point x="236" y="366" type="line" smooth="yes"/>
      <point x="228" y="350"/>
      <point x="260" y="335"/>
    </contour>
    <contour>
      <point x="85" y="593" type="curve" smooth="yes"/>
      <point x="93" y="590" type="line" smooth="yes"/>
      <point x="105" y="586"/>
      <point x="116" y="614"/>
      <point x="107" y="619" type="curve" smooth="yes"/>
      <point x="97" y="624" type="line" smooth="yes"/>
      <point x="85" y="630"/>
      <point x="70" y="599"/>
    </contour>
    <contour>
      <point x="142" y="651" type="curve" smooth="yes"/>
      <point x="151" y="640" type="line"/>
      <point x="177" y="657" type="line"/>
      <point x="166" y="671" type="line" smooth="yes"/>
      <point x="156" y="684"/>
      <point x="130" y="666"/>
    </contour>
  </outline>
</glyph>
<glyph name="T" format="2">
  <advance width="413"/>
  <unicode hex="0054"/>
  <anchor x="207" y="0" name="bottom"/>
  <anchor x="193" y="0" name="cedilla"/>
  <anchor x="207" y="700" name="top"/>
  <outline>
    <contour>
      <point x="194" y="10" type="line" smooth="yes"/>
      <point x="194" y="-9"/>
      <point x="219" y="-10"/>
      <point x="219" y="9" type="curve" smooth="yes"/>
      <point x="219" y="598" type="line" smooth="yes"/>
      <point x="219" y="613"/>
      <point x="226" y="620"/>
      <point x="244" y="620" type="curve" smooth="yes"/>
      <point x="373" y="620" type="line" smooth="yes"/>
      <point x="401" y="620"/>
      <point x="408" y="645"/>
      <point x="408" y="659" type="curve" smooth="yes"/>
      <point x="408" y="677"/>
      <point x="401" y="700"/>
      <point x="372" y="700" type="curve" smooth="yes"/>
      <point x="43" y="700" type="line" smooth="yes"/>
      <point x="13" y="700"/>
      <point x="5" y="678"/>
      <point x="5" y="661" type="curve" smooth="yes"/>
      <point x="5" y="644"/>
      <point x="12" y="620"/>
      <point x="42" y="620" type="curve" smooth="yes"/>
      <point x="175" y="620" type="line" smooth="yes"/>
      <point x="189" y="620"/>
      <point x="194" y="613"/>
      <point x="194" y="598" type="curve" smooth="yes"/>
    </contour>
    <contour>
      <point x="219" y="246" type="line"/>
      <point x="219" y="246" type="line"/>
      <point x="219" y="246"/>
      <point x="219" y="291"/>
      <point x="219" y="291" type="curve"/>
      <point x="219" y="291" type="line"/>
    </contour>
    <contour>
      <point x="194" y="228" type="line"/>
      <point x="194" y="228" type="line"/>
      <point x="194" y="228"/>
      <point x="194" y="180"/>
      <point x="194" y="180" type="curve"/>
      <point x="194" y="180" type="line"/>
    </contour>
    <contour>
      <point x="194" y="127" type="line"/>
      <point x="194" y="127" type="line"/>
      <point x="194" y="127"/>
      <point x="194" y="86"/>
      <point x="194" y="86" type="curve"/>
      <point x="194" y="86" type="line"/>
    </contour>
    <contour>
      <point x="206" y="643" type="curve" smooth="yes"/>
      <point x="216" y="643"/>
      <point x="225" y="652"/>
      <point x="225" y="662" type="curve" smooth="yes"/>
      <point x="225" y="672"/>
      <point x="216" y="681"/>
      <point x="206" y="681" type="curve" smooth="yes"/>
      <point x="196" y="681"/>
      <point x="187" y="672"/>
      <point x="187" y="662" type="curve" smooth="yes"/>
      <point x="187" y="652"/>
      <point x="196" y="643"/>
    </contour>
    <contour>
      <point x="215" y="554" type="line"/>
      <point x="207" y="555" type="line" smooth="yes"/>
      <point x="193" y="557"/>
      <point x="192" y="520"/>
      <point x="206" y="520" type="curve" smooth="yes"/>
      <point x="215" y="520" type="line"/>
    </contour>
    <contour>
      <point x="217" y="441" type="line"/>
      <point x="212" y="443" type="line" smooth="yes"/>
      <point x="201" y="447"/>
      <point x="190" y="414"/>
      <point x="201" y="410" type="curve" smooth="yes"/>
      <point x="206" y="408" type="line"/>
    </contour>
  </outline>
</glyph>
<glyph name="U" format="2">
  <advance width="559"/>
  <unicode hex="0055"/>
  <anchor x="380" y="0" name="ogonek"/>
  <anchor x="263" y="700" name="top"/>
  <outline>
    <contour>
      <point x="267" y="-15" type="curve" smooth="yes"/>
      <point x="410" y="-15"/>
      <point x="484" y="65"/>
      <point x="484" y="209" type="curve" smooth="yes"/>
      <point x="484" y="677" type="line" smooth="yes"/>
      <point x="484" y="728"/>
      <point x="404" y="728"/>
      <point x="404" y="679" type="curve" smooth="yes"/>
      <point x="404" y="218" type="line" smooth="yes"/>
      <point x="404" y="66"/>
      <point x="358" y="10"/>
      <point x="258" y="10" type="curve" smooth="yes"/>
      <point x="170" y="10"/>
      <point x="100" y="53"/>
      <point x="100" y="215" type="curve" smooth="yes"/>
      <point x="101" y="693" type="line" smooth="yes"/>
      <point x="101" y="716"/>
      <point x="75" y="716"/>
      <point x="75" y="693" type="curve" smooth="yes"/>
      <point x="75" y="213" type="line" smooth="yes"/>
      <point x="75" y="39"/>
      <point x="155" y="-15"/>
    </contour>
    <contour>
      <point x="404" y="500" type="line"/>
      <point x="404" y="500" type="line"/>
      <point x="404" y="500"/>
      <point x="404" y="443"/>
      <point x="404" y="443" type="curve"/>
      <point x="404" y="443" type="line"/>
    </contour>
    <contour>
      <point x="404" y="427" type="line"/>
      <point x="404" y="427" type="line"/>
      <point x="404" y="427"/>
      <point x="404" y="366"/>
      <point x="404" y="366" type="curve"/>
      <point x="404" y="366" type="line"/>
    </contour>
    <contour>
      <point x="484" y="400" type="line"/>
      <point x="484" y="364" type="line"/>
      <point x="484" y="364" type="line"/>
      <point x="484" y="364"/>
      <point x="484" y="400"/>
      <point x="484" y="400" type="curve"/>
    </contour>
    <contour>
      <point x="123" y="57" type="curve" smooth="yes"/>
      <point x="128" y="57"/>
      <point x="132" y="61"/>
      <point x="132" y="66" type="curve" smooth="yes"/>
      <point x="132" y="71"/>
      <point x="128" y="75"/>
      <point x="123" y="75" type="curve" smooth="yes"/>
      <point x="118" y="75"/>
      <point x="114" y="71"/>
      <point x="114" y="66" type="curve" smooth="yes"/>
      <point x="114" y="61"/>
      <point x="118" y="57"/>
    </contour>
    <contour>
      <point x="459" y="597" type="curve" smooth="yes"/>
      <point x="432" y="597" type="line" smooth="yes"/>
      <point x="408" y="597"/>
      <point x="403" y="557"/>
      <point x="433" y="558" type="curve" smooth="yes"/>
      <point x="457" y="559" type="line" smooth="yes"/>
      <point x="486" y="560"/>
      <point x="485" y="597"/>
    </contour>
    <contour>
      <point x="89" y="490" type="curve" smooth="yes"/>
      <point x="79" y="490" type="line"/>
      <point x="80" y="466" type="line"/>
      <point x="88" y="465" type="line" smooth="yes"/>
      <point x="100" y="463"/>
      <point x="99" y="490"/>
    </contour>
    <contour>
      <point x="452" y="427" type="curve" smooth="yes"/>
      <point x="437" y="425" type="line" smooth="yes"/>
      <point x="420" y="423"/>
      <point x="421" y="381"/>
      <point x="441" y="383" type="curve" smooth="yes"/>
      <point x="451" y="384" type="line" smooth="yes"/>
      <point x="474" y="386"/>
      <point x="472" y="430"/>
    </contour>
    <contour>
      <point x="422" y="74" type="curve" smooth="yes"/>
      <point x="415" y="86" type="line" smooth="yes"/>
      <point x="403" y="107"/>
      <point x="369" y="81"/>
      <point x="383" y="61" type="curve" smooth="yes"/>
      <point x="390" y="51" type="line" smooth="yes"/>
      <point x="405" y="30"/>
      <point x="435" y="52"/>
    </contour>
  </outline>
</glyph>
<glyph name="V" format="2">
  <advance width="482"/>
  <unicode hex="0056"/>
  <anchor x="293" y="0" name="bottom"/>
  <anchor x="272" y="700" name="top"/>
  <outline>
    <contour>
      <point x="16" y="654" type="curve" smooth="yes"/>
      <point x="152" y="68" type="line" smooth="yes"/>
      <point x="162" y="24"/>
      <point x="196" y="-8"/>
      <point x="239" y="-8" type="curve" smooth="yes"/>
      <point x="284" y="-8"/>
      <point x="315" y="14"/>
      <point x="328" y="72" type="curve" smooth="yes"/>
      <point x="467" y="691" type="line" smooth="yes"/>
      <point x="471" y="710"/>
      <point x="447" y="715"/>
      <point x="443" y="696" type="curve" smooth="yes"/>
      <point x="312" y="103" type="line" smooth="yes"/>
      <point x="303" y="61"/>
      <point x="288" y="50"/>
      <point x="267" y="50" type="curve" smooth="yes"/>
      <point x="245" y="50"/>
      <point x="231" y="69"/>
      <point x="223" y="105" type="curve" smooth="yes"/>
      <point x="104" y="670" type="line" smooth="yes"/>
      <point x="90" y="735"/>
      <point x="2" y="713"/>
    </contour>
    <contour>
      <point x="45" y="529" type="line"/>
      <point x="45" y="529" type="line"/>
      <point x="45" y="529"/>
      <point x="58" y="473"/>
      <point x="58" y="473" type="curve"/>
      <point x="58" y="473" type="line"/>
    </contour>
    <contour>
      <point x="71" y="419" type="line"/>
      <point x="71" y="419" type="line"/>
      <point x="71" y="419"/>
      <point x="84" y="360"/>
      <point x="84" y="360" type="curve"/>
      <point x="84" y="360" type="line"/>
    </contour>
    <contour>
      <point x="92" y="326" type="line"/>
      <point x="92" y="326" type="line"/>
      <point x="92" y="326"/>
      <point x="104" y="275"/>
      <point x="104" y="275" type="curve"/>
      <point x="104" y="275" type="line"/>
    </contour>
    <contour>
      <point x="213" y="39" type="curve" smooth="yes"/>
      <point x="220" y="39"/>
      <point x="225" y="44"/>
      <point x="225" y="51" type="curve" smooth="yes"/>
      <point x="225" y="57"/>
      <point x="220" y="62"/>
      <point x="213" y="62" type="curve" smooth="yes"/>
      <point x="207" y="62"/>
      <point x="202" y="57"/>
      <point x="202" y="51" type="curve" smooth="yes"/>
      <point x="202" y="44"/>
      <point x="207" y="39"/>
    </contour>
    <contour>
      <point x="452" y="646" type="line"/>
      <point x="445" y="648" type="line" smooth="yes"/>
      <point x="433" y="651"/>
      <point x="426" y="620"/>
      <point x="439" y="615" type="curve" smooth="yes"/>
      <point x="444" y="613" type="line"/>
    </contour>
    <contour>
      <point x="418" y="534" type="curve" smooth="yes"/>
      <point x="413" y="535" type="line"/>
      <point x="403" y="496" type="line"/>
      <point x="409" y="495" type="line" smooth="yes"/>
      <point x="425" y="492"/>
      <point x="431" y="531"/>
    </contour>
    <contour>
      <point x="401" y="453" type="curve" smooth="yes"/>
      <point x="395" y="454" type="line"/>
      <point x="388" y="421" type="line"/>
      <point x="393" y="420" type="line" smooth="yes"/>
      <point x="408" y="417"/>
      <point x="413" y="451"/>
    </contour>
    <contour>
      <point x="145" y="372" type="curve" smooth="yes"/>
      <point x="121" y="372" type="line" smooth="yes"/>
      <point x="103" y="372"/>
      <point x="107" y="342"/>
      <point x="122" y="343" type="curve" smooth="yes"/>
      <point x="147" y="345" type="line" smooth="yes"/>
      <point x="163" y="346"/>
      <point x="161" y="372"/>
    </contour>
    <contour>
      <point x="352" y="228" type="curve" smooth="yes"/>
      <point x="349" y="229" type="line" smooth="yes"/>
      <point x="339" y="232"/>
      <point x="332" y="195"/>
      <point x="341" y="191" type="curve" smooth="yes"/>
      <point x="346" y="189" type="line" smooth="yes"/>
      <point x="355" y="185"/>
      <point x="363" y="224"/>
    </contour>
    <contour>
      <point x="368" y="303" type="curve" smooth="yes"/>
      <point x="361" y="306" type="line"/>
      <point x="351" y="265" type="line"/>
      <point x="359" y="263" type="line" smooth="yes"/>
      <point x="372" y="260"/>
      <point x="377" y="299"/>
    </contour>
  </outline>
</glyph>
